<ttFont>
<head>
    <!-- Most of this table will be recalculated by the compiler -->
    <tableVersion value="1.0"/>
    <fontRevision value="1.437"/>
    <checkSumAdjustment value="0xf4d6ec13"/>
    <magicNumber value="0x5f0f3cf5"/>
    <flags value="00000000 00001101"/>
    <unitsPerEm value="1000"/>
    <created value="Fri Jul 30 13:54:32 2021"/>
    <modified value="Mon Jun 15 12:00:00 2026"/>
    <xMin value="-220"/>
    <yMin value="-400"/>
    <xMax value="922"/>
    <yMax value="1120"/>
    <macStyle value="00000000 00000011"/>
    <lowestRecPPEM value="6"/>
    <fontDirectionHint value="2"/>
    <indexToLocFormat value="0"/>
    <glyphDataFormat value="0"/>
  </head>
    <TTGlyph name=".notdef" xMin="54" yMin="0" xMax="482" yMax="730">
      <contour>
        <pt x="54" y="0" on="1"/>
        <pt x="54" y="730" on="1"/>
        <pt x="482" y="730" on="1"/>
        <pt x="482" y="0" on="1"/>
      </contour>
      <contour>
        <pt x="105" y="109" on="1"/>
        <pt x="411" y="680" on="1"/>
        <pt x="105" y="680" on="1"/>
      </contour>
      <contour>
        <pt x="125" y="50" on="1"/>
        <pt x="431" y="50" on="1"/>
        <pt x="431" y="621" on="1"/>
      </contour>
    </TTGlyph>
    <TTGlyph name="A" xMin="58" yMin="0" xMax="633" yMax="739">
      <contour>
        <pt x="58" y="0" on="1"/>
        <pt x="387" y="739" on="1"/>
        <pt x="541" y="739" on="1"/>
        <pt x="633" y="0" on="1"/>
        <pt x="495" y="0" on="1"/>
        <pt x="482" y="132" on="1"/>
        <pt x="269" y="132" on="1"/>
        <pt x="213" y="0" on="1"/>
      </contour>
      <contour>
        <pt x="325" y="273" on="1"/>
        <pt x="469" y="273" on="1"/>
        <pt x="442" y="555" on="1"/>
      </contour>
    </TTGlyph>
    <TTGlyph name="AE" xMin="58" yMin="0" xMax="633" yMax="739">
      <contour>
        <pt x="58" y="0" on="1"/>
        <pt x="370" y="739" on="1"/>
        <pt x="633" y="739" on="1"/>
        <pt x="618" y="585" on="1"/>
        <pt x="438" y="585" on="1"/>
        <pt x="425" y="456" on="1"/>
        <pt x="535" y="456" on="1"/>
        <pt x="521" y="305" on="1"/>
        <pt x="410" y="305" on="1"/>
        <pt x="396" y="154" on="1"/>
        <pt x="576" y="154" on="1"/>
        <pt x="562" y="0" on="1"/>
        <pt x="299" y="0" on="1"/>
        <pt x="312" y="132" on="1"/>
        <pt x="213" y="132" on="1"/>
        <pt x="159" y="0" on="1"/>
      </contour>
      <contour>
        <pt x="270" y="273" on="1"/>
        <pt x="325" y="273" on="1"/>
        <pt x="344" y="466" on="1"/>
      </contour>
    </TTGlyph>
    <TTGlyph name="AEacute" xMin="58" yMin="0" xMax="633" yMax="950">
      <component glyphName="AE" x="0" y="0" flags="0x204"/>
      <component glyphName="acutecomb.case" x="286" y="0" flags="0x4"/>
    </TTGlyph>
    <TTGlyph name="Aacute" xMin="58" yMin="0" xMax="633" yMax="982">
      <contour>
        <pt x="58" y="0" on="1"/>
        <pt x="387" y="730" on="1"/>
        <pt x="541" y="730" on="1"/>
        <pt x="633" y="0" on="1"/>
        <pt x="495" y="0" on="1"/>
        <pt x="482" y="130" on="1"/>
        <pt x="269" y="130" on="1"/>
        <pt x="213" y="0" on="1"/>
      </contour>
      <contour>
        <pt x="325" y="270" on="1"/>
        <pt x="469" y="270" on="1"/>
        <pt x="442" y="548" on="1"/>
      </contour>
      <contour>
        <pt x="421" y="815" on="1"/>
        <pt x="421" y="815" on="0"/>
        <pt x="446" y="846" on="0"/>
        <pt x="481" y="892" on="0"/>
        <pt x="515" y="938" on="0"/>
        <pt x="541" y="969" on="0"/>
        <pt x="541" y="969" on="1"/>
        <pt x="553" y="982" on="0"/>
        <pt x="569" y="982" on="1"/>
        <pt x="593" y="982" on="0"/>
        <pt x="607" y="959" on="1"/>
        <pt x="617" y="944" on="0"/>
        <pt x="617" y="921" on="1"/>
        <pt x="617" y="893" on="0"/>
        <pt x="599" y="874" on="1"/>
        <pt x="598" y="872" on="0"/>
        <pt x="574" y="853" on="0"/>
        <pt x="546" y="832" on="0"/>
        <pt x="524" y="815" on="0"/>
        <pt x="524" y="815" on="1"/>
      </contour>
    </TTGlyph>
    <TTGlyph name="Abreve" xMin="58" yMin="0" xMax="633" yMax="929">
      <contour>
        <pt x="58" y="0" on="1"/>
        <pt x="387" y="730" on="1"/>
        <pt x="541" y="730" on="1"/>
        <pt x="633" y="0" on="1"/>
        <pt x="495" y="0" on="1"/>
        <pt x="482" y="130" on="1"/>
        <pt x="269" y="130" on="1"/>
        <pt x="213" y="0" on="1"/>
      </contour>
      <contour>
        <pt x="325" y="270" on="1"/>
        <pt x="469" y="270" on="1"/>
        <pt x="442" y="548" on="1"/>
      </contour>
      <contour>
        <pt x="495" y="808" on="1"/>
        <pt x="446" y="808" on="0"/>
        <pt x="380" y="875" on="0"/>
        <pt x="376" y="929" on="1"/>
        <pt x="454" y="929" on="1"/>
        <pt x="458" y="911" on="0"/>
        <pt x="483" y="888" on="0"/>
        <pt x="499" y="888" on="1"/>
        <pt x="515" y="888" on="0"/>
        <pt x="543" y="911" on="0"/>
        <pt x="548" y="929" on="1"/>
        <pt x="627" y="929" on="1"/>
        <pt x="614" y="879" on="0"/>
        <pt x="547" y="808" on="0"/>
      </contour>
    </TTGlyph>
    <TTGlyph name="Acircumflex" xMin="58" yMin="0" xMax="633" yMax="965">
      <contour>
        <pt x="58" y="0" on="1"/>
        <pt x="378" y="730" on="1"/>
        <pt x="527" y="730" on="1"/>
        <pt x="617" y="0" on="1"/>
        <pt x="483" y="0" on="1"/>
        <pt x="469" y="130" on="1"/>
        <pt x="262" y="130" on="1"/>
        <pt x="209" y="0" on="1"/>
      </contour>
      <contour>
        <pt x="318" y="270" on="1"/>
        <pt x="458" y="270" on="1"/>
        <pt x="431" y="548" on="1"/>
      </contour>
      <contour>
        <pt x="303" y="799" on="1"/>
        <pt x="457" y="949" on="1"/>
        <pt x="473" y="965" on="0"/>
        <pt x="492" y="965" on="1"/>
        <pt x="520" y="965" on="0"/>
        <pt x="537" y="938" on="1"/>
        <pt x="633" y="799" on="1"/>
        <pt x="538" y="799" on="1"/>
        <pt x="491" y="866" on="1"/>
        <pt x="423" y="799" on="1"/>
      </contour>
    </TTGlyph>
    <TTGlyph name="Adieresis" xMin="58" yMin="0" xMax="633" yMax="947">
      <contour>
        <pt x="58" y="0" on="1"/>
        <pt x="387" y="730" on="1"/>
        <pt x="541" y="730" on="1"/>
        <pt x="633" y="0" on="1"/>
        <pt x="495" y="0" on="1"/>
        <pt x="482" y="130" on="1"/>
        <pt x="269" y="130" on="1"/>
        <pt x="213" y="0" on="1"/>
      </contour>
      <contour>
        <pt x="325" y="270" on="1"/>
        <pt x="469" y="270" on="1"/>
        <pt x="442" y="548" on="1"/>
      </contour>
      <contour>
        <pt x="411" y="793" on="1"/>
        <pt x="387" y="793" on="0"/>
        <pt x="352" y="838" on="0"/>
        <pt x="352" y="870" on="1"/>
        <pt x="352" y="902" on="0"/>
        <pt x="387" y="947" on="0"/>
        <pt x="411" y="947" on="1"/>
        <pt x="436" y="947" on="0"/>
        <pt x="470" y="902" on="0"/>
        <pt x="470" y="870" on="1"/>
        <pt x="470" y="838" on="0"/>
        <pt x="436" y="793" on="0"/>
      </contour>
      <contour>
        <pt x="573" y="793" on="1"/>
        <pt x="549" y="793" on="0"/>
        <pt x="514" y="838" on="0"/>
        <pt x="514" y="870" on="1"/>
        <pt x="514" y="902" on="0"/>
        <pt x="549" y="947" on="0"/>
        <pt x="573" y="947" on="1"/>
        <pt x="598" y="947" on="0"/>
        <pt x="631" y="902" on="0"/>
        <pt x="631" y="870" on="1"/>
        <pt x="631" y="838" on="0"/>
        <pt x="598" y="793" on="0"/>
      </contour>
    </TTGlyph>
    <TTGlyph name="Agrave" xMin="58" yMin="0" xMax="633" yMax="966">
      <contour>
        <pt x="58" y="0" on="1"/>
        <pt x="387" y="730" on="1"/>
        <pt x="541" y="730" on="1"/>
        <pt x="633" y="0" on="1"/>
        <pt x="495" y="0" on="1"/>
        <pt x="482" y="130" on="1"/>
        <pt x="269" y="130" on="1"/>
        <pt x="213" y="0" on="1"/>
      </contour>
      <contour>
        <pt x="325" y="270" on="1"/>
        <pt x="469" y="270" on="1"/>
        <pt x="442" y="548" on="1"/>
      </contour>
      <contour>
        <pt x="443" y="799" on="1"/>
        <pt x="439" y="803" on="0"/>
        <pt x="418" y="827" on="0"/>
        <pt x="395" y="856" on="0"/>
        <pt x="388" y="867" on="1"/>
        <pt x="377" y="884" on="0"/>
        <pt x="377" y="907" on="1"/>
        <pt x="377" y="932" on="0"/>
        <pt x="405" y="966" on="0"/>
        <pt x="423" y="966" on="1"/>
        <pt x="446" y="966" on="0"/>
        <pt x="460" y="943" on="1"/>
        <pt x="468" y="930" on="0"/>
        <pt x="491" y="886" on="0"/>
        <pt x="514" y="839" on="0"/>
        <pt x="531" y="803" on="0"/>
        <pt x="533" y="799" on="1"/>
      </contour>
    </TTGlyph>
    <TTGlyph name="Alpha" xMin="84" yMin="0" xMax="659" yMax="739">
      <component glyphName="A" x="26" y="0" flags="0x4"/>
    </TTGlyph>
    <TTGlyph name="Alphatonos" xMin="58" yMin="0" xMax="633" yMax="739">
      <component glyphName="A" x="0" y="0" flags="0x204"/>
      <component glyphName="tonos.case" x="-13" y="0" flags="0x4"/>
    </TTGlyph>
    <TTGlyph name="Amacron" xMin="58" yMin="0" xMax="633" yMax="923">
      <contour>
        <pt x="58" y="0" on="1"/>
        <pt x="387" y="730" on="1"/>
        <pt x="541" y="730" on="1"/>
        <pt x="633" y="0" on="1"/>
        <pt x="495" y="0" on="1"/>
        <pt x="482" y="130" on="1"/>
        <pt x="269" y="130" on="1"/>
        <pt x="213" y="0" on="1"/>
      </contour>
      <contour>
        <pt x="325" y="270" on="1"/>
        <pt x="469" y="270" on="1"/>
        <pt x="442" y="548" on="1"/>
      </contour>
      <contour>
        <pt x="358" y="816" on="1"/>
        <pt x="376" y="923" on="1"/>
        <pt x="626" y="923" on="1"/>
        <pt x="608" y="816" on="1"/>
      </contour>
    </TTGlyph>
    <TTGlyph name="Aogonek" xMin="58" yMin="-192" xMax="633" yMax="739">
      <contour>
        <pt x="58" y="0" on="1"/>
        <pt x="387" y="739" on="1"/>
        <pt x="541" y="739" on="1"/>
        <pt x="633" y="0" on="1"/>
        <pt x="615" y="-2" on="0"/>
        <pt x="572" y="-26" on="0"/>
        <pt x="541" y="-62" on="0"/>
        <pt x="541" y="-83" on="1"/>
        <pt x="541" y="-97" on="0"/>
        <pt x="562" y="-108" on="0"/>
        <pt x="574" y="-108" on="1"/>
        <pt x="587" y="-108" on="0"/>
        <pt x="612" y="-99" on="0"/>
        <pt x="617" y="-98" on="1"/>
        <pt x="604" y="-181" on="1"/>
        <pt x="594" y="-186" on="0"/>
        <pt x="552" y="-192" on="0"/>
        <pt x="536" y="-192" on="1"/>
        <pt x="496" y="-192" on="0"/>
        <pt x="450" y="-167" on="0"/>
        <pt x="432" y="-129" on="0"/>
        <pt x="432" y="-109" on="1"/>
        <pt x="432" y="-69" on="0"/>
        <pt x="484" y="-11" on="0"/>
        <pt x="515" y="0" on="1"/>
        <pt x="495" y="0" on="1"/>
        <pt x="482" y="132" on="1"/>
        <pt x="269" y="132" on="1"/>
        <pt x="213" y="0" on="1"/>
      </contour>
      <contour>
        <pt x="325" y="273" on="1"/>
        <pt x="469" y="273" on="1"/>
        <pt x="442" y="555" on="1"/>
      </contour>
    </TTGlyph>
    <TTGlyph name="Aring" xMin="58" yMin="0" xMax="633" yMax="961">
      <contour>
        <pt x="58" y="0" on="1"/>
        <pt x="387" y="730" on="1"/>
        <pt x="541" y="730" on="1"/>
        <pt x="633" y="0" on="1"/>
        <pt x="495" y="0" on="1"/>
        <pt x="482" y="130" on="1"/>
        <pt x="269" y="130" on="1"/>
        <pt x="213" y="0" on="1"/>
      </contour>
      <contour>
        <pt x="325" y="270" on="1"/>
        <pt x="469" y="270" on="1"/>
        <pt x="442" y="548" on="1"/>
      </contour>
      <contour>
        <pt x="473" y="671" on="1"/>
        <pt x="443" y="671" on="0"/>
        <pt x="392" y="710" on="0"/>
        <pt x="363" y="777" on="0"/>
        <pt x="363" y="816" on="1"/>
        <pt x="363" y="857" on="0"/>
        <pt x="392" y="921" on="0"/>
        <pt x="443" y="961" on="0"/>
        <pt x="473" y="961" on="1"/>
        <pt x="504" y="961" on="0"/>
        <pt x="554" y="921" on="0"/>
        <pt x="585" y="857" on="0"/>
        <pt x="585" y="816" on="1"/>
        <pt x="585" y="777" on="0"/>
        <pt x="554" y="710" on="0"/>
        <pt x="504" y="671" on="0"/>
      </contour>
      <contour>
        <pt x="473" y="765" on="1"/>
        <pt x="490" y="765" on="0"/>
        <pt x="512" y="796" on="0"/>
        <pt x="512" y="816" on="1"/>
        <pt x="512" y="838" on="0"/>
        <pt x="490" y="868" on="0"/>
        <pt x="473" y="868" on="1"/>
        <pt x="458" y="868" on="0"/>
        <pt x="433" y="838" on="0"/>
        <pt x="433" y="816" on="1"/>
        <pt x="433" y="796" on="0"/>
        <pt x="458" y="765" on="0"/>
      </contour>
    </TTGlyph>
    <TTGlyph name="Atilde" xMin="58" yMin="0" xMax="633" yMax="926">
      <contour>
        <pt x="58" y="0" on="1"/>
        <pt x="375" y="730" on="1"/>
        <pt x="522" y="730" on="1"/>
        <pt x="611" y="0" on="1"/>
        <pt x="479" y="0" on="1"/>
        <pt x="466" y="130" on="1"/>
        <pt x="260" y="130" on="1"/>
        <pt x="208" y="0" on="1"/>
      </contour>
      <contour>
        <pt x="315" y="270" on="1"/>
        <pt x="453" y="270" on="1"/>
        <pt x="428" y="548" on="1"/>
      </contour>
      <contour>
        <pt x="534" y="792" on="1"/>
        <pt x="512" y="792" on="0"/>
        <pt x="483" y="805" on="0"/>
        <pt x="460" y="822" on="0"/>
        <pt x="438" y="835" on="0"/>
        <pt x="421" y="835" on="1"/>
        <pt x="397" y="835" on="0"/>
        <pt x="380" y="799" on="1"/>
        <pt x="308" y="799" on="1"/>
        <pt x="316" y="831" on="0"/>
        <pt x="347" y="888" on="0"/>
        <pt x="391" y="925" on="0"/>
        <pt x="418" y="925" on="1"/>
        <pt x="450" y="925" on="0"/>
        <pt x="487" y="903" on="0"/>
        <pt x="514" y="880" on="0"/>
        <pt x="530" y="880" on="1"/>
        <pt x="548" y="880" on="0"/>
        <pt x="566" y="897" on="0"/>
        <pt x="579" y="919" on="0"/>
        <pt x="592" y="923" on="1"/>
        <pt x="594" y="925" on="0"/>
        <pt x="599" y="926" on="0"/>
        <pt x="601" y="926" on="1"/>
        <pt x="614" y="926" on="0"/>
        <pt x="633" y="900" on="0"/>
        <pt x="633" y="883" on="1"/>
        <pt x="633" y="867" on="0"/>
        <pt x="625" y="852" on="1"/>
        <pt x="617" y="836" on="0"/>
        <pt x="574" y="792" on="0"/>
      </contour>
    </TTGlyph>
    <TTGlyph name="B" xMin="58" yMin="0" xMax="633" yMax="739">
      <contour>
        <pt x="58" y="0" on="1"/>
        <pt x="182" y="739" on="1"/>
        <pt x="440" y="739" on="1"/>
        <pt x="492" y="739" on="0"/>
        <pt x="579" y="712" on="0"/>
        <pt x="633" y="644" on="0"/>
        <pt x="633" y="580" on="1"/>
        <pt x="633" y="517" on="0"/>
        <pt x="583" y="419" on="0"/>
        <pt x="536" y="393" on="1"/>
        <pt x="567" y="374" on="0"/>
        <pt x="604" y="308" on="0"/>
        <pt x="604" y="253" on="1"/>
        <pt x="604" y="165" on="0"/>
        <pt x="528" y="53" on="0"/>
        <pt x="401" y="0" on="0"/>
        <pt x="326" y="0" on="1"/>
      </contour>
      <contour>
        <pt x="274" y="446" on="1"/>
        <pt x="396" y="446" on="1"/>
        <pt x="434" y="446" on="0"/>
        <pt x="485" y="494" on="0"/>
        <pt x="485" y="535" on="1"/>
        <pt x="485" y="563" on="0"/>
        <pt x="453" y="596" on="0"/>
        <pt x="421" y="596" on="1"/>
        <pt x="300" y="596" on="1"/>
      </contour>
      <contour>
        <pt x="223" y="145" on="1"/>
        <pt x="353" y="145" on="1"/>
        <pt x="399" y="145" on="0"/>
        <pt x="458" y="203" on="0"/>
        <pt x="458" y="246" on="1"/>
        <pt x="458" y="277" on="0"/>
        <pt x="413" y="312" on="0"/>
        <pt x="375" y="312" on="1"/>
        <pt x="252" y="312" on="1"/>
      </contour>
    </TTGlyph>
    <TTGlyph name="Beta" xMin="84" yMin="0" xMax="659" yMax="739">
      <component glyphName="B" x="26" y="0" flags="0x4"/>
    </TTGlyph>
    <TTGlyph name="C" xMin="58" yMin="-13" xMax="633" yMax="752">
      <contour>
        <pt x="319" y="-13" on="1"/>
        <pt x="244" y="-13" on="0"/>
        <pt x="126" y="55" on="0"/>
        <pt x="58" y="190" on="0"/>
        <pt x="58" y="293" on="1"/>
        <pt x="58" y="392" on="0"/>
        <pt x="106" y="559" on="0"/>
        <pt x="196" y="682" on="0"/>
        <pt x="325" y="752" on="0"/>
        <pt x="404" y="752" on="1"/>
        <pt x="451" y="752" on="0"/>
        <pt x="544" y="720" on="0"/>
        <pt x="616" y="645" on="0"/>
        <pt x="633" y="581" on="1"/>
        <pt x="502" y="526" on="1"/>
        <pt x="485" y="573" on="0"/>
        <pt x="427" y="608" on="0"/>
        <pt x="389" y="608" on="1"/>
        <pt x="347" y="608" on="0"/>
        <pt x="281" y="559" on="0"/>
        <pt x="234" y="475" on="0"/>
        <pt x="209" y="369" on="0"/>
        <pt x="209" y="313" on="1"/>
        <pt x="209" y="224" on="0"/>
        <pt x="278" y="134" on="0"/>
        <pt x="333" y="133" on="1"/>
        <pt x="367" y="133" on="0"/>
        <pt x="432" y="168" on="0"/>
        <pt x="461" y="215" on="1"/>
        <pt x="584" y="156" on="1"/>
        <pt x="542" y="77" on="0"/>
        <pt x="410" y="-13" on="0"/>
      </contour>
    </TTGlyph>
    <TTGlyph name="Cacute" xMin="58" yMin="-13" xMax="633" yMax="966">
      <contour>
        <pt x="319" y="-13" on="1"/>
        <pt x="244" y="-13" on="0"/>
        <pt x="126" y="54" on="0"/>
        <pt x="58" y="188" on="0"/>
        <pt x="58" y="290" on="1"/>
        <pt x="58" y="387" on="0"/>
        <pt x="106" y="552" on="0"/>
        <pt x="196" y="674" on="0"/>
        <pt x="325" y="743" on="0"/>
        <pt x="404" y="743" on="1"/>
        <pt x="451" y="743" on="0"/>
        <pt x="544" y="711" on="0"/>
        <pt x="616" y="637" on="0"/>
        <pt x="633" y="574" on="1"/>
        <pt x="502" y="520" on="1"/>
        <pt x="485" y="566" on="0"/>
        <pt x="427" y="601" on="0"/>
        <pt x="389" y="601" on="1"/>
        <pt x="347" y="601" on="0"/>
        <pt x="281" y="552" on="0"/>
        <pt x="234" y="469" on="0"/>
        <pt x="209" y="365" on="0"/>
        <pt x="209" y="309" on="1"/>
        <pt x="209" y="221" on="0"/>
        <pt x="278" y="132" on="0"/>
        <pt x="333" y="131" on="1"/>
        <pt x="367" y="131" on="0"/>
        <pt x="432" y="166" on="0"/>
        <pt x="461" y="212" on="1"/>
        <pt x="584" y="154" on="1"/>
        <pt x="542" y="76" on="0"/>
        <pt x="410" y="-13" on="0"/>
      </contour>
      <contour>
        <pt x="348" y="799" on="1"/>
        <pt x="381" y="837" on="0"/>
        <pt x="443" y="912" on="0"/>
        <pt x="469" y="943" on="1"/>
        <pt x="482" y="958" on="0"/>
        <pt x="501" y="966" on="0"/>
        <pt x="509" y="966" on="1"/>
        <pt x="532" y="966" on="0"/>
        <pt x="559" y="928" on="0"/>
        <pt x="559" y="905" on="1"/>
        <pt x="559" y="876" on="0"/>
        <pt x="542" y="858" on="1"/>
        <pt x="536" y="853" on="0"/>
        <pt x="510" y="834" on="0"/>
        <pt x="481" y="813" on="0"/>
        <pt x="459" y="799" on="0"/>
        <pt x="459" y="799" on="1"/>
      </contour>
    </TTGlyph>
    <TTGlyph name="Ccaron" xMin="58" yMin="-13" xMax="633" yMax="958">
      <contour>
        <pt x="318" y="-13" on="1"/>
        <pt x="244" y="-13" on="0"/>
        <pt x="126" y="54" on="0"/>
        <pt x="58" y="188" on="0"/>
        <pt x="58" y="290" on="1"/>
        <pt x="58" y="387" on="0"/>
        <pt x="106" y="552" on="0"/>
        <pt x="196" y="674" on="0"/>
        <pt x="324" y="743" on="0"/>
        <pt x="403" y="743" on="1"/>
        <pt x="450" y="743" on="0"/>
        <pt x="543" y="711" on="0"/>
        <pt x="614" y="637" on="0"/>
        <pt x="631" y="574" on="1"/>
        <pt x="500" y="520" on="1"/>
        <pt x="484" y="566" on="0"/>
        <pt x="426" y="601" on="0"/>
        <pt x="388" y="601" on="1"/>
        <pt x="346" y="601" on="0"/>
        <pt x="280" y="552" on="0"/>
        <pt x="234" y="469" on="0"/>
        <pt x="209" y="365" on="0"/>
        <pt x="209" y="309" on="1"/>
        <pt x="209" y="221" on="0"/>
        <pt x="277" y="132" on="0"/>
        <pt x="333" y="131" on="1"/>
        <pt x="366" y="131" on="0"/>
        <pt x="431" y="166" on="0"/>
        <pt x="460" y="212" on="1"/>
        <pt x="581" y="154" on="1"/>
        <pt x="541" y="76" on="0"/>
        <pt x="409" y="-13" on="0"/>
      </contour>
      <contour>
        <pt x="423" y="792" on="1"/>
        <pt x="395" y="792" on="0"/>
        <pt x="375" y="820" on="1"/>
        <pt x="272" y="958" on="1"/>
        <pt x="376" y="958" on="1"/>
        <pt x="426" y="892" on="1"/>
        <pt x="501" y="958" on="1"/>
        <pt x="633" y="958" on="1"/>
        <pt x="463" y="809" on="1"/>
        <pt x="445" y="792" on="0"/>
      </contour>
    </TTGlyph>
    <TTGlyph name="Ccedilla" xMin="58" yMin="-216" xMax="633" yMax="752">
      <contour>
        <pt x="319" y="-13" on="1"/>
        <pt x="244" y="-13" on="0"/>
        <pt x="126" y="55" on="0"/>
        <pt x="58" y="190" on="0"/>
        <pt x="58" y="293" on="1"/>
        <pt x="58" y="392" on="0"/>
        <pt x="106" y="559" on="0"/>
        <pt x="196" y="682" on="0"/>
        <pt x="325" y="752" on="0"/>
        <pt x="404" y="752" on="1"/>
        <pt x="451" y="752" on="0"/>
        <pt x="544" y="720" on="0"/>
        <pt x="616" y="645" on="0"/>
        <pt x="633" y="581" on="1"/>
        <pt x="502" y="526" on="1"/>
        <pt x="485" y="573" on="0"/>
        <pt x="427" y="608" on="0"/>
        <pt x="389" y="608" on="1"/>
        <pt x="347" y="608" on="0"/>
        <pt x="281" y="559" on="0"/>
        <pt x="234" y="475" on="0"/>
        <pt x="209" y="369" on="0"/>
        <pt x="209" y="313" on="1"/>
        <pt x="209" y="224" on="0"/>
        <pt x="278" y="134" on="0"/>
        <pt x="333" y="133" on="1"/>
        <pt x="367" y="133" on="0"/>
        <pt x="432" y="168" on="0"/>
        <pt x="461" y="215" on="1"/>
        <pt x="584" y="156" on="1"/>
        <pt x="542" y="77" on="0"/>
        <pt x="410" y="-13" on="0"/>
      </contour>
      <contour>
        <pt x="264" y="-216" on="1"/>
        <pt x="237" y="-216" on="0"/>
        <pt x="190" y="-203" on="0"/>
        <pt x="178" y="-197" on="1"/>
        <pt x="201" y="-142" on="1"/>
        <pt x="228" y="-156" on="0"/>
        <pt x="256" y="-156" on="1"/>
        <pt x="275" y="-156" on="0"/>
        <pt x="302" y="-139" on="0"/>
        <pt x="302" y="-120" on="1"/>
        <pt x="302" y="-108" on="0"/>
        <pt x="282" y="-93" on="0"/>
        <pt x="268" y="-93" on="1"/>
        <pt x="256" y="-93" on="0"/>
        <pt x="247" y="-98" on="0"/>
        <pt x="241" y="-98" on="1"/>
        <pt x="235" y="-98" on="0"/>
        <pt x="224" y="-88" on="0"/>
        <pt x="224" y="-79" on="1"/>
        <pt x="224" y="-71" on="0"/>
        <pt x="230" y="-63" on="1"/>
        <pt x="292" y="28" on="1"/>
        <pt x="324" y="1" on="1"/>
        <pt x="289" y="-52" on="1"/>
        <pt x="301" y="-49" on="0"/>
        <pt x="314" y="-49" on="1"/>
        <pt x="345" y="-49" on="0"/>
        <pt x="384" y="-85" on="0"/>
        <pt x="384" y="-114" on="1"/>
        <pt x="384" y="-154" on="0"/>
        <pt x="347" y="-198" on="0"/>
        <pt x="292" y="-216" on="0"/>
      </contour>
    </TTGlyph>
    <TTGlyph name="Ccircumflex" xMin="58" yMin="-13" xMax="633" yMax="950">
      <component glyphName="C" x="0" y="0" flags="0x204"/>
      <component glyphName="uni0302.case" x="176" y="0" flags="0x4"/>
    </TTGlyph>
    <TTGlyph name="Cdotaccent" xMin="58" yMin="-13" xMax="633" yMax="947">
      <contour>
        <pt x="319" y="-13" on="1"/>
        <pt x="244" y="-13" on="0"/>
        <pt x="126" y="54" on="0"/>
        <pt x="58" y="188" on="0"/>
        <pt x="58" y="290" on="1"/>
        <pt x="58" y="387" on="0"/>
        <pt x="106" y="552" on="0"/>
        <pt x="196" y="674" on="0"/>
        <pt x="325" y="743" on="0"/>
        <pt x="404" y="743" on="1"/>
        <pt x="451" y="743" on="0"/>
        <pt x="544" y="711" on="0"/>
        <pt x="616" y="637" on="0"/>
        <pt x="633" y="574" on="1"/>
        <pt x="502" y="520" on="1"/>
        <pt x="485" y="566" on="0"/>
        <pt x="427" y="601" on="0"/>
        <pt x="389" y="601" on="1"/>
        <pt x="347" y="601" on="0"/>
        <pt x="281" y="552" on="0"/>
        <pt x="234" y="469" on="0"/>
        <pt x="209" y="365" on="0"/>
        <pt x="209" y="309" on="1"/>
        <pt x="209" y="221" on="0"/>
        <pt x="278" y="132" on="0"/>
        <pt x="333" y="131" on="1"/>
        <pt x="367" y="131" on="0"/>
        <pt x="432" y="166" on="0"/>
        <pt x="461" y="212" on="1"/>
        <pt x="584" y="154" on="1"/>
        <pt x="542" y="76" on="0"/>
        <pt x="410" y="-13" on="0"/>
      </contour>
      <contour>
        <pt x="440" y="793" on="1"/>
        <pt x="413" y="793" on="0"/>
        <pt x="376" y="838" on="0"/>
        <pt x="376" y="870" on="1"/>
        <pt x="376" y="902" on="0"/>
        <pt x="413" y="947" on="0"/>
        <pt x="440" y="947" on="1"/>
        <pt x="465" y="947" on="0"/>
        <pt x="503" y="902" on="0"/>
        <pt x="503" y="870" on="1"/>
        <pt x="503" y="838" on="0"/>
        <pt x="465" y="793" on="0"/>
      </contour>
    </TTGlyph>
    <TTGlyph name="Chi" xMin="84" yMin="0" xMax="659" yMax="739">
      <component glyphName="X" x="26" y="0" flags="0x4"/>
    </TTGlyph>
    <TTGlyph name="D" xMin="50" yMin="0" xMax="645" yMax="739">
      <contour>
        <pt x="50" y="0" on="1"/>
        <pt x="169" y="739" on="1"/>
        <pt x="333" y="739" on="1"/>
        <pt x="492" y="739" on="0"/>
        <pt x="645" y="537" on="0"/>
        <pt x="618" y="345" on="1"/>
        <pt x="604" y="247" on="0"/>
        <pt x="529" y="112" on="0"/>
        <pt x="423" y="34" on="0"/>
        <pt x="300" y="0" on="0"/>
        <pt x="237" y="0" on="1"/>
      </contour>
      <contour>
        <pt x="210" y="147" on="1"/>
        <pt x="263" y="147" on="1"/>
        <pt x="331" y="147" on="0"/>
        <pt x="423" y="210" on="0"/>
        <pt x="475" y="322" on="0"/>
        <pt x="480" y="393" on="1"/>
        <pt x="491" y="505" on="0"/>
        <pt x="422" y="594" on="0"/>
        <pt x="331" y="594" on="1"/>
        <pt x="283" y="594" on="1"/>
      </contour>
    </TTGlyph>
    <TTGlyph name="Dcaron" xMin="50" yMin="0" xMax="645" yMax="958">
      <contour>
        <pt x="50" y="0" on="1"/>
        <pt x="169" y="730" on="1"/>
        <pt x="333" y="730" on="1"/>
        <pt x="492" y="730" on="0"/>
        <pt x="645" y="531" on="0"/>
        <pt x="618" y="341" on="1"/>
        <pt x="604" y="244" on="0"/>
        <pt x="529" y="111" on="0"/>
        <pt x="423" y="34" on="0"/>
        <pt x="300" y="0" on="0"/>
        <pt x="237" y="0" on="1"/>
      </contour>
      <contour>
        <pt x="210" y="145" on="1"/>
        <pt x="263" y="145" on="1"/>
        <pt x="331" y="145" on="0"/>
        <pt x="423" y="208" on="0"/>
        <pt x="475" y="318" on="0"/>
        <pt x="480" y="388" on="1"/>
        <pt x="491" y="499" on="0"/>
        <pt x="422" y="587" on="0"/>
        <pt x="331" y="587" on="1"/>
        <pt x="283" y="587" on="1"/>
      </contour>
      <contour>
        <pt x="419" y="792" on="1"/>
        <pt x="392" y="792" on="0"/>
        <pt x="373" y="820" on="1"/>
        <pt x="277" y="958" on="1"/>
        <pt x="374" y="958" on="1"/>
        <pt x="421" y="892" on="1"/>
        <pt x="493" y="958" on="1"/>
        <pt x="617" y="958" on="1"/>
        <pt x="456" y="809" on="1"/>
        <pt x="440" y="792" on="0"/>
      </contour>
    </TTGlyph>
    <TTGlyph name="Dcroat" xMin="58" yMin="0" xMax="633" yMax="739">
      <contour>
        <pt x="72" y="0" on="1"/>
        <pt x="119" y="305" on="1"/>
        <pt x="58" y="305" on="1"/>
        <pt x="82" y="455" on="1"/>
        <pt x="145" y="455" on="1"/>
        <pt x="189" y="739" on="1"/>
        <pt x="348" y="739" on="1"/>
        <pt x="493" y="739" on="0"/>
        <pt x="633" y="575" on="0"/>
        <pt x="633" y="434" on="1"/>
        <pt x="633" y="290" on="0"/>
        <pt x="536" y="97" on="0"/>
        <pt x="366" y="0" on="0"/>
        <pt x="256" y="0" on="1"/>
      </contour>
      <contour>
        <pt x="229" y="147" on="1"/>
        <pt x="280" y="147" on="1"/>
        <pt x="385" y="147" on="0"/>
        <pt x="494" y="308" on="0"/>
        <pt x="494" y="444" on="1"/>
        <pt x="494" y="520" on="0"/>
        <pt x="432" y="594" on="0"/>
        <pt x="347" y="594" on="1"/>
        <pt x="299" y="594" on="1"/>
        <pt x="277" y="455" on="1"/>
        <pt x="373" y="455" on="1"/>
        <pt x="347" y="305" on="1"/>
        <pt x="253" y="305" on="1"/>
      </contour>
    </TTGlyph>
    <TTGlyph name="E" xMin="58" yMin="0" xMax="633" yMax="739">
      <contour>
        <pt x="58" y="0" on="1"/>
        <pt x="181" y="739" on="1"/>
        <pt x="633" y="739" on="1"/>
        <pt x="607" y="585" on="1"/>
        <pt x="297" y="585" on="1"/>
        <pt x="275" y="456" on="1"/>
        <pt x="464" y="456" on="1"/>
        <pt x="439" y="303" on="1"/>
        <pt x="250" y="303" on="1"/>
        <pt x="224" y="154" on="1"/>
        <pt x="534" y="154" on="1"/>
        <pt x="509" y="0" on="1"/>
      </contour>
    </TTGlyph>
    <TTGlyph name="Eacute" xMin="58" yMin="0" xMax="633" yMax="966">
      <contour>
        <pt x="58" y="0" on="1"/>
        <pt x="181" y="730" on="1"/>
        <pt x="633" y="730" on="1"/>
        <pt x="607" y="578" on="1"/>
        <pt x="297" y="578" on="1"/>
        <pt x="275" y="451" on="1"/>
        <pt x="464" y="451" on="1"/>
        <pt x="439" y="299" on="1"/>
        <pt x="250" y="299" on="1"/>
        <pt x="224" y="152" on="1"/>
        <pt x="534" y="152" on="1"/>
        <pt x="509" y="0" on="1"/>
      </contour>
      <contour>
        <pt x="348" y="799" on="1"/>
        <pt x="380" y="837" on="0"/>
        <pt x="441" y="912" on="0"/>
        <pt x="466" y="943" on="1"/>
        <pt x="478" y="958" on="0"/>
        <pt x="496" y="966" on="0"/>
        <pt x="504" y="966" on="1"/>
        <pt x="527" y="966" on="0"/>
        <pt x="553" y="928" on="0"/>
        <pt x="553" y="905" on="1"/>
        <pt x="553" y="876" on="0"/>
        <pt x="535" y="858" on="1"/>
        <pt x="531" y="853" on="0"/>
        <pt x="506" y="834" on="0"/>
        <pt x="476" y="813" on="0"/>
        <pt x="455" y="799" on="0"/>
        <pt x="455" y="799" on="1"/>
      </contour>
    </TTGlyph>
    <TTGlyph name="Ebreve" xMin="58" yMin="0" xMax="643" yMax="950">
      <component glyphName="E" x="0" y="0" flags="0x204"/>
      <component glyphName="uni0306.case" x="225" y="0" flags="0x4"/>
    </TTGlyph>
    <TTGlyph name="Ecaron" xMin="58" yMin="0" xMax="633" yMax="958">
      <contour>
        <pt x="58" y="0" on="1"/>
        <pt x="181" y="730" on="1"/>
        <pt x="633" y="730" on="1"/>
        <pt x="607" y="578" on="1"/>
        <pt x="297" y="578" on="1"/>
        <pt x="275" y="451" on="1"/>
        <pt x="464" y="451" on="1"/>
        <pt x="439" y="299" on="1"/>
        <pt x="250" y="299" on="1"/>
        <pt x="224" y="152" on="1"/>
        <pt x="534" y="152" on="1"/>
        <pt x="509" y="0" on="1"/>
      </contour>
      <contour>
        <pt x="422" y="792" on="1"/>
        <pt x="394" y="792" on="0"/>
        <pt x="375" y="820" on="1"/>
        <pt x="276" y="958" on="1"/>
        <pt x="376" y="958" on="1"/>
        <pt x="425" y="892" on="1"/>
        <pt x="497" y="958" on="1"/>
        <pt x="626" y="958" on="1"/>
        <pt x="461" y="809" on="1"/>
        <pt x="444" y="792" on="0"/>
      </contour>
    </TTGlyph>
    <TTGlyph name="Ecircumflex" xMin="58" yMin="0" xMax="633" yMax="965">
      <contour>
        <pt x="58" y="0" on="1"/>
        <pt x="181" y="730" on="1"/>
        <pt x="633" y="730" on="1"/>
        <pt x="607" y="578" on="1"/>
        <pt x="297" y="578" on="1"/>
        <pt x="275" y="451" on="1"/>
        <pt x="464" y="451" on="1"/>
        <pt x="439" y="299" on="1"/>
        <pt x="250" y="299" on="1"/>
        <pt x="224" y="152" on="1"/>
        <pt x="534" y="152" on="1"/>
        <pt x="509" y="0" on="1"/>
      </contour>
      <contour>
        <pt x="247" y="799" on="1"/>
        <pt x="411" y="949" on="1"/>
        <pt x="429" y="965" on="0"/>
        <pt x="450" y="965" on="1"/>
        <pt x="479" y="965" on="0"/>
        <pt x="497" y="938" on="1"/>
        <pt x="600" y="799" on="1"/>
        <pt x="500" y="799" on="1"/>
        <pt x="448" y="866" on="1"/>
        <pt x="375" y="799" on="1"/>
      </contour>
    </TTGlyph>
    <TTGlyph name="Edieresis" xMin="58" yMin="0" xMax="633" yMax="947">
      <contour>
        <pt x="58" y="0" on="1"/>
        <pt x="181" y="730" on="1"/>
        <pt x="633" y="730" on="1"/>
        <pt x="607" y="578" on="1"/>
        <pt x="297" y="578" on="1"/>
        <pt x="275" y="451" on="1"/>
        <pt x="464" y="451" on="1"/>
        <pt x="439" y="299" on="1"/>
        <pt x="250" y="299" on="1"/>
        <pt x="224" y="152" on="1"/>
        <pt x="534" y="152" on="1"/>
        <pt x="509" y="0" on="1"/>
      </contour>
      <contour>
        <pt x="353" y="793" on="1"/>
        <pt x="327" y="793" on="0"/>
        <pt x="291" y="838" on="0"/>
        <pt x="291" y="870" on="1"/>
        <pt x="291" y="902" on="0"/>
        <pt x="327" y="947" on="0"/>
        <pt x="353" y="947" on="1"/>
        <pt x="378" y="947" on="0"/>
        <pt x="413" y="902" on="0"/>
        <pt x="413" y="870" on="1"/>
        <pt x="413" y="838" on="0"/>
        <pt x="378" y="793" on="0"/>
      </contour>
      <contour>
        <pt x="522" y="793" on="1"/>
        <pt x="496" y="793" on="0"/>
        <pt x="460" y="838" on="0"/>
        <pt x="460" y="870" on="1"/>
        <pt x="460" y="902" on="0"/>
        <pt x="496" y="947" on="0"/>
        <pt x="522" y="947" on="1"/>
        <pt x="547" y="947" on="0"/>
        <pt x="581" y="902" on="0"/>
        <pt x="581" y="870" on="1"/>
        <pt x="581" y="838" on="0"/>
        <pt x="547" y="793" on="0"/>
      </contour>
    </TTGlyph>
    <TTGlyph name="Edotaccent" xMin="58" yMin="0" xMax="633" yMax="947">
      <contour>
        <pt x="58" y="0" on="1"/>
        <pt x="181" y="730" on="1"/>
        <pt x="633" y="730" on="1"/>
        <pt x="607" y="578" on="1"/>
        <pt x="297" y="578" on="1"/>
        <pt x="275" y="451" on="1"/>
        <pt x="464" y="451" on="1"/>
        <pt x="439" y="299" on="1"/>
        <pt x="250" y="299" on="1"/>
        <pt x="224" y="152" on="1"/>
        <pt x="534" y="152" on="1"/>
        <pt x="509" y="0" on="1"/>
      </contour>
      <contour>
        <pt x="437" y="793" on="1"/>
        <pt x="411" y="793" on="0"/>
        <pt x="375" y="838" on="0"/>
        <pt x="375" y="870" on="1"/>
        <pt x="375" y="902" on="0"/>
        <pt x="411" y="947" on="0"/>
        <pt x="437" y="947" on="1"/>
        <pt x="462" y="947" on="0"/>
        <pt x="497" y="902" on="0"/>
        <pt x="497" y="870" on="1"/>
        <pt x="497" y="838" on="0"/>
        <pt x="462" y="793" on="0"/>
      </contour>
    </TTGlyph>
    <TTGlyph name="Egrave" xMin="58" yMin="0" xMax="633" yMax="966">
      <contour>
        <pt x="58" y="0" on="1"/>
        <pt x="181" y="730" on="1"/>
        <pt x="633" y="730" on="1"/>
        <pt x="607" y="578" on="1"/>
        <pt x="297" y="578" on="1"/>
        <pt x="275" y="451" on="1"/>
        <pt x="464" y="451" on="1"/>
        <pt x="439" y="299" on="1"/>
        <pt x="250" y="299" on="1"/>
        <pt x="224" y="152" on="1"/>
        <pt x="534" y="152" on="1"/>
        <pt x="509" y="0" on="1"/>
      </contour>
      <contour>
        <pt x="385" y="799" on="1"/>
        <pt x="381" y="803" on="0"/>
        <pt x="358" y="827" on="0"/>
        <pt x="335" y="856" on="0"/>
        <pt x="327" y="867" on="1"/>
        <pt x="317" y="884" on="0"/>
        <pt x="317" y="907" on="1"/>
        <pt x="317" y="932" on="0"/>
        <pt x="345" y="966" on="0"/>
        <pt x="364" y="966" on="1"/>
        <pt x="389" y="966" on="0"/>
        <pt x="403" y="943" on="1"/>
        <pt x="411" y="930" on="0"/>
        <pt x="436" y="886" on="0"/>
        <pt x="460" y="839" on="0"/>
        <pt x="476" y="803" on="0"/>
        <pt x="480" y="799" on="1"/>
      </contour>
    </TTGlyph>
    <TTGlyph name="Emacron" xMin="58" yMin="0" xMax="633" yMax="923">
      <contour>
        <pt x="58" y="0" on="1"/>
        <pt x="181" y="730" on="1"/>
        <pt x="633" y="730" on="1"/>
        <pt x="607" y="578" on="1"/>
        <pt x="297" y="578" on="1"/>
        <pt x="275" y="451" on="1"/>
        <pt x="464" y="451" on="1"/>
        <pt x="439" y="299" on="1"/>
        <pt x="250" y="299" on="1"/>
        <pt x="224" y="152" on="1"/>
        <pt x="534" y="152" on="1"/>
        <pt x="509" y="0" on="1"/>
      </contour>
      <contour>
        <pt x="297" y="816" on="1"/>
        <pt x="315" y="923" on="1"/>
        <pt x="575" y="923" on="1"/>
        <pt x="557" y="816" on="1"/>
      </contour>
    </TTGlyph>
    <TTGlyph name="Eng" xMin="48" yMin="-182" xMax="649" yMax="739">
      <contour>
        <pt x="201" y="-182" on="1"/>
        <pt x="221" y="-62" on="1"/>
        <pt x="286" y="-62" on="1"/>
        <pt x="332" y="-62" on="0"/>
        <pt x="393" y="-13" on="0"/>
        <pt x="400" y="30" on="1"/>
        <pt x="253" y="597" on="1"/>
        <pt x="251" y="568" on="0"/>
        <pt x="244" y="485" on="0"/>
        <pt x="233" y="398" on="0"/>
        <pt x="228" y="361" on="1"/>
        <pt x="168" y="0" on="1"/>
        <pt x="48" y="0" on="1"/>
        <pt x="170" y="739" on="1"/>
        <pt x="327" y="739" on="1"/>
        <pt x="460" y="228" on="1"/>
        <pt x="463" y="259" on="0"/>
        <pt x="471" y="350" on="0"/>
        <pt x="480" y="442" on="0"/>
        <pt x="486" y="478" on="1"/>
        <pt x="529" y="739" on="1"/>
        <pt x="649" y="739" on="1"/>
        <pt x="530" y="21" on="1"/>
        <pt x="520" y="-39" on="0"/>
        <pt x="445" y="-131" on="0"/>
        <pt x="330" y="-182" on="0"/>
        <pt x="259" y="-182" on="1"/>
      </contour>
    </TTGlyph>
    <TTGlyph name="Eogonek" xMin="58" yMin="-205" xMax="633" yMax="739">
      <contour>
        <pt x="58" y="0" on="1"/>
        <pt x="181" y="739" on="1"/>
        <pt x="633" y="739" on="1"/>
        <pt x="607" y="585" on="1"/>
        <pt x="297" y="585" on="1"/>
        <pt x="275" y="456" on="1"/>
        <pt x="464" y="456" on="1"/>
        <pt x="439" y="303" on="1"/>
        <pt x="250" y="303" on="1"/>
        <pt x="224" y="154" on="1"/>
        <pt x="534" y="154" on="1"/>
        <pt x="509" y="0" on="1"/>
      </contour>
      <contour>
        <pt x="380" y="-205" on="1"/>
        <pt x="339" y="-205" on="0"/>
        <pt x="292" y="-180" on="0"/>
        <pt x="272" y="-142" on="0"/>
        <pt x="272" y="-122" on="1"/>
        <pt x="272" y="-82" on="0"/>
        <pt x="326" y="-24" on="0"/>
        <pt x="358" y="-13" on="1"/>
        <pt x="482" y="-13" on="1"/>
        <pt x="464" y="-15" on="0"/>
        <pt x="422" y="-37" on="0"/>
        <pt x="389" y="-70" on="0"/>
        <pt x="386" y="-88" on="1"/>
        <pt x="383" y="-108" on="0"/>
        <pt x="406" y="-121" on="0"/>
        <pt x="420" y="-121" on="1"/>
        <pt x="433" y="-121" on="0"/>
        <pt x="460" y="-112" on="0"/>
        <pt x="465" y="-111" on="1"/>
        <pt x="450" y="-194" on="1"/>
        <pt x="441" y="-199" on="0"/>
        <pt x="397" y="-205" on="0"/>
      </contour>
    </TTGlyph>
    <TTGlyph name="Epsilon" xMin="84" yMin="0" xMax="659" yMax="739">
      <component glyphName="E" x="26" y="0" flags="0x4"/>
    </TTGlyph>
    <TTGlyph name="Epsilontonos" xMin="-47" yMin="0" xMax="633" yMax="739">
      <component glyphName="E" x="0" y="0" flags="0x204"/>
      <component glyphName="tonos.case" x="-129" y="0" flags="0x4"/>
    </TTGlyph>
    <TTGlyph name="Eta" xMin="84" yMin="0" xMax="659" yMax="739">
      <component glyphName="H" x="26" y="0" flags="0x4"/>
    </TTGlyph>
    <TTGlyph name="Etatonos" xMin="-47" yMin="0" xMax="633" yMax="739">
      <component glyphName="tonos.case" x="-129" y="0" flags="0x4"/>
      <component glyphName="H" x="0" y="0" flags="0x204"/>
    </TTGlyph>
    <TTGlyph name="Eth" xMin="58" yMin="0" xMax="633" yMax="739">
      <contour>
        <pt x="72" y="0" on="1"/>
        <pt x="119" y="305" on="1"/>
        <pt x="58" y="305" on="1"/>
        <pt x="82" y="455" on="1"/>
        <pt x="145" y="455" on="1"/>
        <pt x="189" y="739" on="1"/>
        <pt x="348" y="739" on="1"/>
        <pt x="493" y="739" on="0"/>
        <pt x="633" y="575" on="0"/>
        <pt x="633" y="434" on="1"/>
        <pt x="633" y="290" on="0"/>
        <pt x="536" y="97" on="0"/>
        <pt x="366" y="0" on="0"/>
        <pt x="256" y="0" on="1"/>
      </contour>
      <contour>
        <pt x="229" y="147" on="1"/>
        <pt x="280" y="147" on="1"/>
        <pt x="385" y="147" on="0"/>
        <pt x="494" y="308" on="0"/>
        <pt x="494" y="444" on="1"/>
        <pt x="494" y="520" on="0"/>
        <pt x="432" y="594" on="0"/>
        <pt x="347" y="594" on="1"/>
        <pt x="299" y="594" on="1"/>
        <pt x="277" y="455" on="1"/>
        <pt x="373" y="455" on="1"/>
        <pt x="347" y="305" on="1"/>
        <pt x="253" y="305" on="1"/>
      </contour>
    </TTGlyph>
    <TTGlyph name="Euro" xMin="36" yMin="-10" xMax="597" yMax="730">
      <contour>
        <pt x="351" y="-10" on="1"/>
        <pt x="276" y="-10" on="0"/>
        <pt x="166" y="45" on="0"/>
        <pt x="105" y="144" on="0"/>
        <pt x="105" y="211" on="1"/>
        <pt x="105" y="233" on="1"/>
        <pt x="36" y="233" on="1"/>
        <pt x="36" y="316" on="1"/>
        <pt x="105" y="316" on="1"/>
        <pt x="105" y="404" on="1"/>
        <pt x="36" y="404" on="1"/>
        <pt x="36" y="487" on="1"/>
        <pt x="105" y="487" on="1"/>
        <pt x="105" y="509" on="1"/>
        <pt x="105" y="576" on="0"/>
        <pt x="166" y="675" on="0"/>
        <pt x="277" y="730" on="0"/>
        <pt x="352" y="730" on="1"/>
        <pt x="424" y="730" on="0"/>
        <pt x="531" y="678" on="0"/>
        <pt x="594" y="582" on="0"/>
        <pt x="597" y="517" on="1"/>
        <pt x="467" y="517" on="1"/>
        <pt x="465" y="565" on="0"/>
        <pt x="403" y="618" on="0"/>
        <pt x="352" y="618" on="1"/>
        <pt x="297" y="618" on="0"/>
        <pt x="234" y="560" on="0"/>
        <pt x="234" y="509" on="1"/>
        <pt x="234" y="487" on="1"/>
        <pt x="394" y="487" on="1"/>
        <pt x="394" y="404" on="1"/>
        <pt x="234" y="404" on="1"/>
        <pt x="234" y="316" on="1"/>
        <pt x="394" y="316" on="1"/>
        <pt x="394" y="233" on="1"/>
        <pt x="234" y="233" on="1"/>
        <pt x="234" y="211" on="1"/>
        <pt x="234" y="160" on="0"/>
        <pt x="296" y="102" on="0"/>
        <pt x="351" y="102" on="1"/>
        <pt x="403" y="102" on="0"/>
        <pt x="465" y="155" on="0"/>
        <pt x="467" y="203" on="1"/>
        <pt x="597" y="203" on="1"/>
        <pt x="592" y="105" on="0"/>
        <pt x="459" y="-10" on="0"/>
      </contour>
    </TTGlyph>
    <TTGlyph name="F" xMin="58" yMin="0" xMax="633" yMax="739">
      <contour>
        <pt x="58" y="0" on="1"/>
        <pt x="189" y="739" on="1"/>
        <pt x="633" y="739" on="1"/>
        <pt x="606" y="585" on="1"/>
        <pt x="311" y="585" on="1"/>
        <pt x="287" y="456" on="1"/>
        <pt x="584" y="456" on="1"/>
        <pt x="556" y="303" on="1"/>
        <pt x="261" y="303" on="1"/>
        <pt x="207" y="0" on="1"/>
      </contour>
    </TTGlyph>
    <TTGlyph name="G" xMin="58" yMin="-13" xMax="633" yMax="752">
      <contour>
        <pt x="274" y="-13" on="1"/>
        <pt x="216" y="-13" on="0"/>
        <pt x="118" y="56" on="0"/>
        <pt x="58" y="190" on="0"/>
        <pt x="58" y="288" on="1"/>
        <pt x="58" y="387" on="0"/>
        <pt x="105" y="557" on="0"/>
        <pt x="194" y="682" on="0"/>
        <pt x="318" y="752" on="0"/>
        <pt x="395" y="752" on="1"/>
        <pt x="471" y="752" on="0"/>
        <pt x="587" y="677" on="0"/>
        <pt x="615" y="592" on="1"/>
        <pt x="487" y="528" on="1"/>
        <pt x="479" y="558" on="0"/>
        <pt x="421" y="608" on="0"/>
        <pt x="376" y="608" on="1"/>
        <pt x="334" y="608" on="0"/>
        <pt x="269" y="557" on="0"/>
        <pt x="224" y="470" on="0"/>
        <pt x="202" y="362" on="0"/>
        <pt x="202" y="308" on="1"/>
        <pt x="202" y="219" on="0"/>
        <pt x="271" y="130" on="0"/>
        <pt x="327" y="130" on="1"/>
        <pt x="357" y="130" on="0"/>
        <pt x="416" y="157" on="0"/>
        <pt x="460" y="213" on="0"/>
        <pt x="466" y="255" on="1"/>
        <pt x="470" y="276" on="1"/>
        <pt x="340" y="276" on="1"/>
        <pt x="364" y="418" on="1"/>
        <pt x="633" y="418" on="1"/>
        <pt x="563" y="0" on="1"/>
        <pt x="471" y="0" on="1"/>
        <pt x="466" y="82" on="1"/>
        <pt x="394" y="-13" on="0"/>
      </contour>
    </TTGlyph>
    <TTGlyph name="Gamma" xMin="45" yMin="0" xMax="626" yMax="739">
      <component glyphName="uni0413" x="-11" y="0" flags="0x4"/>
    </TTGlyph>
    <TTGlyph name="Gbreve" xMin="58" yMin="-13" xMax="633" yMax="929">
      <contour>
        <pt x="274" y="-13" on="1"/>
        <pt x="216" y="-13" on="0"/>
        <pt x="118" y="55" on="0"/>
        <pt x="58" y="188" on="0"/>
        <pt x="58" y="285" on="1"/>
        <pt x="58" y="382" on="0"/>
        <pt x="105" y="550" on="0"/>
        <pt x="194" y="674" on="0"/>
        <pt x="318" y="743" on="0"/>
        <pt x="395" y="743" on="1"/>
        <pt x="471" y="743" on="0"/>
        <pt x="587" y="669" on="0"/>
        <pt x="615" y="585" on="1"/>
        <pt x="487" y="522" on="1"/>
        <pt x="479" y="551" on="0"/>
        <pt x="421" y="601" on="0"/>
        <pt x="376" y="601" on="1"/>
        <pt x="334" y="601" on="0"/>
        <pt x="269" y="550" on="0"/>
        <pt x="224" y="464" on="0"/>
        <pt x="202" y="358" on="0"/>
        <pt x="202" y="304" on="1"/>
        <pt x="202" y="216" on="0"/>
        <pt x="271" y="128" on="0"/>
        <pt x="327" y="128" on="1"/>
        <pt x="357" y="128" on="0"/>
        <pt x="416" y="155" on="0"/>
        <pt x="460" y="210" on="0"/>
        <pt x="466" y="252" on="1"/>
        <pt x="470" y="273" on="1"/>
        <pt x="340" y="273" on="1"/>
        <pt x="364" y="413" on="1"/>
        <pt x="633" y="413" on="1"/>
        <pt x="563" y="0" on="1"/>
        <pt x="471" y="0" on="1"/>
        <pt x="466" y="81" on="1"/>
        <pt x="394" y="-13" on="0"/>
      </contour>
      <contour>
        <pt x="437" y="808" on="1"/>
        <pt x="386" y="808" on="0"/>
        <pt x="319" y="875" on="0"/>
        <pt x="315" y="929" on="1"/>
        <pt x="395" y="929" on="1"/>
        <pt x="399" y="911" on="0"/>
        <pt x="424" y="888" on="0"/>
        <pt x="441" y="888" on="1"/>
        <pt x="459" y="888" on="0"/>
        <pt x="486" y="911" on="0"/>
        <pt x="491" y="929" on="1"/>
        <pt x="572" y="929" on="1"/>
        <pt x="560" y="879" on="0"/>
        <pt x="490" y="808" on="0"/>
      </contour>
    </TTGlyph>
    <TTGlyph name="Gcaron" xMin="58" yMin="-13" xMax="644" yMax="950">
      <component glyphName="G" x="0" y="0" flags="0x204"/>
      <component glyphName="uni030C.case" x="194" y="0" flags="0x4"/>
    </TTGlyph>
    <TTGlyph name="Gcircumflex" xMin="58" yMin="-13" xMax="633" yMax="950">
      <component glyphName="G" x="0" y="0" flags="0x204"/>
      <component glyphName="uni0302.case" x="172" y="0" flags="0x4"/>
    </TTGlyph>
    <TTGlyph name="Gdotaccent" xMin="58" yMin="-13" xMax="633" yMax="947">
      <contour>
        <pt x="274" y="-13" on="1"/>
        <pt x="216" y="-13" on="0"/>
        <pt x="118" y="55" on="0"/>
        <pt x="58" y="188" on="0"/>
        <pt x="58" y="285" on="1"/>
        <pt x="58" y="382" on="0"/>
        <pt x="105" y="550" on="0"/>
        <pt x="194" y="674" on="0"/>
        <pt x="318" y="743" on="0"/>
        <pt x="395" y="743" on="1"/>
        <pt x="471" y="743" on="0"/>
        <pt x="587" y="669" on="0"/>
        <pt x="615" y="585" on="1"/>
        <pt x="487" y="522" on="1"/>
        <pt x="479" y="551" on="0"/>
        <pt x="421" y="601" on="0"/>
        <pt x="376" y="601" on="1"/>
        <pt x="334" y="601" on="0"/>
        <pt x="269" y="550" on="0"/>
        <pt x="224" y="464" on="0"/>
        <pt x="202" y="358" on="0"/>
        <pt x="202" y="304" on="1"/>
        <pt x="202" y="216" on="0"/>
        <pt x="271" y="128" on="0"/>
        <pt x="327" y="128" on="1"/>
        <pt x="357" y="128" on="0"/>
        <pt x="416" y="155" on="0"/>
        <pt x="460" y="210" on="0"/>
        <pt x="466" y="252" on="1"/>
        <pt x="470" y="273" on="1"/>
        <pt x="340" y="273" on="1"/>
        <pt x="364" y="413" on="1"/>
        <pt x="633" y="413" on="1"/>
        <pt x="563" y="0" on="1"/>
        <pt x="471" y="0" on="1"/>
        <pt x="466" y="81" on="1"/>
        <pt x="394" y="-13" on="0"/>
      </contour>
      <contour>
        <pt x="434" y="793" on="1"/>
        <pt x="409" y="793" on="0"/>
        <pt x="374" y="838" on="0"/>
        <pt x="374" y="870" on="1"/>
        <pt x="374" y="902" on="0"/>
        <pt x="409" y="947" on="0"/>
        <pt x="434" y="947" on="1"/>
        <pt x="460" y="947" on="0"/>
        <pt x="495" y="902" on="0"/>
        <pt x="495" y="870" on="1"/>
        <pt x="495" y="838" on="0"/>
        <pt x="460" y="793" on="0"/>
      </contour>
    </TTGlyph>
    <TTGlyph name="H" xMin="58" yMin="0" xMax="633" yMax="739">
      <contour>
        <pt x="58" y="0" on="1"/>
        <pt x="168" y="739" on="1"/>
        <pt x="293" y="739" on="1"/>
        <pt x="251" y="456" on="1"/>
        <pt x="466" y="456" on="1"/>
        <pt x="508" y="739" on="1"/>
        <pt x="633" y="739" on="1"/>
        <pt x="523" y="0" on="1"/>
        <pt x="398" y="0" on="1"/>
        <pt x="443" y="303" on="1"/>
        <pt x="229" y="303" on="1"/>
        <pt x="182" y="0" on="1"/>
      </contour>
    </TTGlyph>
    <TTGlyph name="Hbar" xMin="58" yMin="0" xMax="633" yMax="739">
      <contour>
        <pt x="58" y="0" on="1"/>
        <pt x="135" y="549" on="1"/>
        <pt x="92" y="549" on="1"/>
        <pt x="108" y="657" on="1"/>
        <pt x="151" y="657" on="1"/>
        <pt x="163" y="739" on="1"/>
        <pt x="281" y="739" on="1"/>
        <pt x="270" y="657" on="1"/>
        <pt x="474" y="657" on="1"/>
        <pt x="486" y="739" on="1"/>
        <pt x="605" y="739" on="1"/>
        <pt x="593" y="657" on="1"/>
        <pt x="633" y="657" on="1"/>
        <pt x="617" y="549" on="1"/>
        <pt x="577" y="549" on="1"/>
        <pt x="500" y="0" on="1"/>
        <pt x="381" y="0" on="1"/>
        <pt x="424" y="303" on="1"/>
        <pt x="220" y="303" on="1"/>
        <pt x="176" y="0" on="1"/>
      </contour>
      <contour>
        <pt x="241" y="456" on="1"/>
        <pt x="446" y="456" on="1"/>
        <pt x="459" y="549" on="1"/>
        <pt x="254" y="549" on="1"/>
      </contour>
    </TTGlyph>
    <TTGlyph name="Hcircumflex" xMin="58" yMin="0" xMax="633" yMax="950">
      <component glyphName="H" x="0" y="0" flags="0x204"/>
      <component glyphName="uni0302.case" x="172" y="0" flags="0x4"/>
    </TTGlyph>
    <TTGlyph name="I" xMin="36" yMin="0" xMax="303" yMax="739">
      <contour>
        <pt x="36" y="0" on="1"/>
        <pt x="153" y="739" on="1"/>
        <pt x="303" y="739" on="1"/>
        <pt x="186" y="0" on="1"/>
      </contour>
    </TTGlyph>
    <TTGlyph name="Iacute" xMin="36" yMin="0" xMax="413" yMax="966">
      <contour>
        <pt x="36" y="0" on="1"/>
        <pt x="153" y="739" on="1"/>
        <pt x="303" y="739" on="1"/>
        <pt x="186" y="0" on="1"/>
      </contour>
      <contour>
        <pt x="167" y="799" on="1"/>
        <pt x="205" y="837" on="0"/>
        <pt x="277" y="912" on="0"/>
        <pt x="308" y="943" on="1"/>
        <pt x="323" y="958" on="0"/>
        <pt x="345" y="966" on="0"/>
        <pt x="354" y="966" on="1"/>
        <pt x="381" y="966" on="0"/>
        <pt x="413" y="928" on="0"/>
        <pt x="413" y="905" on="1"/>
        <pt x="413" y="876" on="0"/>
        <pt x="392" y="858" on="1"/>
        <pt x="387" y="853" on="0"/>
        <pt x="356" y="834" on="0"/>
        <pt x="321" y="813" on="0"/>
        <pt x="296" y="799" on="0"/>
        <pt x="296" y="799" on="1"/>
      </contour>
    </TTGlyph>
    <TTGlyph name="Ibreve" xMin="36" yMin="0" xMax="451" yMax="950">
      <component glyphName="I" x="0" y="0" flags="0x204"/>
      <component glyphName="uni0306.case" x="33" y="0" flags="0x4"/>
    </TTGlyph>
    <TTGlyph name="Icircumflex" xMin="36" yMin="0" xMax="470" yMax="965">
      <contour>
        <pt x="36" y="0" on="1"/>
        <pt x="153" y="739" on="1"/>
        <pt x="303" y="739" on="1"/>
        <pt x="186" y="0" on="1"/>
      </contour>
      <contour>
        <pt x="44" y="799" on="1"/>
        <pt x="243" y="949" on="1"/>
        <pt x="264" y="965" on="0"/>
        <pt x="289" y="965" on="1"/>
        <pt x="323" y="965" on="0"/>
        <pt x="347" y="938" on="1"/>
        <pt x="470" y="799" on="1"/>
        <pt x="349" y="799" on="1"/>
        <pt x="287" y="866" on="1"/>
        <pt x="199" y="799" on="1"/>
      </contour>
    </TTGlyph>
    <TTGlyph name="Idieresis" xMin="36" yMin="0" xMax="447" yMax="947">
      <contour>
        <pt x="36" y="0" on="1"/>
        <pt x="153" y="739" on="1"/>
        <pt x="303" y="739" on="1"/>
        <pt x="186" y="0" on="1"/>
      </contour>
      <contour>
        <pt x="171" y="793" on="1"/>
        <pt x="140" y="793" on="0"/>
        <pt x="96" y="838" on="0"/>
        <pt x="96" y="870" on="1"/>
        <pt x="96" y="902" on="0"/>
        <pt x="140" y="947" on="0"/>
        <pt x="171" y="947" on="1"/>
        <pt x="201" y="947" on="0"/>
        <pt x="244" y="902" on="0"/>
        <pt x="244" y="870" on="1"/>
        <pt x="244" y="838" on="0"/>
        <pt x="201" y="793" on="0"/>
      </contour>
      <contour>
        <pt x="374" y="793" on="1"/>
        <pt x="344" y="793" on="0"/>
        <pt x="300" y="838" on="0"/>
        <pt x="300" y="870" on="1"/>
        <pt x="300" y="902" on="0"/>
        <pt x="344" y="947" on="0"/>
        <pt x="374" y="947" on="1"/>
        <pt x="405" y="947" on="0"/>
        <pt x="447" y="902" on="0"/>
        <pt x="447" y="870" on="1"/>
        <pt x="447" y="838" on="0"/>
        <pt x="405" y="793" on="0"/>
      </contour>
    </TTGlyph>
    <TTGlyph name="Idotaccent" xMin="36" yMin="0" xMax="351" yMax="952">
      <component glyphName="I" x="0" y="0" flags="0x204"/>
      <component glyphName="uni0307.case" x="80" y="0" flags="0x4"/>
    </TTGlyph>
    <TTGlyph name="Igrave" xMin="36" yMin="0" xMax="325" yMax="966">
      <contour>
        <pt x="36" y="0" on="1"/>
        <pt x="153" y="739" on="1"/>
        <pt x="303" y="739" on="1"/>
        <pt x="186" y="0" on="1"/>
      </contour>
      <contour>
        <pt x="211" y="799" on="1"/>
        <pt x="206" y="803" on="0"/>
        <pt x="179" y="827" on="0"/>
        <pt x="150" y="856" on="0"/>
        <pt x="142" y="867" on="1"/>
        <pt x="128" y="884" on="0"/>
        <pt x="128" y="907" on="1"/>
        <pt x="128" y="932" on="0"/>
        <pt x="163" y="966" on="0"/>
        <pt x="186" y="966" on="1"/>
        <pt x="215" y="966" on="0"/>
        <pt x="232" y="943" on="1"/>
        <pt x="243" y="930" on="0"/>
        <pt x="271" y="886" on="0"/>
        <pt x="300" y="839" on="0"/>
        <pt x="321" y="803" on="0"/>
        <pt x="325" y="799" on="1"/>
      </contour>
    </TTGlyph>
    <TTGlyph name="Imacron" xMin="36" yMin="0" xMax="440" yMax="923">
      <contour>
        <pt x="36" y="0" on="1"/>
        <pt x="153" y="739" on="1"/>
        <pt x="303" y="739" on="1"/>
        <pt x="186" y="0" on="1"/>
      </contour>
      <contour>
        <pt x="104" y="816" on="1"/>
        <pt x="126" y="923" on="1"/>
        <pt x="440" y="923" on="1"/>
        <pt x="418" y="816" on="1"/>
      </contour>
    </TTGlyph>
    <TTGlyph name="Iogonek" xMin="-70" yMin="-192" xMax="303" yMax="739">
      <contour>
        <pt x="36" y="0" on="1"/>
        <pt x="153" y="739" on="1"/>
        <pt x="303" y="739" on="1"/>
        <pt x="186" y="0" on="1"/>
      </contour>
      <contour>
        <pt x="60" y="-192" on="1"/>
        <pt x="11" y="-192" on="0"/>
        <pt x="-47" y="-167" on="0"/>
        <pt x="-70" y="-129" on="0"/>
        <pt x="-70" y="-109" on="1"/>
        <pt x="-70" y="-69" on="0"/>
        <pt x="-5" y="-11" on="0"/>
        <pt x="34" y="0" on="1"/>
        <pt x="182" y="0" on="1"/>
        <pt x="161" y="-2" on="0"/>
        <pt x="110" y="-24" on="0"/>
        <pt x="72" y="-57" on="0"/>
        <pt x="67" y="-75" on="1"/>
        <pt x="63" y="-95" on="0"/>
        <pt x="92" y="-108" on="0"/>
        <pt x="108" y="-108" on="1"/>
        <pt x="124" y="-108" on="0"/>
        <pt x="156" y="-99" on="0"/>
        <pt x="162" y="-98" on="1"/>
        <pt x="145" y="-181" on="1"/>
        <pt x="132" y="-186" on="0"/>
        <pt x="80" y="-192" on="0"/>
      </contour>
    </TTGlyph>
    <TTGlyph name="Iota" xMin="36" yMin="0" xMax="303" yMax="739">
      <component glyphName="I" x="0" y="0" flags="0x204"/>
    </TTGlyph>
    <TTGlyph name="Iotadieresis" xMin="36" yMin="0" xMax="461" yMax="953">
      <component glyphName="I" x="0" y="0" flags="0x204"/>
      <component glyphName="uni0308.case" x="9" y="0" flags="0x4"/>
    </TTGlyph>
    <TTGlyph name="Iotatonos" xMin="-220" yMin="0" xMax="303" yMax="739">
      <component glyphName="tonos.case" x="-302" y="0" flags="0x4"/>
      <component glyphName="I" x="0" y="0" flags="0x204"/>
    </TTGlyph>
    <TTGlyph name="Itilde" xMin="36" yMin="0" xMax="448" yMax="954">
      <component glyphName="I" x="0" y="0" flags="0x204"/>
      <component glyphName="tildecomb.case" x="24" y="0" flags="0x4"/>
    </TTGlyph>
    <TTGlyph name="J" xMin="58" yMin="-13" xMax="633" yMax="739">
      <contour>
        <pt x="265" y="-13" on="1"/>
        <pt x="202" y="-13" on="0"/>
        <pt x="111" y="43" on="0"/>
        <pt x="61" y="136" on="0"/>
        <pt x="58" y="194" on="1"/>
        <pt x="205" y="252" on="1"/>
        <pt x="203" y="245" on="0"/>
        <pt x="203" y="231" on="0"/>
        <pt x="203" y="225" on="1"/>
        <pt x="203" y="179" on="0"/>
        <pt x="237" y="124" on="0"/>
        <pt x="282" y="124" on="1"/>
        <pt x="333" y="124" on="0"/>
        <pt x="385" y="195" on="0"/>
        <pt x="400" y="283" on="1"/>
        <pt x="482" y="739" on="1"/>
        <pt x="633" y="739" on="1"/>
        <pt x="551" y="283" on="1"/>
        <pt x="530" y="169" on="0"/>
        <pt x="454" y="39" on="0"/>
        <pt x="341" y="-13" on="0"/>
      </contour>
    </TTGlyph>
    <TTGlyph name="Jcircumflex" xMin="58" yMin="-13" xMax="724" yMax="950">
      <component glyphName="J" x="0" y="0" flags="0x204"/>
      <component glyphName="uni0302.case" x="274" y="0" flags="0x4"/>
    </TTGlyph>
    <TTGlyph name="K" xMin="58" yMin="0" xMax="633" yMax="739">
      <contour>
        <pt x="58" y="0" on="1"/>
        <pt x="168" y="739" on="1"/>
        <pt x="293" y="739" on="1"/>
        <pt x="254" y="472" on="1"/>
        <pt x="466" y="739" on="1"/>
        <pt x="633" y="739" on="1"/>
        <pt x="375" y="417" on="1"/>
        <pt x="526" y="0" on="1"/>
        <pt x="396" y="0" on="1"/>
        <pt x="286" y="307" on="1"/>
        <pt x="216" y="218" on="1"/>
        <pt x="184" y="0" on="1"/>
      </contour>
    </TTGlyph>
    <TTGlyph name="Kappa" xMin="84" yMin="0" xMax="659" yMax="739">
      <component glyphName="K" x="26" y="0" flags="0x4"/>
    </TTGlyph>
    <TTGlyph name="L" xMin="61" yMin="0" xMax="598" yMax="739">
      <contour>
        <pt x="61" y="0" on="1"/>
        <pt x="211" y="739" on="1"/>
        <pt x="379" y="739" on="1"/>
        <pt x="262" y="154" on="1"/>
        <pt x="598" y="154" on="1"/>
        <pt x="567" y="0" on="1"/>
      </contour>
    </TTGlyph>
    <TTGlyph name="Lacute" xMin="61" yMin="0" xMax="598" yMax="950">
      <component glyphName="L" x="0" y="0" flags="0x204"/>
      <component glyphName="acutecomb.case" x="156" y="0" flags="0x4"/>
    </TTGlyph>
    <TTGlyph name="Lambda" xMin="62" yMin="0" xMax="618" yMax="739">
      <contour>
        <pt x="62" y="0" on="1"/>
        <pt x="377" y="739" on="1"/>
        <pt x="546" y="739" on="1"/>
        <pt x="618" y="0" on="1"/>
        <pt x="487" y="0" on="1"/>
        <pt x="452" y="481" on="1"/>
        <pt x="449" y="517" on="0"/>
        <pt x="446" y="584" on="0"/>
        <pt x="444" y="626" on="0"/>
        <pt x="444" y="626" on="1"/>
        <pt x="444" y="626" on="0"/>
        <pt x="429" y="584" on="0"/>
        <pt x="406" y="517" on="0"/>
        <pt x="391" y="482" on="1"/>
        <pt x="199" y="0" on="1"/>
      </contour>
    </TTGlyph>
    <TTGlyph name="Lcaron" xMin="62" yMin="0" xMax="628" yMax="769">
      <contour>
        <pt x="62" y="0" on="1"/>
        <pt x="211" y="739" on="1"/>
        <pt x="379" y="739" on="1"/>
        <pt x="262" y="154" on="1"/>
        <pt x="598" y="154" on="1"/>
        <pt x="567" y="0" on="1"/>
      </contour>
      <contour>
        <pt x="459" y="557" on="1"/>
        <pt x="473" y="598" on="0"/>
        <pt x="501" y="684" on="0"/>
        <pt x="514" y="727" on="1"/>
        <pt x="522" y="749" on="0"/>
        <pt x="554" y="769" on="0"/>
        <pt x="571" y="769" on="1"/>
        <pt x="596" y="769" on="0"/>
        <pt x="628" y="732" on="0"/>
        <pt x="628" y="708" on="1"/>
        <pt x="628" y="694" on="0"/>
        <pt x="620" y="676" on="0"/>
        <pt x="612" y="664" on="1"/>
        <pt x="546" y="557" on="1"/>
      </contour>
    </TTGlyph>
    <TTGlyph name="Ldot" xMin="61" yMin="0" xMax="598" yMax="739">
      <component glyphName="L" x="0" y="0" flags="0x204"/>
      <component glyphName="period" x="330" y="275" flags="0x4"/>
    </TTGlyph>
    <TTGlyph name="Lslash" xMin="58" yMin="0" xMax="633" yMax="739">
      <contour>
        <pt x="103" y="0" on="1"/>
        <pt x="152" y="249" on="1"/>
        <pt x="58" y="195" on="1"/>
        <pt x="85" y="332" on="1"/>
        <pt x="180" y="385" on="1"/>
        <pt x="251" y="739" on="1"/>
        <pt x="417" y="739" on="1"/>
        <pt x="367" y="492" on="1"/>
        <pt x="550" y="595" on="1"/>
        <pt x="523" y="457" on="1"/>
        <pt x="341" y="356" on="1"/>
        <pt x="300" y="155" on="1"/>
        <pt x="633" y="155" on="1"/>
        <pt x="602" y="0" on="1"/>
      </contour>
    </TTGlyph>
    <TTGlyph name="M" xMin="79" yMin="0" xMax="641" yMax="739">
      <contour>
        <pt x="79" y="0" on="1"/>
        <pt x="167" y="739" on="1"/>
        <pt x="315" y="739" on="1"/>
        <pt x="339" y="214" on="1"/>
        <pt x="488" y="739" on="1"/>
        <pt x="641" y="739" on="1"/>
        <pt x="552" y="0" on="1"/>
        <pt x="455" y="0" on="1"/>
        <pt x="523" y="564" on="1"/>
        <pt x="358" y="0" on="1"/>
        <pt x="276" y="0" on="1"/>
        <pt x="247" y="589" on="1"/>
        <pt x="177" y="0" on="1"/>
      </contour>
    </TTGlyph>
    <TTGlyph name="Mu" xMin="101" yMin="0" xMax="663" yMax="739">
      <component glyphName="M" x="22" y="0" flags="0x4"/>
    </TTGlyph>
    <TTGlyph name="N" xMin="58" yMin="0" xMax="633" yMax="739">
      <contour>
        <pt x="58" y="0" on="1"/>
        <pt x="165" y="739" on="1"/>
        <pt x="316" y="739" on="1"/>
        <pt x="437" y="202" on="1"/>
        <pt x="515" y="739" on="1"/>
        <pt x="633" y="739" on="1"/>
        <pt x="526" y="0" on="1"/>
        <pt x="375" y="0" on="1"/>
        <pt x="254" y="536" on="1"/>
        <pt x="175" y="0" on="1"/>
      </contour>
    </TTGlyph>
    <TTGlyph name="Nacute" xMin="58" yMin="0" xMax="633" yMax="966">
      <contour>
        <pt x="58" y="0" on="1"/>
        <pt x="165" y="730" on="1"/>
        <pt x="316" y="730" on="1"/>
        <pt x="437" y="200" on="1"/>
        <pt x="515" y="730" on="1"/>
        <pt x="633" y="730" on="1"/>
        <pt x="526" y="0" on="1"/>
        <pt x="375" y="0" on="1"/>
        <pt x="254" y="530" on="1"/>
        <pt x="175" y="0" on="1"/>
      </contour>
      <contour>
        <pt x="365" y="799" on="1"/>
        <pt x="392" y="837" on="0"/>
        <pt x="444" y="912" on="0"/>
        <pt x="466" y="943" on="1"/>
        <pt x="476" y="958" on="0"/>
        <pt x="493" y="966" on="0"/>
        <pt x="500" y="966" on="1"/>
        <pt x="520" y="966" on="0"/>
        <pt x="542" y="928" on="0"/>
        <pt x="542" y="905" on="1"/>
        <pt x="542" y="876" on="0"/>
        <pt x="527" y="858" on="1"/>
        <pt x="523" y="853" on="0"/>
        <pt x="502" y="834" on="0"/>
        <pt x="476" y="813" on="0"/>
        <pt x="458" y="799" on="0"/>
        <pt x="458" y="799" on="1"/>
      </contour>
    </TTGlyph>
    <TTGlyph name="Ncaron" xMin="58" yMin="0" xMax="633" yMax="958">
      <contour>
        <pt x="58" y="0" on="1"/>
        <pt x="165" y="730" on="1"/>
        <pt x="316" y="730" on="1"/>
        <pt x="437" y="200" on="1"/>
        <pt x="515" y="730" on="1"/>
        <pt x="633" y="730" on="1"/>
        <pt x="526" y="0" on="1"/>
        <pt x="375" y="0" on="1"/>
        <pt x="254" y="530" on="1"/>
        <pt x="175" y="0" on="1"/>
      </contour>
      <contour>
        <pt x="428" y="792" on="1"/>
        <pt x="404" y="792" on="0"/>
        <pt x="387" y="820" on="1"/>
        <pt x="301" y="958" on="1"/>
        <pt x="388" y="958" on="1"/>
        <pt x="430" y="892" on="1"/>
        <pt x="494" y="958" on="1"/>
        <pt x="606" y="958" on="1"/>
        <pt x="462" y="809" on="1"/>
        <pt x="447" y="792" on="0"/>
      </contour>
    </TTGlyph>
    <TTGlyph name="Ntilde" xMin="58" yMin="0" xMax="633" yMax="926">
      <contour>
        <pt x="58" y="0" on="1"/>
        <pt x="165" y="730" on="1"/>
        <pt x="316" y="730" on="1"/>
        <pt x="437" y="200" on="1"/>
        <pt x="515" y="730" on="1"/>
        <pt x="633" y="730" on="1"/>
        <pt x="526" y="0" on="1"/>
        <pt x="375" y="0" on="1"/>
        <pt x="254" y="530" on="1"/>
        <pt x="175" y="0" on="1"/>
      </contour>
      <contour>
        <pt x="496" y="792" on="1"/>
        <pt x="475" y="792" on="0"/>
        <pt x="447" y="805" on="0"/>
        <pt x="426" y="822" on="0"/>
        <pt x="405" y="835" on="0"/>
        <pt x="390" y="835" on="1"/>
        <pt x="366" y="835" on="0"/>
        <pt x="352" y="799" on="1"/>
        <pt x="284" y="799" on="1"/>
        <pt x="291" y="831" on="0"/>
        <pt x="320" y="888" on="0"/>
        <pt x="362" y="925" on="0"/>
        <pt x="387" y="925" on="1"/>
        <pt x="418" y="925" on="0"/>
        <pt x="452" y="903" on="0"/>
        <pt x="476" y="880" on="0"/>
        <pt x="492" y="880" on="1"/>
        <pt x="509" y="880" on="0"/>
        <pt x="526" y="897" on="0"/>
        <pt x="539" y="919" on="0"/>
        <pt x="550" y="923" on="1"/>
        <pt x="553" y="925" on="0"/>
        <pt x="557" y="926" on="0"/>
        <pt x="559" y="926" on="1"/>
        <pt x="572" y="926" on="0"/>
        <pt x="589" y="900" on="0"/>
        <pt x="589" y="883" on="1"/>
        <pt x="589" y="867" on="0"/>
        <pt x="581" y="852" on="1"/>
        <pt x="574" y="836" on="0"/>
        <pt x="534" y="792" on="0"/>
      </contour>
    </TTGlyph>
    <TTGlyph name="Nu" xMin="84" yMin="0" xMax="659" yMax="739">
      <component glyphName="N" x="26" y="0" flags="0x4"/>
    </TTGlyph>
    <TTGlyph name="O" xMin="58" yMin="-13" xMax="633" yMax="752">
      <contour>
        <pt x="306" y="-13" on="1"/>
        <pt x="228" y="-13" on="0"/>
        <pt x="116" y="65" on="0"/>
        <pt x="58" y="205" on="0"/>
        <pt x="58" y="298" on="1"/>
        <pt x="58" y="393" on="0"/>
        <pt x="105" y="558" on="0"/>
        <pt x="192" y="682" on="0"/>
        <pt x="311" y="752" on="0"/>
        <pt x="381" y="752" on="1"/>
        <pt x="457" y="752" on="0"/>
        <pt x="569" y="679" on="0"/>
        <pt x="633" y="537" on="0"/>
        <pt x="633" y="434" on="1"/>
        <pt x="633" y="338" on="0"/>
        <pt x="585" y="176" on="0"/>
        <pt x="496" y="55" on="0"/>
        <pt x="378" y="-13" on="0"/>
      </contour>
      <contour>
        <pt x="318" y="131" on="1"/>
        <pt x="371" y="131" on="0"/>
        <pt x="450" y="212" on="0"/>
        <pt x="494" y="344" on="0"/>
        <pt x="494" y="419" on="1"/>
        <pt x="494" y="485" on="0"/>
        <pt x="460" y="568" on="0"/>
        <pt x="404" y="608" on="0"/>
        <pt x="371" y="608" on="1"/>
        <pt x="332" y="608" on="0"/>
        <pt x="266" y="559" on="0"/>
        <pt x="220" y="475" on="0"/>
        <pt x="196" y="370" on="0"/>
        <pt x="196" y="317" on="1"/>
        <pt x="196" y="265" on="0"/>
        <pt x="223" y="181" on="0"/>
        <pt x="278" y="131" on="0"/>
      </contour>
    </TTGlyph>
    <TTGlyph name="OE" xMin="58" yMin="-13" xMax="633" yMax="752">
      <contour>
        <pt x="210" y="-13" on="1"/>
        <pt x="163" y="-13" on="0"/>
        <pt x="94" y="67" on="0"/>
        <pt x="58" y="206" on="0"/>
        <pt x="58" y="298" on="1"/>
        <pt x="58" y="325" on="0"/>
        <pt x="59" y="355" on="1"/>
        <pt x="66" y="477" on="0"/>
        <pt x="122" y="655" on="0"/>
        <pt x="208" y="752" on="0"/>
        <pt x="260" y="752" on="1"/>
        <pt x="295" y="752" on="0"/>
        <pt x="355" y="704" on="0"/>
        <pt x="371" y="659" on="1"/>
        <pt x="380" y="739" on="1"/>
        <pt x="633" y="739" on="1"/>
        <pt x="617" y="585" on="1"/>
        <pt x="434" y="585" on="1"/>
        <pt x="422" y="456" on="1"/>
        <pt x="533" y="456" on="1"/>
        <pt x="518" y="305" on="1"/>
        <pt x="407" y="305" on="1"/>
        <pt x="391" y="155" on="1"/>
        <pt x="575" y="155" on="1"/>
        <pt x="559" y="0" on="1"/>
        <pt x="306" y="0" on="1"/>
        <pt x="313" y="65" on="1"/>
        <pt x="294" y="24" on="0"/>
        <pt x="238" y="-13" on="0"/>
      </contour>
      <contour>
        <pt x="220" y="132" on="1"/>
        <pt x="250" y="132" on="0"/>
        <pt x="296" y="195" on="0"/>
        <pt x="326" y="310" on="0"/>
        <pt x="331" y="382" on="1"/>
        <pt x="331" y="392" on="0"/>
        <pt x="332" y="412" on="0"/>
        <pt x="332" y="420" on="1"/>
        <pt x="332" y="486" on="0"/>
        <pt x="308" y="569" on="0"/>
        <pt x="274" y="608" on="0"/>
        <pt x="254" y="608" on="1"/>
        <pt x="230" y="608" on="0"/>
        <pt x="182" y="552" on="0"/>
        <pt x="151" y="439" on="0"/>
        <pt x="146" y="355" on="1"/>
        <pt x="145" y="345" on="0"/>
        <pt x="145" y="325" on="0"/>
        <pt x="145" y="317" on="1"/>
        <pt x="145" y="266" on="0"/>
        <pt x="161" y="182" on="0"/>
        <pt x="195" y="132" on="0"/>
      </contour>
    </TTGlyph>
    <TTGlyph name="Oacute" xMin="58" yMin="-13" xMax="633" yMax="966">
      <contour>
        <pt x="306" y="-13" on="1"/>
        <pt x="228" y="-13" on="0"/>
        <pt x="116" y="64" on="0"/>
        <pt x="58" y="203" on="0"/>
        <pt x="58" y="294" on="1"/>
        <pt x="58" y="388" on="0"/>
        <pt x="105" y="551" on="0"/>
        <pt x="192" y="674" on="0"/>
        <pt x="311" y="743" on="0"/>
        <pt x="381" y="743" on="1"/>
        <pt x="457" y="743" on="0"/>
        <pt x="569" y="671" on="0"/>
        <pt x="633" y="531" on="0"/>
        <pt x="633" y="429" on="1"/>
        <pt x="633" y="334" on="0"/>
        <pt x="585" y="174" on="0"/>
        <pt x="496" y="54" on="0"/>
        <pt x="378" y="-13" on="0"/>
      </contour>
      <contour>
        <pt x="318" y="129" on="1"/>
        <pt x="371" y="129" on="0"/>
        <pt x="450" y="209" on="0"/>
        <pt x="494" y="340" on="0"/>
        <pt x="494" y="414" on="1"/>
        <pt x="494" y="479" on="0"/>
        <pt x="460" y="561" on="0"/>
        <pt x="404" y="601" on="0"/>
        <pt x="371" y="601" on="1"/>
        <pt x="332" y="601" on="0"/>
        <pt x="266" y="552" on="0"/>
        <pt x="220" y="469" on="0"/>
        <pt x="196" y="366" on="0"/>
        <pt x="196" y="313" on="1"/>
        <pt x="196" y="262" on="0"/>
        <pt x="223" y="179" on="0"/>
        <pt x="278" y="129" on="0"/>
      </contour>
      <contour>
        <pt x="348" y="799" on="1"/>
        <pt x="378" y="837" on="0"/>
        <pt x="434" y="912" on="0"/>
        <pt x="459" y="943" on="1"/>
        <pt x="470" y="958" on="0"/>
        <pt x="487" y="966" on="0"/>
        <pt x="494" y="966" on="1"/>
        <pt x="516" y="966" on="0"/>
        <pt x="541" y="928" on="0"/>
        <pt x="541" y="905" on="1"/>
        <pt x="541" y="876" on="0"/>
        <pt x="525" y="858" on="1"/>
        <pt x="521" y="853" on="0"/>
        <pt x="496" y="834" on="0"/>
        <pt x="469" y="813" on="0"/>
        <pt x="449" y="799" on="0"/>
        <pt x="449" y="799" on="1"/>
      </contour>
    </TTGlyph>
    <TTGlyph name="Obreve" xMin="58" yMin="-13" xMax="633" yMax="950">
      <component glyphName="O" x="0" y="0" flags="0x204"/>
      <component glyphName="uni0306.case" x="205" y="0" flags="0x4"/>
    </TTGlyph>
    <TTGlyph name="Ocircumflex" xMin="58" yMin="-13" xMax="633" yMax="965">
      <contour>
        <pt x="306" y="-13" on="1"/>
        <pt x="228" y="-13" on="0"/>
        <pt x="116" y="64" on="0"/>
        <pt x="58" y="203" on="0"/>
        <pt x="58" y="294" on="1"/>
        <pt x="58" y="388" on="0"/>
        <pt x="105" y="551" on="0"/>
        <pt x="192" y="674" on="0"/>
        <pt x="311" y="743" on="0"/>
        <pt x="381" y="743" on="1"/>
        <pt x="457" y="743" on="0"/>
        <pt x="569" y="671" on="0"/>
        <pt x="633" y="531" on="0"/>
        <pt x="633" y="429" on="1"/>
        <pt x="633" y="334" on="0"/>
        <pt x="585" y="174" on="0"/>
        <pt x="496" y="54" on="0"/>
        <pt x="378" y="-13" on="0"/>
      </contour>
      <contour>
        <pt x="318" y="129" on="1"/>
        <pt x="371" y="129" on="0"/>
        <pt x="450" y="209" on="0"/>
        <pt x="494" y="340" on="0"/>
        <pt x="494" y="414" on="1"/>
        <pt x="494" y="479" on="0"/>
        <pt x="460" y="561" on="0"/>
        <pt x="404" y="601" on="0"/>
        <pt x="371" y="601" on="1"/>
        <pt x="332" y="601" on="0"/>
        <pt x="266" y="552" on="0"/>
        <pt x="220" y="469" on="0"/>
        <pt x="196" y="366" on="0"/>
        <pt x="196" y="313" on="1"/>
        <pt x="196" y="262" on="0"/>
        <pt x="223" y="179" on="0"/>
        <pt x="278" y="129" on="0"/>
      </contour>
      <contour>
        <pt x="250" y="799" on="1"/>
        <pt x="405" y="949" on="1"/>
        <pt x="422" y="965" on="0"/>
        <pt x="442" y="965" on="1"/>
        <pt x="468" y="965" on="0"/>
        <pt x="487" y="938" on="1"/>
        <pt x="584" y="799" on="1"/>
        <pt x="488" y="799" on="1"/>
        <pt x="440" y="866" on="1"/>
        <pt x="370" y="799" on="1"/>
      </contour>
    </TTGlyph>
    <TTGlyph name="Odieresis" xMin="58" yMin="-13" xMax="633" yMax="947">
      <contour>
        <pt x="306" y="-13" on="1"/>
        <pt x="228" y="-13" on="0"/>
        <pt x="116" y="64" on="0"/>
        <pt x="58" y="203" on="0"/>
        <pt x="58" y="294" on="1"/>
        <pt x="58" y="388" on="0"/>
        <pt x="105" y="551" on="0"/>
        <pt x="192" y="674" on="0"/>
        <pt x="311" y="743" on="0"/>
        <pt x="381" y="743" on="1"/>
        <pt x="457" y="743" on="0"/>
        <pt x="569" y="671" on="0"/>
        <pt x="633" y="531" on="0"/>
        <pt x="633" y="429" on="1"/>
        <pt x="633" y="334" on="0"/>
        <pt x="585" y="174" on="0"/>
        <pt x="496" y="54" on="0"/>
        <pt x="378" y="-13" on="0"/>
      </contour>
      <contour>
        <pt x="318" y="129" on="1"/>
        <pt x="371" y="129" on="0"/>
        <pt x="450" y="209" on="0"/>
        <pt x="494" y="340" on="0"/>
        <pt x="494" y="414" on="1"/>
        <pt x="494" y="479" on="0"/>
        <pt x="460" y="561" on="0"/>
        <pt x="404" y="601" on="0"/>
        <pt x="371" y="601" on="1"/>
        <pt x="332" y="601" on="0"/>
        <pt x="266" y="552" on="0"/>
        <pt x="220" y="469" on="0"/>
        <pt x="196" y="366" on="0"/>
        <pt x="196" y="313" on="1"/>
        <pt x="196" y="262" on="0"/>
        <pt x="223" y="179" on="0"/>
        <pt x="278" y="129" on="0"/>
      </contour>
      <contour>
        <pt x="349" y="793" on="1"/>
        <pt x="325" y="793" on="0"/>
        <pt x="291" y="838" on="0"/>
        <pt x="291" y="870" on="1"/>
        <pt x="291" y="902" on="0"/>
        <pt x="325" y="947" on="0"/>
        <pt x="349" y="947" on="1"/>
        <pt x="374" y="947" on="0"/>
        <pt x="407" y="902" on="0"/>
        <pt x="407" y="870" on="1"/>
        <pt x="407" y="838" on="0"/>
        <pt x="374" y="793" on="0"/>
      </contour>
      <contour>
        <pt x="509" y="793" on="1"/>
        <pt x="485" y="793" on="0"/>
        <pt x="450" y="838" on="0"/>
        <pt x="450" y="870" on="1"/>
        <pt x="450" y="902" on="0"/>
        <pt x="485" y="947" on="0"/>
        <pt x="509" y="947" on="1"/>
        <pt x="532" y="947" on="0"/>
        <pt x="566" y="902" on="0"/>
        <pt x="566" y="870" on="1"/>
        <pt x="566" y="838" on="0"/>
        <pt x="532" y="793" on="0"/>
      </contour>
    </TTGlyph>
    <TTGlyph name="Ograve" xMin="58" yMin="-13" xMax="633" yMax="966">
      <contour>
        <pt x="306" y="-13" on="1"/>
        <pt x="228" y="-13" on="0"/>
        <pt x="116" y="64" on="0"/>
        <pt x="58" y="203" on="0"/>
        <pt x="58" y="294" on="1"/>
        <pt x="58" y="388" on="0"/>
        <pt x="105" y="551" on="0"/>
        <pt x="192" y="674" on="0"/>
        <pt x="311" y="743" on="0"/>
        <pt x="381" y="743" on="1"/>
        <pt x="457" y="743" on="0"/>
        <pt x="569" y="671" on="0"/>
        <pt x="633" y="531" on="0"/>
        <pt x="633" y="429" on="1"/>
        <pt x="633" y="334" on="0"/>
        <pt x="585" y="174" on="0"/>
        <pt x="496" y="54" on="0"/>
        <pt x="378" y="-13" on="0"/>
      </contour>
      <contour>
        <pt x="318" y="129" on="1"/>
        <pt x="371" y="129" on="0"/>
        <pt x="450" y="209" on="0"/>
        <pt x="494" y="340" on="0"/>
        <pt x="494" y="414" on="1"/>
        <pt x="494" y="479" on="0"/>
        <pt x="460" y="561" on="0"/>
        <pt x="404" y="601" on="0"/>
        <pt x="371" y="601" on="1"/>
        <pt x="332" y="601" on="0"/>
        <pt x="266" y="552" on="0"/>
        <pt x="220" y="469" on="0"/>
        <pt x="196" y="366" on="0"/>
        <pt x="196" y="313" on="1"/>
        <pt x="196" y="262" on="0"/>
        <pt x="223" y="179" on="0"/>
        <pt x="278" y="129" on="0"/>
      </contour>
      <contour>
        <pt x="381" y="799" on="1"/>
        <pt x="377" y="803" on="0"/>
        <pt x="355" y="827" on="0"/>
        <pt x="333" y="856" on="0"/>
        <pt x="326" y="867" on="1"/>
        <pt x="316" y="884" on="0"/>
        <pt x="316" y="907" on="1"/>
        <pt x="316" y="932" on="0"/>
        <pt x="343" y="966" on="0"/>
        <pt x="361" y="966" on="1"/>
        <pt x="384" y="966" on="0"/>
        <pt x="397" y="943" on="1"/>
        <pt x="405" y="930" on="0"/>
        <pt x="427" y="886" on="0"/>
        <pt x="450" y="839" on="0"/>
        <pt x="467" y="803" on="0"/>
        <pt x="469" y="799" on="1"/>
      </contour>
    </TTGlyph>
    <TTGlyph name="Ohorn" xMin="58" yMin="-13" xMax="666" yMax="810">
      <component glyphName="O" x="0" y="0" flags="0x204"/>
      <component glyphName="uni031B" x="371" y="150" flags="0x4"/>
    </TTGlyph>
    <TTGlyph name="Ohungarumlaut" xMin="58" yMin="-13" xMax="633" yMax="981">
      <contour>
        <pt x="303" y="-13" on="1"/>
        <pt x="226" y="-13" on="0"/>
        <pt x="116" y="64" on="0"/>
        <pt x="58" y="203" on="0"/>
        <pt x="58" y="294" on="1"/>
        <pt x="58" y="388" on="0"/>
        <pt x="105" y="551" on="0"/>
        <pt x="191" y="674" on="0"/>
        <pt x="307" y="743" on="0"/>
        <pt x="377" y="743" on="1"/>
        <pt x="450" y="743" on="0"/>
        <pt x="562" y="671" on="0"/>
        <pt x="625" y="531" on="0"/>
        <pt x="625" y="429" on="1"/>
        <pt x="625" y="334" on="0"/>
        <pt x="577" y="174" on="0"/>
        <pt x="490" y="54" on="0"/>
        <pt x="373" y="-13" on="0"/>
      </contour>
      <contour>
        <pt x="315" y="129" on="1"/>
        <pt x="367" y="129" on="0"/>
        <pt x="445" y="209" on="0"/>
        <pt x="489" y="340" on="0"/>
        <pt x="489" y="414" on="1"/>
        <pt x="489" y="479" on="0"/>
        <pt x="453" y="561" on="0"/>
        <pt x="399" y="601" on="0"/>
        <pt x="367" y="601" on="1"/>
        <pt x="327" y="601" on="0"/>
        <pt x="263" y="552" on="0"/>
        <pt x="218" y="469" on="0"/>
        <pt x="194" y="366" on="0"/>
        <pt x="194" y="313" on="1"/>
        <pt x="194" y="262" on="0"/>
        <pt x="221" y="179" on="0"/>
        <pt x="275" y="129" on="0"/>
      </contour>
      <contour>
        <pt x="276" y="813" on="1"/>
        <pt x="276" y="813" on="0"/>
        <pt x="299" y="844" on="0"/>
        <pt x="333" y="890" on="0"/>
        <pt x="367" y="935" on="0"/>
        <pt x="390" y="967" on="0"/>
        <pt x="391" y="967" on="1"/>
        <pt x="403" y="981" on="0"/>
        <pt x="420" y="981" on="1"/>
        <pt x="442" y="981" on="0"/>
        <pt x="454" y="958" on="1"/>
        <pt x="465" y="941" on="0"/>
        <pt x="465" y="918" on="1"/>
        <pt x="465" y="888" on="0"/>
        <pt x="448" y="872" on="1"/>
        <pt x="446" y="871" on="0"/>
        <pt x="424" y="852" on="0"/>
        <pt x="397" y="829" on="0"/>
        <pt x="376" y="813" on="0"/>
        <pt x="376" y="813" on="1"/>
      </contour>
      <contour>
        <pt x="444" y="813" on="1"/>
        <pt x="444" y="813" on="0"/>
        <pt x="467" y="844" on="0"/>
        <pt x="501" y="890" on="0"/>
        <pt x="535" y="935" on="0"/>
        <pt x="558" y="967" on="0"/>
        <pt x="559" y="967" on="1"/>
        <pt x="571" y="981" on="0"/>
        <pt x="588" y="981" on="1"/>
        <pt x="610" y="981" on="0"/>
        <pt x="622" y="958" on="1"/>
        <pt x="633" y="941" on="0"/>
        <pt x="633" y="918" on="1"/>
        <pt x="633" y="888" on="0"/>
        <pt x="616" y="872" on="1"/>
        <pt x="614" y="871" on="0"/>
        <pt x="592" y="852" on="0"/>
        <pt x="564" y="829" on="0"/>
        <pt x="543" y="813" on="0"/>
        <pt x="543" y="813" on="1"/>
      </contour>
    </TTGlyph>
    <TTGlyph name="Omacron" xMin="58" yMin="-13" xMax="633" yMax="924">
      <component glyphName="O" x="0" y="0" flags="0x204"/>
      <component glyphName="uni0304.case" x="200" y="0" flags="0x4"/>
    </TTGlyph>
    <TTGlyph name="Omegatonos" xMin="-4" yMin="0" xMax="655" yMax="749">
      <component glyphName="uni03A9" x="0" y="0" flags="0x204"/>
      <component glyphName="tonos.case" x="-86" y="0" flags="0x4"/>
    </TTGlyph>
    <TTGlyph name="Omicron" xMin="84" yMin="-13" xMax="659" yMax="752">
      <component glyphName="O" x="26" y="0" flags="0x4"/>
    </TTGlyph>
    <TTGlyph name="Omicrontonos" xMin="-15" yMin="-13" xMax="633" yMax="752">
      <component glyphName="tonos.case" x="-97" y="0" flags="0x4"/>
      <component glyphName="O" x="0" y="0" flags="0x204"/>
    </TTGlyph>
    <TTGlyph name="Oslash" xMin="58" yMin="-13" xMax="633" yMax="759">
      <contour>
        <pt x="313" y="-13" on="1"/>
        <pt x="262" y="-13" on="0"/>
        <pt x="180" y="25" on="0"/>
        <pt x="151" y="60" on="1"/>
        <pt x="97" y="-12" on="1"/>
        <pt x="58" y="48" on="1"/>
        <pt x="112" y="120" on="1"/>
        <pt x="77" y="195" on="0"/>
        <pt x="77" y="298" on="1"/>
        <pt x="77" y="312" on="0"/>
        <pt x="80" y="341" on="0"/>
        <pt x="81" y="355" on="1"/>
        <pt x="91" y="476" on="0"/>
        <pt x="175" y="654" on="0"/>
        <pt x="305" y="752" on="0"/>
        <pt x="384" y="752" on="1"/>
        <pt x="479" y="752" on="0"/>
        <pt x="539" y="688" on="1"/>
        <pt x="593" y="759" on="1"/>
        <pt x="633" y="700" on="1"/>
        <pt x="580" y="629" on="1"/>
        <pt x="620" y="553" on="0"/>
        <pt x="620" y="436" on="1"/>
        <pt x="620" y="410" on="0"/>
        <pt x="618" y="382" on="1"/>
        <pt x="610" y="265" on="0"/>
        <pt x="528" y="87" on="0"/>
        <pt x="396" y="-13" on="0"/>
      </contour>
      <contour>
        <pt x="214" y="255" on="1"/>
        <pt x="450" y="569" on="1"/>
        <pt x="434" y="588" on="0"/>
        <pt x="395" y="608" on="0"/>
        <pt x="375" y="608" on="1"/>
        <pt x="337" y="608" on="0"/>
        <pt x="266" y="552" on="0"/>
        <pt x="218" y="439" on="0"/>
        <pt x="210" y="355" on="1"/>
        <pt x="210" y="345" on="0"/>
        <pt x="209" y="325" on="0"/>
        <pt x="209" y="317" on="1"/>
        <pt x="209" y="282" on="0"/>
      </contour>
      <contour>
        <pt x="324" y="131" on="1"/>
        <pt x="367" y="131" on="0"/>
        <pt x="438" y="195" on="0"/>
        <pt x="483" y="309" on="0"/>
        <pt x="489" y="382" on="1"/>
        <pt x="489" y="392" on="0"/>
        <pt x="490" y="412" on="0"/>
        <pt x="490" y="420" on="1"/>
        <pt x="490" y="442" on="0"/>
        <pt x="486" y="481" on="0"/>
        <pt x="482" y="499" on="1"/>
        <pt x="241" y="180" on="1"/>
        <pt x="256" y="157" on="0"/>
        <pt x="297" y="131" on="0"/>
      </contour>
    </TTGlyph>
    <TTGlyph name="Oslashacute" xMin="58" yMin="-13" xMax="633" yMax="950">
      <component glyphName="Oslash" x="0" y="0" flags="0x204"/>
      <component glyphName="acutecomb.case" x="286" y="0" flags="0x4"/>
    </TTGlyph>
    <TTGlyph name="Otilde" xMin="58" yMin="-13" xMax="633" yMax="926">
      <contour>
        <pt x="306" y="-13" on="1"/>
        <pt x="228" y="-13" on="0"/>
        <pt x="116" y="64" on="0"/>
        <pt x="58" y="203" on="0"/>
        <pt x="58" y="294" on="1"/>
        <pt x="58" y="388" on="0"/>
        <pt x="105" y="551" on="0"/>
        <pt x="192" y="674" on="0"/>
        <pt x="311" y="743" on="0"/>
        <pt x="381" y="743" on="1"/>
        <pt x="457" y="743" on="0"/>
        <pt x="569" y="671" on="0"/>
        <pt x="633" y="531" on="0"/>
        <pt x="633" y="429" on="1"/>
        <pt x="633" y="334" on="0"/>
        <pt x="585" y="174" on="0"/>
        <pt x="496" y="54" on="0"/>
        <pt x="378" y="-13" on="0"/>
      </contour>
      <contour>
        <pt x="318" y="129" on="1"/>
        <pt x="371" y="129" on="0"/>
        <pt x="450" y="209" on="0"/>
        <pt x="494" y="340" on="0"/>
        <pt x="494" y="414" on="1"/>
        <pt x="494" y="479" on="0"/>
        <pt x="460" y="561" on="0"/>
        <pt x="404" y="601" on="0"/>
        <pt x="371" y="601" on="1"/>
        <pt x="332" y="601" on="0"/>
        <pt x="266" y="552" on="0"/>
        <pt x="220" y="469" on="0"/>
        <pt x="196" y="366" on="0"/>
        <pt x="196" y="313" on="1"/>
        <pt x="196" y="262" on="0"/>
        <pt x="223" y="179" on="0"/>
        <pt x="278" y="129" on="0"/>
      </contour>
      <contour>
        <pt x="489" y="792" on="1"/>
        <pt x="466" y="792" on="0"/>
        <pt x="436" y="805" on="0"/>
        <pt x="412" y="822" on="0"/>
        <pt x="389" y="835" on="0"/>
        <pt x="374" y="835" on="1"/>
        <pt x="347" y="835" on="0"/>
        <pt x="332" y="799" on="1"/>
        <pt x="258" y="799" on="1"/>
        <pt x="265" y="831" on="0"/>
        <pt x="298" y="888" on="0"/>
        <pt x="343" y="925" on="0"/>
        <pt x="369" y="925" on="1"/>
        <pt x="403" y="925" on="0"/>
        <pt x="441" y="903" on="0"/>
        <pt x="468" y="880" on="0"/>
        <pt x="484" y="880" on="1"/>
        <pt x="503" y="880" on="0"/>
        <pt x="521" y="897" on="0"/>
        <pt x="535" y="919" on="0"/>
        <pt x="548" y="923" on="1"/>
        <pt x="550" y="925" on="0"/>
        <pt x="555" y="926" on="0"/>
        <pt x="557" y="926" on="1"/>
        <pt x="571" y="926" on="0"/>
        <pt x="590" y="900" on="0"/>
        <pt x="590" y="883" on="1"/>
        <pt x="590" y="867" on="0"/>
        <pt x="581" y="852" on="1"/>
        <pt x="573" y="836" on="0"/>
        <pt x="529" y="792" on="0"/>
      </contour>
    </TTGlyph>
    <TTGlyph name="P" xMin="58" yMin="0" xMax="633" yMax="739">
      <contour>
        <pt x="58" y="0" on="1"/>
        <pt x="181" y="739" on="1"/>
        <pt x="407" y="739" on="1"/>
        <pt x="492" y="739" on="0"/>
        <pt x="590" y="691" on="0"/>
        <pt x="633" y="603" on="0"/>
        <pt x="633" y="541" on="1"/>
        <pt x="633" y="441" on="0"/>
        <pt x="559" y="315" on="0"/>
        <pt x="429" y="257" on="0"/>
        <pt x="342" y="257" on="1"/>
        <pt x="240" y="257" on="1"/>
        <pt x="197" y="0" on="1"/>
      </contour>
      <contour>
        <pt x="265" y="402" on="1"/>
        <pt x="356" y="402" on="1"/>
        <pt x="416" y="402" on="0"/>
        <pt x="487" y="456" on="0"/>
        <pt x="487" y="517" on="1"/>
        <pt x="487" y="592" on="0"/>
        <pt x="386" y="592" on="1"/>
        <pt x="297" y="592" on="1"/>
      </contour>
    </TTGlyph>
    <TTGlyph name="Phi" xMin="73" yMin="-25" xMax="678" yMax="779">
      <component glyphName="uni0424" x="27" y="0" flags="0x204"/>
    </TTGlyph>
    <TTGlyph name="Pi" xMin="78" yMin="0" xMax="666" yMax="739">
      <component glyphName="uni041F" x="25" y="0" flags="0x4"/>
    </TTGlyph>
    <TTGlyph name="Psi" xMin="40" yMin="0" xMax="660" yMax="739">
      <contour>
        <pt x="209" y="0" on="1"/>
        <pt x="238" y="172" on="1"/>
        <pt x="139" y="173" on="0"/>
        <pt x="40" y="292" on="0"/>
        <pt x="56" y="389" on="1"/>
        <pt x="114" y="739" on="1"/>
        <pt x="228" y="739" on="1"/>
        <pt x="170" y="389" on="1"/>
        <pt x="162" y="336" on="0"/>
        <pt x="209" y="272" on="0"/>
        <pt x="257" y="272" on="1"/>
        <pt x="335" y="739" on="1"/>
        <pt x="438" y="739" on="1"/>
        <pt x="361" y="272" on="1"/>
        <pt x="410" y="272" on="0"/>
        <pt x="479" y="336" on="0"/>
        <pt x="487" y="389" on="1"/>
        <pt x="545" y="739" on="1"/>
        <pt x="660" y="739" on="1"/>
        <pt x="602" y="389" on="1"/>
        <pt x="591" y="325" on="0"/>
        <pt x="521" y="228" on="0"/>
        <pt x="414" y="173" on="0"/>
        <pt x="349" y="172" on="1"/>
        <pt x="320" y="0" on="1"/>
      </contour>
    </TTGlyph>
    <TTGlyph name="Q" xMin="58" yMin="-61" xMax="633" yMax="781">
      <contour>
        <pt x="534" y="-61" on="1"/>
        <pt x="457" y="62" on="1"/>
        <pt x="424" y="39" on="0"/>
        <pt x="347" y="15" on="0"/>
        <pt x="306" y="15" on="1"/>
        <pt x="228" y="15" on="0"/>
        <pt x="116" y="95" on="0"/>
        <pt x="58" y="236" on="0"/>
        <pt x="58" y="326" on="1"/>
        <pt x="58" y="421" on="0"/>
        <pt x="105" y="586" on="0"/>
        <pt x="192" y="711" on="0"/>
        <pt x="310" y="781" on="0"/>
        <pt x="381" y="781" on="1"/>
        <pt x="455" y="781" on="0"/>
        <pt x="569" y="707" on="0"/>
        <pt x="633" y="567" on="0"/>
        <pt x="633" y="465" on="1"/>
        <pt x="633" y="374" on="0"/>
        <pt x="585" y="203" on="0"/>
        <pt x="538" y="141" on="1"/>
        <pt x="610" y="27" on="1"/>
      </contour>
      <contour>
        <pt x="318" y="160" on="1"/>
        <pt x="353" y="160" on="0"/>
        <pt x="383" y="179" on="1"/>
        <pt x="298" y="315" on="1"/>
        <pt x="374" y="402" on="1"/>
        <pt x="458" y="269" on="1"/>
        <pt x="475" y="308" on="0"/>
        <pt x="494" y="403" on="0"/>
        <pt x="494" y="448" on="1"/>
        <pt x="494" y="513" on="0"/>
        <pt x="460" y="597" on="0"/>
        <pt x="404" y="637" on="0"/>
        <pt x="371" y="637" on="1"/>
        <pt x="332" y="637" on="0"/>
        <pt x="266" y="587" on="0"/>
        <pt x="220" y="503" on="0"/>
        <pt x="196" y="398" on="0"/>
        <pt x="196" y="344" on="1"/>
        <pt x="196" y="294" on="0"/>
        <pt x="223" y="212" on="0"/>
        <pt x="278" y="160" on="0"/>
      </contour>
    </TTGlyph>
    <TTGlyph name="R" xMin="58" yMin="0" xMax="633" yMax="739">
      <contour>
        <pt x="58" y="0" on="1"/>
        <pt x="182" y="739" on="1"/>
        <pt x="403" y="739" on="1"/>
        <pt x="510" y="739" on="0"/>
        <pt x="633" y="649" on="0"/>
        <pt x="633" y="540" on="1"/>
        <pt x="633" y="428" on="0"/>
        <pt x="537" y="314" on="0"/>
        <pt x="448" y="298" on="1"/>
        <pt x="569" y="0" on="1"/>
        <pt x="422" y="0" on="1"/>
        <pt x="310" y="278" on="1"/>
        <pt x="247" y="278" on="1"/>
        <pt x="199" y="0" on="1"/>
      </contour>
      <contour>
        <pt x="272" y="425" on="1"/>
        <pt x="362" y="425" on="1"/>
        <pt x="397" y="425" on="0"/>
        <pt x="452" y="439" on="0"/>
        <pt x="486" y="482" on="0"/>
        <pt x="486" y="523" on="1"/>
        <pt x="486" y="565" on="0"/>
        <pt x="428" y="592" on="0"/>
        <pt x="383" y="592" on="1"/>
        <pt x="300" y="592" on="1"/>
      </contour>
    </TTGlyph>
    <TTGlyph name="Racute" xMin="58" yMin="0" xMax="633" yMax="966">
      <contour>
        <pt x="58" y="0" on="1"/>
        <pt x="182" y="730" on="1"/>
        <pt x="403" y="730" on="1"/>
        <pt x="510" y="730" on="0"/>
        <pt x="633" y="641" on="0"/>
        <pt x="633" y="534" on="1"/>
        <pt x="633" y="423" on="0"/>
        <pt x="537" y="310" on="0"/>
        <pt x="448" y="294" on="1"/>
        <pt x="569" y="0" on="1"/>
        <pt x="422" y="0" on="1"/>
        <pt x="310" y="275" on="1"/>
        <pt x="247" y="275" on="1"/>
        <pt x="199" y="0" on="1"/>
      </contour>
      <contour>
        <pt x="272" y="420" on="1"/>
        <pt x="362" y="420" on="1"/>
        <pt x="397" y="420" on="0"/>
        <pt x="452" y="434" on="0"/>
        <pt x="486" y="476" on="0"/>
        <pt x="486" y="517" on="1"/>
        <pt x="486" y="558" on="0"/>
        <pt x="428" y="585" on="0"/>
        <pt x="383" y="585" on="1"/>
        <pt x="300" y="585" on="1"/>
      </contour>
      <contour>
        <pt x="376" y="799" on="1"/>
        <pt x="407" y="837" on="0"/>
        <pt x="468" y="912" on="0"/>
        <pt x="493" y="943" on="1"/>
        <pt x="506" y="958" on="0"/>
        <pt x="525" y="966" on="0"/>
        <pt x="532" y="966" on="1"/>
        <pt x="555" y="966" on="0"/>
        <pt x="581" y="928" on="0"/>
        <pt x="581" y="905" on="1"/>
        <pt x="581" y="876" on="0"/>
        <pt x="565" y="858" on="1"/>
        <pt x="559" y="853" on="0"/>
        <pt x="534" y="834" on="0"/>
        <pt x="505" y="813" on="0"/>
        <pt x="484" y="799" on="0"/>
        <pt x="484" y="799" on="1"/>
      </contour>
    </TTGlyph>
    <TTGlyph name="Rcaron" xMin="58" yMin="0" xMax="633" yMax="958">
      <contour>
        <pt x="58" y="0" on="1"/>
        <pt x="178" y="730" on="1"/>
        <pt x="389" y="730" on="1"/>
        <pt x="493" y="730" on="0"/>
        <pt x="611" y="641" on="0"/>
        <pt x="611" y="534" on="1"/>
        <pt x="611" y="423" on="0"/>
        <pt x="518" y="310" on="0"/>
        <pt x="433" y="294" on="1"/>
        <pt x="549" y="0" on="1"/>
        <pt x="408" y="0" on="1"/>
        <pt x="300" y="275" on="1"/>
        <pt x="240" y="275" on="1"/>
        <pt x="194" y="0" on="1"/>
      </contour>
      <contour>
        <pt x="263" y="420" on="1"/>
        <pt x="350" y="420" on="1"/>
        <pt x="384" y="420" on="0"/>
        <pt x="438" y="434" on="0"/>
        <pt x="469" y="476" on="0"/>
        <pt x="469" y="517" on="1"/>
        <pt x="469" y="558" on="0"/>
        <pt x="415" y="585" on="0"/>
        <pt x="370" y="585" on="1"/>
        <pt x="291" y="585" on="1"/>
      </contour>
      <contour>
        <pt x="434" y="792" on="1"/>
        <pt x="407" y="792" on="0"/>
        <pt x="389" y="820" on="1"/>
        <pt x="293" y="958" on="1"/>
        <pt x="389" y="958" on="1"/>
        <pt x="438" y="892" on="1"/>
        <pt x="508" y="958" on="1"/>
        <pt x="633" y="958" on="1"/>
        <pt x="472" y="809" on="1"/>
        <pt x="455" y="792" on="0"/>
      </contour>
    </TTGlyph>
    <TTGlyph name="Rho" xMin="84" yMin="0" xMax="659" yMax="739">
      <component glyphName="P" x="26" y="0" flags="0x4"/>
    </TTGlyph>
    <TTGlyph name="S" xMin="58" yMin="-13" xMax="633" yMax="752">
      <contour>
        <pt x="343" y="-13" on="1"/>
        <pt x="238" y="-13" on="0"/>
        <pt x="88" y="86" on="0"/>
        <pt x="58" y="174" on="1"/>
        <pt x="208" y="231" on="1"/>
        <pt x="215" y="194" on="0"/>
        <pt x="259" y="148" on="0"/>
        <pt x="320" y="127" on="0"/>
        <pt x="350" y="127" on="1"/>
        <pt x="392" y="127" on="0"/>
        <pt x="458" y="164" on="0"/>
        <pt x="458" y="198" on="1"/>
        <pt x="458" y="226" on="0"/>
        <pt x="420" y="263" on="0"/>
        <pt x="357" y="289" on="0"/>
        <pt x="281" y="317" on="0"/>
        <pt x="208" y="349" on="0"/>
        <pt x="145" y="400" on="0"/>
        <pt x="107" y="473" on="0"/>
        <pt x="107" y="525" on="1"/>
        <pt x="107" y="585" on="0"/>
        <pt x="152" y="670" on="0"/>
        <pt x="229" y="726" on="0"/>
        <pt x="325" y="752" on="0"/>
        <pt x="377" y="752" on="1"/>
        <pt x="425" y="752" on="0"/>
        <pt x="522" y="723" on="0"/>
        <pt x="606" y="652" on="0"/>
        <pt x="633" y="592" on="1"/>
        <pt x="483" y="534" on="1"/>
        <pt x="471" y="573" on="0"/>
        <pt x="401" y="609" on="0"/>
        <pt x="365" y="609" on="1"/>
        <pt x="316" y="609" on="0"/>
        <pt x="264" y="573" on="0"/>
        <pt x="264" y="544" on="1"/>
        <pt x="264" y="514" on="0"/>
        <pt x="302" y="478" on="0"/>
        <pt x="364" y="451" on="0"/>
        <pt x="440" y="428" on="0"/>
        <pt x="515" y="398" on="0"/>
        <pt x="578" y="352" on="0"/>
        <pt x="615" y="281" on="0"/>
        <pt x="615" y="228" on="1"/>
        <pt x="615" y="148" on="0"/>
        <pt x="538" y="40" on="0"/>
        <pt x="413" y="-13" on="0"/>
      </contour>
    </TTGlyph>
    <TTGlyph name="Sacute" xMin="58" yMin="-13" xMax="633" yMax="966">
      <contour>
        <pt x="343" y="-13" on="1"/>
        <pt x="238" y="-13" on="0"/>
        <pt x="88" y="85" on="0"/>
        <pt x="58" y="172" on="1"/>
        <pt x="208" y="228" on="1"/>
        <pt x="215" y="192" on="0"/>
        <pt x="259" y="146" on="0"/>
        <pt x="320" y="125" on="0"/>
        <pt x="350" y="125" on="1"/>
        <pt x="392" y="125" on="0"/>
        <pt x="458" y="162" on="0"/>
        <pt x="458" y="196" on="1"/>
        <pt x="458" y="223" on="0"/>
        <pt x="420" y="260" on="0"/>
        <pt x="357" y="286" on="0"/>
        <pt x="281" y="313" on="0"/>
        <pt x="208" y="345" on="0"/>
        <pt x="145" y="395" on="0"/>
        <pt x="107" y="467" on="0"/>
        <pt x="107" y="519" on="1"/>
        <pt x="107" y="578" on="0"/>
        <pt x="152" y="662" on="0"/>
        <pt x="229" y="717" on="0"/>
        <pt x="325" y="743" on="0"/>
        <pt x="377" y="743" on="1"/>
        <pt x="425" y="743" on="0"/>
        <pt x="522" y="714" on="0"/>
        <pt x="606" y="644" on="0"/>
        <pt x="633" y="585" on="1"/>
        <pt x="483" y="528" on="1"/>
        <pt x="471" y="566" on="0"/>
        <pt x="401" y="602" on="0"/>
        <pt x="365" y="602" on="1"/>
        <pt x="316" y="602" on="0"/>
        <pt x="264" y="566" on="0"/>
        <pt x="264" y="538" on="1"/>
        <pt x="264" y="508" on="0"/>
        <pt x="302" y="472" on="0"/>
        <pt x="364" y="446" on="0"/>
        <pt x="440" y="423" on="0"/>
        <pt x="515" y="393" on="0"/>
        <pt x="578" y="348" on="0"/>
        <pt x="615" y="278" on="0"/>
        <pt x="615" y="225" on="1"/>
        <pt x="615" y="146" on="0"/>
        <pt x="538" y="40" on="0"/>
        <pt x="413" y="-13" on="0"/>
      </contour>
      <contour>
        <pt x="335" y="799" on="1"/>
        <pt x="369" y="837" on="0"/>
        <pt x="436" y="912" on="0"/>
        <pt x="464" y="943" on="1"/>
        <pt x="478" y="958" on="0"/>
        <pt x="497" y="966" on="0"/>
        <pt x="507" y="966" on="1"/>
        <pt x="531" y="966" on="0"/>
        <pt x="560" y="928" on="0"/>
        <pt x="560" y="905" on="1"/>
        <pt x="560" y="876" on="0"/>
        <pt x="542" y="858" on="1"/>
        <pt x="536" y="853" on="0"/>
        <pt x="508" y="834" on="0"/>
        <pt x="476" y="813" on="0"/>
        <pt x="453" y="799" on="0"/>
        <pt x="453" y="799" on="1"/>
      </contour>
    </TTGlyph>
    <TTGlyph name="Scaron" xMin="58" yMin="-13" xMax="633" yMax="958">
      <contour>
        <pt x="339" y="-13" on="1"/>
        <pt x="235" y="-13" on="0"/>
        <pt x="87" y="85" on="0"/>
        <pt x="58" y="172" on="1"/>
        <pt x="205" y="228" on="1"/>
        <pt x="213" y="192" on="0"/>
        <pt x="256" y="146" on="0"/>
        <pt x="316" y="125" on="0"/>
        <pt x="345" y="125" on="1"/>
        <pt x="387" y="125" on="0"/>
        <pt x="451" y="162" on="0"/>
        <pt x="451" y="196" on="1"/>
        <pt x="451" y="223" on="0"/>
        <pt x="415" y="260" on="0"/>
        <pt x="353" y="286" on="0"/>
        <pt x="278" y="313" on="0"/>
        <pt x="205" y="345" on="0"/>
        <pt x="144" y="395" on="0"/>
        <pt x="106" y="467" on="0"/>
        <pt x="106" y="519" on="1"/>
        <pt x="106" y="578" on="0"/>
        <pt x="151" y="662" on="0"/>
        <pt x="226" y="717" on="0"/>
        <pt x="321" y="743" on="0"/>
        <pt x="373" y="743" on="1"/>
        <pt x="420" y="743" on="0"/>
        <pt x="515" y="714" on="0"/>
        <pt x="597" y="644" on="0"/>
        <pt x="625" y="585" on="1"/>
        <pt x="476" y="528" on="1"/>
        <pt x="465" y="566" on="0"/>
        <pt x="396" y="602" on="0"/>
        <pt x="361" y="602" on="1"/>
        <pt x="313" y="602" on="0"/>
        <pt x="261" y="566" on="0"/>
        <pt x="261" y="538" on="1"/>
        <pt x="261" y="508" on="0"/>
        <pt x="298" y="472" on="0"/>
        <pt x="360" y="446" on="0"/>
        <pt x="434" y="423" on="0"/>
        <pt x="508" y="393" on="0"/>
        <pt x="570" y="348" on="0"/>
        <pt x="608" y="278" on="0"/>
        <pt x="608" y="225" on="1"/>
        <pt x="608" y="146" on="0"/>
        <pt x="531" y="40" on="0"/>
        <pt x="408" y="-13" on="0"/>
      </contour>
      <contour>
        <pt x="410" y="792" on="1"/>
        <pt x="380" y="792" on="0"/>
        <pt x="359" y="820" on="1"/>
        <pt x="251" y="958" on="1"/>
        <pt x="360" y="958" on="1"/>
        <pt x="413" y="892" on="1"/>
        <pt x="493" y="958" on="1"/>
        <pt x="633" y="958" on="1"/>
        <pt x="452" y="809" on="1"/>
        <pt x="434" y="792" on="0"/>
      </contour>
    </TTGlyph>
    <TTGlyph name="Scedilla" xMin="58" yMin="-216" xMax="633" yMax="752">
      <contour>
        <pt x="343" y="-13" on="1"/>
        <pt x="238" y="-13" on="0"/>
        <pt x="88" y="86" on="0"/>
        <pt x="58" y="174" on="1"/>
        <pt x="208" y="231" on="1"/>
        <pt x="215" y="194" on="0"/>
        <pt x="259" y="148" on="0"/>
        <pt x="320" y="127" on="0"/>
        <pt x="350" y="127" on="1"/>
        <pt x="392" y="127" on="0"/>
        <pt x="458" y="164" on="0"/>
        <pt x="458" y="198" on="1"/>
        <pt x="458" y="226" on="0"/>
        <pt x="420" y="263" on="0"/>
        <pt x="357" y="289" on="0"/>
        <pt x="281" y="317" on="0"/>
        <pt x="208" y="349" on="0"/>
        <pt x="145" y="400" on="0"/>
        <pt x="107" y="473" on="0"/>
        <pt x="107" y="525" on="1"/>
        <pt x="107" y="585" on="0"/>
        <pt x="152" y="670" on="0"/>
        <pt x="229" y="726" on="0"/>
        <pt x="325" y="752" on="0"/>
        <pt x="377" y="752" on="1"/>
        <pt x="425" y="752" on="0"/>
        <pt x="522" y="723" on="0"/>
        <pt x="606" y="652" on="0"/>
        <pt x="633" y="592" on="1"/>
        <pt x="483" y="534" on="1"/>
        <pt x="471" y="573" on="0"/>
        <pt x="401" y="609" on="0"/>
        <pt x="365" y="609" on="1"/>
        <pt x="316" y="609" on="0"/>
        <pt x="264" y="573" on="0"/>
        <pt x="264" y="544" on="1"/>
        <pt x="264" y="514" on="0"/>
        <pt x="302" y="478" on="0"/>
        <pt x="364" y="451" on="0"/>
        <pt x="440" y="428" on="0"/>
        <pt x="515" y="398" on="0"/>
        <pt x="578" y="352" on="0"/>
        <pt x="615" y="281" on="0"/>
        <pt x="615" y="228" on="1"/>
        <pt x="615" y="148" on="0"/>
        <pt x="538" y="40" on="0"/>
        <pt x="413" y="-13" on="0"/>
      </contour>
      <contour>
        <pt x="279" y="-216" on="1"/>
        <pt x="249" y="-216" on="0"/>
        <pt x="198" y="-203" on="0"/>
        <pt x="186" y="-197" on="1"/>
        <pt x="211" y="-142" on="1"/>
        <pt x="239" y="-156" on="0"/>
        <pt x="269" y="-156" on="1"/>
        <pt x="290" y="-156" on="0"/>
        <pt x="319" y="-139" on="0"/>
        <pt x="319" y="-120" on="1"/>
        <pt x="319" y="-108" on="0"/>
        <pt x="298" y="-93" on="0"/>
        <pt x="281" y="-93" on="1"/>
        <pt x="269" y="-93" on="0"/>
        <pt x="259" y="-98" on="0"/>
        <pt x="254" y="-98" on="1"/>
        <pt x="247" y="-98" on="0"/>
        <pt x="235" y="-88" on="0"/>
        <pt x="235" y="-79" on="1"/>
        <pt x="235" y="-71" on="0"/>
        <pt x="241" y="-63" on="1"/>
        <pt x="307" y="28" on="1"/>
        <pt x="342" y="1" on="1"/>
        <pt x="303" y="-52" on="1"/>
        <pt x="318" y="-49" on="0"/>
        <pt x="331" y="-49" on="1"/>
        <pt x="364" y="-49" on="0"/>
        <pt x="407" y="-85" on="0"/>
        <pt x="407" y="-114" on="1"/>
        <pt x="407" y="-154" on="0"/>
        <pt x="367" y="-198" on="0"/>
        <pt x="307" y="-216" on="0"/>
      </contour>
    </TTGlyph>
    <TTGlyph name="Scircumflex" xMin="58" yMin="-13" xMax="633" yMax="950">
      <component glyphName="S" x="0" y="0" flags="0x204"/>
      <component glyphName="uni0302.case" x="172" y="0" flags="0x4"/>
    </TTGlyph>
    <TTGlyph name="Sigma" xMin="38" yMin="0" xMax="665" yMax="739">
      <contour>
        <pt x="38" y="0" on="1"/>
        <pt x="57" y="110" on="1"/>
        <pt x="318" y="386" on="1"/>
        <pt x="141" y="628" on="1"/>
        <pt x="160" y="739" on="1"/>
        <pt x="665" y="739" on="1"/>
        <pt x="646" y="625" on="1"/>
        <pt x="297" y="625" on="1"/>
        <pt x="473" y="380" on="1"/>
        <pt x="219" y="113" on="1"/>
        <pt x="562" y="113" on="1"/>
        <pt x="543" y="0" on="1"/>
      </contour>
    </TTGlyph>
    <TTGlyph name="T" xMin="58" yMin="0" xMax="633" yMax="739">
      <contour>
        <pt x="152" y="0" on="1"/>
        <pt x="256" y="585" on="1"/>
        <pt x="58" y="585" on="1"/>
        <pt x="86" y="739" on="1"/>
        <pt x="633" y="739" on="1"/>
        <pt x="606" y="585" on="1"/>
        <pt x="406" y="585" on="1"/>
        <pt x="302" y="0" on="1"/>
      </contour>
    </TTGlyph>
    <TTGlyph name="Tau" xMin="84" yMin="0" xMax="659" yMax="739">
      <component glyphName="T" x="26" y="0" flags="0x4"/>
    </TTGlyph>
    <TTGlyph name="Tbar" xMin="62" yMin="0" xMax="615" yMax="739">
      <contour>
        <pt x="161" y="0" on="1"/>
        <pt x="208" y="286" on="1"/>
        <pt x="68" y="286" on="1"/>
        <pt x="85" y="387" on="1"/>
        <pt x="225" y="387" on="1"/>
        <pt x="264" y="621" on="1"/>
        <pt x="62" y="621" on="1"/>
        <pt x="82" y="739" on="1"/>
        <pt x="615" y="739" on="1"/>
        <pt x="595" y="621" on="1"/>
        <pt x="395" y="621" on="1"/>
        <pt x="356" y="387" on="1"/>
        <pt x="497" y="387" on="1"/>
        <pt x="480" y="286" on="1"/>
        <pt x="339" y="286" on="1"/>
        <pt x="293" y="0" on="1"/>
      </contour>
    </TTGlyph>
    <TTGlyph name="Tcaron" xMin="58" yMin="0" xMax="633" yMax="958">
      <contour>
        <pt x="152" y="0" on="1"/>
        <pt x="256" y="578" on="1"/>
        <pt x="58" y="578" on="1"/>
        <pt x="86" y="730" on="1"/>
        <pt x="633" y="730" on="1"/>
        <pt x="606" y="578" on="1"/>
        <pt x="406" y="578" on="1"/>
        <pt x="302" y="0" on="1"/>
      </contour>
      <contour>
        <pt x="386" y="792" on="1"/>
        <pt x="357" y="792" on="0"/>
        <pt x="336" y="820" on="1"/>
        <pt x="230" y="958" on="1"/>
        <pt x="337" y="958" on="1"/>
        <pt x="389" y="892" on="1"/>
        <pt x="468" y="958" on="1"/>
        <pt x="605" y="958" on="1"/>
        <pt x="427" y="809" on="1"/>
        <pt x="409" y="792" on="0"/>
      </contour>
    </TTGlyph>
    <TTGlyph name="Theta" xMin="62" yMin="-10" xMax="628" yMax="749">
      <contour>
        <pt x="283" y="-10" on="1"/>
        <pt x="171" y="-10" on="0"/>
        <pt x="62" y="108" on="0"/>
        <pt x="79" y="208" on="1"/>
        <pt x="132" y="530" on="1"/>
        <pt x="143" y="597" on="0"/>
        <pt x="218" y="695" on="0"/>
        <pt x="333" y="749" on="0"/>
        <pt x="408" y="749" on="1"/>
        <pt x="518" y="749" on="0"/>
        <pt x="628" y="630" on="0"/>
        <pt x="611" y="531" on="1"/>
        <pt x="559" y="208" on="1"/>
        <pt x="547" y="142" on="0"/>
        <pt x="473" y="44" on="0"/>
        <pt x="356" y="-10" on="0"/>
      </contour>
      <contour>
        <pt x="301" y="101" on="1"/>
        <pt x="354" y="101" on="0"/>
        <pt x="418" y="157" on="0"/>
        <pt x="427" y="208" on="1"/>
        <pt x="480" y="530" on="1"/>
        <pt x="489" y="582" on="0"/>
        <pt x="443" y="638" on="0"/>
        <pt x="389" y="638" on="1"/>
        <pt x="335" y="638" on="0"/>
        <pt x="272" y="582" on="0"/>
        <pt x="263" y="530" on="1"/>
        <pt x="210" y="208" on="1"/>
        <pt x="202" y="157" on="0"/>
        <pt x="248" y="101" on="0"/>
      </contour>
      <contour>
        <pt x="260" y="317" on="1"/>
        <pt x="279" y="434" on="1"/>
        <pt x="432" y="434" on="1"/>
        <pt x="412" y="317" on="1"/>
      </contour>
    </TTGlyph>
    <TTGlyph name="Thorn" xMin="58" yMin="0" xMax="633" yMax="739">
      <contour>
        <pt x="58" y="0" on="1"/>
        <pt x="187" y="739" on="1"/>
        <pt x="332" y="739" on="1"/>
        <pt x="313" y="622" on="1"/>
        <pt x="392" y="622" on="1"/>
        <pt x="464" y="622" on="0"/>
        <pt x="572" y="588" on="0"/>
        <pt x="633" y="505" on="0"/>
        <pt x="633" y="430" on="1"/>
        <pt x="633" y="407" on="0"/>
        <pt x="630" y="381" on="1"/>
        <pt x="621" y="300" on="0"/>
        <pt x="557" y="204" on="0"/>
        <pt x="465" y="157" on="0"/>
        <pt x="360" y="142" on="0"/>
        <pt x="310" y="142" on="1"/>
        <pt x="229" y="142" on="1"/>
        <pt x="205" y="0" on="1"/>
      </contour>
      <contour>
        <pt x="256" y="298" on="1"/>
        <pt x="345" y="298" on="1"/>
        <pt x="396" y="298" on="0"/>
        <pt x="450" y="322" on="0"/>
        <pt x="474" y="360" on="0"/>
        <pt x="478" y="384" on="1"/>
        <pt x="481" y="400" on="0"/>
        <pt x="481" y="412" on="1"/>
        <pt x="481" y="441" on="0"/>
        <pt x="438" y="472" on="0"/>
        <pt x="379" y="472" on="1"/>
        <pt x="286" y="472" on="1"/>
      </contour>
    </TTGlyph>
    <TTGlyph name="U" xMin="58" yMin="-13" xMax="633" yMax="739">
      <contour>
        <pt x="262" y="-13" on="1"/>
        <pt x="186" y="-13" on="0"/>
        <pt x="96" y="45" on="0"/>
        <pt x="58" y="144" on="0"/>
        <pt x="58" y="206" on="1"/>
        <pt x="58" y="235" on="0"/>
        <pt x="64" y="292" on="0"/>
        <pt x="69" y="323" on="1"/>
        <pt x="137" y="739" on="1"/>
        <pt x="275" y="739" on="1"/>
        <pt x="205" y="309" on="1"/>
        <pt x="200" y="285" on="0"/>
        <pt x="196" y="245" on="0"/>
        <pt x="196" y="226" on="1"/>
        <pt x="196" y="181" on="0"/>
        <pt x="234" y="130" on="0"/>
        <pt x="286" y="130" on="1"/>
        <pt x="333" y="130" on="0"/>
        <pt x="386" y="174" on="0"/>
        <pt x="417" y="254" on="0"/>
        <pt x="425" y="309" on="1"/>
        <pt x="495" y="739" on="1"/>
        <pt x="633" y="739" on="1"/>
        <pt x="565" y="323" on="1"/>
        <pt x="548" y="219" on="0"/>
        <pt x="495" y="87" on="0"/>
        <pt x="423" y="14" on="0"/>
        <pt x="325" y="-13" on="0"/>
      </contour>
    </TTGlyph>
    <TTGlyph name="Uacute" xMin="58" yMin="-13" xMax="633" yMax="966">
      <contour>
        <pt x="262" y="-13" on="1"/>
        <pt x="186" y="-13" on="0"/>
        <pt x="96" y="44" on="0"/>
        <pt x="58" y="142" on="0"/>
        <pt x="58" y="204" on="1"/>
        <pt x="58" y="232" on="0"/>
        <pt x="64" y="289" on="0"/>
        <pt x="69" y="319" on="1"/>
        <pt x="137" y="730" on="1"/>
        <pt x="275" y="730" on="1"/>
        <pt x="205" y="305" on="1"/>
        <pt x="200" y="282" on="0"/>
        <pt x="196" y="242" on="0"/>
        <pt x="196" y="223" on="1"/>
        <pt x="196" y="179" on="0"/>
        <pt x="234" y="128" on="0"/>
        <pt x="286" y="128" on="1"/>
        <pt x="333" y="128" on="0"/>
        <pt x="386" y="172" on="0"/>
        <pt x="417" y="251" on="0"/>
        <pt x="425" y="305" on="1"/>
        <pt x="495" y="730" on="1"/>
        <pt x="633" y="730" on="1"/>
        <pt x="565" y="319" on="1"/>
        <pt x="548" y="216" on="0"/>
        <pt x="495" y="86" on="0"/>
        <pt x="423" y="14" on="0"/>
        <pt x="325" y="-13" on="0"/>
      </contour>
      <contour>
        <pt x="326" y="799" on="1"/>
        <pt x="357" y="837" on="0"/>
        <pt x="416" y="912" on="0"/>
        <pt x="441" y="943" on="1"/>
        <pt x="452" y="958" on="0"/>
        <pt x="470" y="966" on="0"/>
        <pt x="478" y="966" on="1"/>
        <pt x="500" y="966" on="0"/>
        <pt x="526" y="928" on="0"/>
        <pt x="526" y="905" on="1"/>
        <pt x="526" y="876" on="0"/>
        <pt x="508" y="858" on="1"/>
        <pt x="504" y="853" on="0"/>
        <pt x="480" y="834" on="0"/>
        <pt x="451" y="813" on="0"/>
        <pt x="431" y="799" on="0"/>
        <pt x="431" y="799" on="1"/>
      </contour>
    </TTGlyph>
    <TTGlyph name="Ubreve" xMin="58" yMin="-13" xMax="633" yMax="950">
      <component glyphName="U" x="0" y="0" flags="0x204"/>
      <component glyphName="uni0306.case" x="205" y="0" flags="0x4"/>
    </TTGlyph>
    <TTGlyph name="Ucircumflex" xMin="58" yMin="-13" xMax="633" yMax="965">
      <contour>
        <pt x="262" y="-13" on="1"/>
        <pt x="186" y="-13" on="0"/>
        <pt x="96" y="44" on="0"/>
        <pt x="58" y="142" on="0"/>
        <pt x="58" y="204" on="1"/>
        <pt x="58" y="232" on="0"/>
        <pt x="64" y="289" on="0"/>
        <pt x="69" y="319" on="1"/>
        <pt x="137" y="730" on="1"/>
        <pt x="275" y="730" on="1"/>
        <pt x="205" y="305" on="1"/>
        <pt x="200" y="282" on="0"/>
        <pt x="196" y="242" on="0"/>
        <pt x="196" y="223" on="1"/>
        <pt x="196" y="179" on="0"/>
        <pt x="234" y="128" on="0"/>
        <pt x="286" y="128" on="1"/>
        <pt x="333" y="128" on="0"/>
        <pt x="386" y="172" on="0"/>
        <pt x="417" y="251" on="0"/>
        <pt x="425" y="305" on="1"/>
        <pt x="495" y="730" on="1"/>
        <pt x="633" y="730" on="1"/>
        <pt x="565" y="319" on="1"/>
        <pt x="548" y="216" on="0"/>
        <pt x="495" y="86" on="0"/>
        <pt x="423" y="14" on="0"/>
        <pt x="325" y="-13" on="0"/>
      </contour>
      <contour>
        <pt x="227" y="799" on="1"/>
        <pt x="387" y="949" on="1"/>
        <pt x="404" y="965" on="0"/>
        <pt x="425" y="965" on="1"/>
        <pt x="453" y="965" on="0"/>
        <pt x="472" y="938" on="1"/>
        <pt x="572" y="799" on="1"/>
        <pt x="473" y="799" on="1"/>
        <pt x="423" y="866" on="1"/>
        <pt x="352" y="799" on="1"/>
      </contour>
    </TTGlyph>
    <TTGlyph name="Udieresis" xMin="58" yMin="-13" xMax="633" yMax="947">
      <contour>
        <pt x="262" y="-13" on="1"/>
        <pt x="186" y="-13" on="0"/>
        <pt x="96" y="44" on="0"/>
        <pt x="58" y="142" on="0"/>
        <pt x="58" y="204" on="1"/>
        <pt x="58" y="232" on="0"/>
        <pt x="64" y="289" on="0"/>
        <pt x="69" y="319" on="1"/>
        <pt x="137" y="730" on="1"/>
        <pt x="275" y="730" on="1"/>
        <pt x="205" y="305" on="1"/>
        <pt x="200" y="282" on="0"/>
        <pt x="196" y="242" on="0"/>
        <pt x="196" y="223" on="1"/>
        <pt x="196" y="179" on="0"/>
        <pt x="234" y="128" on="0"/>
        <pt x="286" y="128" on="1"/>
        <pt x="333" y="128" on="0"/>
        <pt x="386" y="172" on="0"/>
        <pt x="417" y="251" on="0"/>
        <pt x="425" y="305" on="1"/>
        <pt x="495" y="730" on="1"/>
        <pt x="633" y="730" on="1"/>
        <pt x="565" y="319" on="1"/>
        <pt x="548" y="216" on="0"/>
        <pt x="495" y="86" on="0"/>
        <pt x="423" y="14" on="0"/>
        <pt x="325" y="-13" on="0"/>
      </contour>
      <contour>
        <pt x="329" y="793" on="1"/>
        <pt x="304" y="793" on="0"/>
        <pt x="269" y="838" on="0"/>
        <pt x="269" y="870" on="1"/>
        <pt x="269" y="902" on="0"/>
        <pt x="304" y="947" on="0"/>
        <pt x="329" y="947" on="1"/>
        <pt x="355" y="947" on="0"/>
        <pt x="389" y="902" on="0"/>
        <pt x="389" y="870" on="1"/>
        <pt x="389" y="838" on="0"/>
        <pt x="355" y="793" on="0"/>
      </contour>
      <contour>
        <pt x="494" y="793" on="1"/>
        <pt x="470" y="793" on="0"/>
        <pt x="434" y="838" on="0"/>
        <pt x="434" y="870" on="1"/>
        <pt x="434" y="902" on="0"/>
        <pt x="470" y="947" on="0"/>
        <pt x="494" y="947" on="1"/>
        <pt x="520" y="947" on="0"/>
        <pt x="553" y="902" on="0"/>
        <pt x="553" y="870" on="1"/>
        <pt x="553" y="838" on="0"/>
        <pt x="520" y="793" on="0"/>
      </contour>
    </TTGlyph>
    <TTGlyph name="Ugrave" xMin="58" yMin="-13" xMax="633" yMax="966">
      <contour>
        <pt x="262" y="-13" on="1"/>
        <pt x="186" y="-13" on="0"/>
        <pt x="96" y="44" on="0"/>
        <pt x="58" y="142" on="0"/>
        <pt x="58" y="204" on="1"/>
        <pt x="58" y="232" on="0"/>
        <pt x="64" y="289" on="0"/>
        <pt x="69" y="319" on="1"/>
        <pt x="137" y="730" on="1"/>
        <pt x="275" y="730" on="1"/>
        <pt x="205" y="305" on="1"/>
        <pt x="200" y="282" on="0"/>
        <pt x="196" y="242" on="0"/>
        <pt x="196" y="223" on="1"/>
        <pt x="196" y="179" on="0"/>
        <pt x="234" y="128" on="0"/>
        <pt x="286" y="128" on="1"/>
        <pt x="333" y="128" on="0"/>
        <pt x="386" y="172" on="0"/>
        <pt x="417" y="251" on="0"/>
        <pt x="425" y="305" on="1"/>
        <pt x="495" y="730" on="1"/>
        <pt x="633" y="730" on="1"/>
        <pt x="565" y="319" on="1"/>
        <pt x="548" y="216" on="0"/>
        <pt x="495" y="86" on="0"/>
        <pt x="423" y="14" on="0"/>
        <pt x="325" y="-13" on="0"/>
      </contour>
      <contour>
        <pt x="362" y="799" on="1"/>
        <pt x="358" y="803" on="0"/>
        <pt x="336" y="827" on="0"/>
        <pt x="313" y="856" on="0"/>
        <pt x="305" y="867" on="1"/>
        <pt x="295" y="884" on="0"/>
        <pt x="295" y="907" on="1"/>
        <pt x="295" y="932" on="0"/>
        <pt x="322" y="966" on="0"/>
        <pt x="341" y="966" on="1"/>
        <pt x="365" y="966" on="0"/>
        <pt x="379" y="943" on="1"/>
        <pt x="387" y="930" on="0"/>
        <pt x="410" y="886" on="0"/>
        <pt x="434" y="839" on="0"/>
        <pt x="451" y="803" on="0"/>
        <pt x="454" y="799" on="1"/>
      </contour>
    </TTGlyph>
    <TTGlyph name="Uhorn" xMin="58" yMin="-13" xMax="666" yMax="840">
      <component glyphName="U" x="0" y="0" flags="0x204"/>
      <component glyphName="uni031B" x="371" y="180" flags="0x4"/>
    </TTGlyph>
    <TTGlyph name="Uhungarumlaut" xMin="58" yMin="-13" xMax="633" yMax="981">
      <contour>
        <pt x="262" y="-13" on="1"/>
        <pt x="186" y="-13" on="0"/>
        <pt x="96" y="44" on="0"/>
        <pt x="58" y="142" on="0"/>
        <pt x="58" y="204" on="1"/>
        <pt x="58" y="232" on="0"/>
        <pt x="64" y="289" on="0"/>
        <pt x="69" y="319" on="1"/>
        <pt x="137" y="730" on="1"/>
        <pt x="275" y="730" on="1"/>
        <pt x="205" y="305" on="1"/>
        <pt x="200" y="282" on="0"/>
        <pt x="196" y="242" on="0"/>
        <pt x="196" y="223" on="1"/>
        <pt x="196" y="179" on="0"/>
        <pt x="234" y="128" on="0"/>
        <pt x="286" y="128" on="1"/>
        <pt x="333" y="128" on="0"/>
        <pt x="386" y="172" on="0"/>
        <pt x="417" y="251" on="0"/>
        <pt x="425" y="305" on="1"/>
        <pt x="495" y="730" on="1"/>
        <pt x="633" y="730" on="1"/>
        <pt x="565" y="319" on="1"/>
        <pt x="548" y="216" on="0"/>
        <pt x="495" y="86" on="0"/>
        <pt x="423" y="14" on="0"/>
        <pt x="325" y="-13" on="0"/>
      </contour>
      <contour>
        <pt x="256" y="813" on="1"/>
        <pt x="256" y="813" on="0"/>
        <pt x="281" y="844" on="0"/>
        <pt x="317" y="890" on="0"/>
        <pt x="353" y="935" on="0"/>
        <pt x="377" y="967" on="0"/>
        <pt x="378" y="967" on="1"/>
        <pt x="390" y="981" on="0"/>
        <pt x="408" y="981" on="1"/>
        <pt x="431" y="981" on="0"/>
        <pt x="445" y="958" on="1"/>
        <pt x="455" y="941" on="0"/>
        <pt x="455" y="918" on="1"/>
        <pt x="455" y="888" on="0"/>
        <pt x="438" y="872" on="1"/>
        <pt x="436" y="871" on="0"/>
        <pt x="412" y="852" on="0"/>
        <pt x="383" y="829" on="0"/>
        <pt x="361" y="813" on="0"/>
        <pt x="361" y="813" on="1"/>
      </contour>
      <contour>
        <pt x="433" y="813" on="1"/>
        <pt x="433" y="813" on="0"/>
        <pt x="458" y="844" on="0"/>
        <pt x="493" y="890" on="0"/>
        <pt x="529" y="935" on="0"/>
        <pt x="553" y="967" on="0"/>
        <pt x="554" y="967" on="1"/>
        <pt x="567" y="981" on="0"/>
        <pt x="585" y="981" on="1"/>
        <pt x="608" y="981" on="0"/>
        <pt x="621" y="958" on="1"/>
        <pt x="632" y="941" on="0"/>
        <pt x="632" y="918" on="1"/>
        <pt x="632" y="888" on="0"/>
        <pt x="614" y="872" on="1"/>
        <pt x="613" y="871" on="0"/>
        <pt x="589" y="852" on="0"/>
        <pt x="559" y="829" on="0"/>
        <pt x="537" y="813" on="0"/>
        <pt x="537" y="813" on="1"/>
      </contour>
    </TTGlyph>
    <TTGlyph name="Umacron" xMin="58" yMin="-13" xMax="633" yMax="923">
      <contour>
        <pt x="262" y="-13" on="1"/>
        <pt x="186" y="-13" on="0"/>
        <pt x="96" y="44" on="0"/>
        <pt x="58" y="142" on="0"/>
        <pt x="58" y="204" on="1"/>
        <pt x="58" y="232" on="0"/>
        <pt x="64" y="289" on="0"/>
        <pt x="69" y="319" on="1"/>
        <pt x="137" y="730" on="1"/>
        <pt x="275" y="730" on="1"/>
        <pt x="205" y="305" on="1"/>
        <pt x="200" y="282" on="0"/>
        <pt x="196" y="242" on="0"/>
        <pt x="196" y="223" on="1"/>
        <pt x="196" y="179" on="0"/>
        <pt x="234" y="128" on="0"/>
        <pt x="286" y="128" on="1"/>
        <pt x="333" y="128" on="0"/>
        <pt x="386" y="172" on="0"/>
        <pt x="417" y="251" on="0"/>
        <pt x="425" y="305" on="1"/>
        <pt x="495" y="730" on="1"/>
        <pt x="633" y="730" on="1"/>
        <pt x="565" y="319" on="1"/>
        <pt x="548" y="216" on="0"/>
        <pt x="495" y="86" on="0"/>
        <pt x="423" y="14" on="0"/>
        <pt x="325" y="-13" on="0"/>
      </contour>
      <contour>
        <pt x="275" y="816" on="1"/>
        <pt x="293" y="923" on="1"/>
        <pt x="548" y="923" on="1"/>
        <pt x="530" y="816" on="1"/>
      </contour>
    </TTGlyph>
    <TTGlyph name="Uogonek" xMin="58" yMin="-192" xMax="633" yMax="739">
      <contour>
        <pt x="262" y="-13" on="1"/>
        <pt x="186" y="-13" on="0"/>
        <pt x="96" y="45" on="0"/>
        <pt x="58" y="144" on="0"/>
        <pt x="58" y="206" on="1"/>
        <pt x="58" y="235" on="0"/>
        <pt x="64" y="292" on="0"/>
        <pt x="69" y="323" on="1"/>
        <pt x="137" y="739" on="1"/>
        <pt x="275" y="739" on="1"/>
        <pt x="205" y="309" on="1"/>
        <pt x="200" y="285" on="0"/>
        <pt x="196" y="245" on="0"/>
        <pt x="196" y="226" on="1"/>
        <pt x="196" y="181" on="0"/>
        <pt x="234" y="130" on="0"/>
        <pt x="286" y="130" on="1"/>
        <pt x="333" y="130" on="0"/>
        <pt x="386" y="174" on="0"/>
        <pt x="417" y="254" on="0"/>
        <pt x="425" y="309" on="1"/>
        <pt x="495" y="739" on="1"/>
        <pt x="633" y="739" on="1"/>
        <pt x="565" y="323" on="1"/>
        <pt x="548" y="219" on="0"/>
        <pt x="495" y="87" on="0"/>
        <pt x="423" y="14" on="0"/>
        <pt x="325" y="-13" on="0"/>
      </contour>
      <contour>
        <pt x="257" y="-192" on="1"/>
        <pt x="217" y="-192" on="0"/>
        <pt x="170" y="-167" on="0"/>
        <pt x="151" y="-129" on="0"/>
        <pt x="151" y="-109" on="1"/>
        <pt x="151" y="-69" on="0"/>
        <pt x="205" y="-11" on="0"/>
        <pt x="236" y="0" on="1"/>
        <pt x="356" y="0" on="1"/>
        <pt x="339" y="-2" on="0"/>
        <pt x="298" y="-24" on="0"/>
        <pt x="266" y="-57" on="0"/>
        <pt x="263" y="-75" on="1"/>
        <pt x="259" y="-95" on="0"/>
        <pt x="282" y="-108" on="0"/>
        <pt x="296" y="-108" on="1"/>
        <pt x="308" y="-108" on="0"/>
        <pt x="335" y="-99" on="0"/>
        <pt x="340" y="-98" on="1"/>
        <pt x="326" y="-181" on="1"/>
        <pt x="316" y="-186" on="0"/>
        <pt x="273" y="-192" on="0"/>
      </contour>
    </TTGlyph>
    <TTGlyph name="Upsilon" xMin="84" yMin="0" xMax="659" yMax="739">
      <component glyphName="Y" x="26" y="0" flags="0x4"/>
    </TTGlyph>
    <TTGlyph name="Upsilondieresis" xMin="58" yMin="0" xMax="634" yMax="953">
      <component glyphName="Y" x="0" y="0" flags="0x204"/>
      <component glyphName="uni0308.case" x="182" y="0" flags="0x4"/>
    </TTGlyph>
    <TTGlyph name="Upsilontonos" xMin="-74" yMin="0" xMax="633" yMax="739">
      <component glyphName="tonos.case" x="-156" y="0" flags="0x4"/>
      <component glyphName="Y" x="0" y="0" flags="0x204"/>
    </TTGlyph>
    <TTGlyph name="Uring" xMin="58" yMin="-13" xMax="633" yMax="1028">
      <contour>
        <pt x="262" y="-13" on="1"/>
        <pt x="186" y="-13" on="0"/>
        <pt x="96" y="44" on="0"/>
        <pt x="58" y="142" on="0"/>
        <pt x="58" y="204" on="1"/>
        <pt x="58" y="232" on="0"/>
        <pt x="64" y="289" on="0"/>
        <pt x="69" y="319" on="1"/>
        <pt x="137" y="730" on="1"/>
        <pt x="275" y="730" on="1"/>
        <pt x="205" y="305" on="1"/>
        <pt x="200" y="282" on="0"/>
        <pt x="196" y="242" on="0"/>
        <pt x="196" y="223" on="1"/>
        <pt x="196" y="179" on="0"/>
        <pt x="234" y="128" on="0"/>
        <pt x="286" y="128" on="1"/>
        <pt x="333" y="128" on="0"/>
        <pt x="386" y="172" on="0"/>
        <pt x="417" y="251" on="0"/>
        <pt x="425" y="305" on="1"/>
        <pt x="495" y="730" on="1"/>
        <pt x="633" y="730" on="1"/>
        <pt x="565" y="319" on="1"/>
        <pt x="548" y="216" on="0"/>
        <pt x="495" y="86" on="0"/>
        <pt x="423" y="14" on="0"/>
        <pt x="325" y="-13" on="0"/>
      </contour>
      <contour>
        <pt x="387" y="739" on="1"/>
        <pt x="357" y="739" on="0"/>
        <pt x="305" y="778" on="0"/>
        <pt x="275" y="845" on="0"/>
        <pt x="275" y="884" on="1"/>
        <pt x="275" y="925" on="0"/>
        <pt x="305" y="989" on="0"/>
        <pt x="357" y="1028" on="0"/>
        <pt x="387" y="1028" on="1"/>
        <pt x="419" y="1028" on="0"/>
        <pt x="470" y="989" on="0"/>
        <pt x="501" y="925" on="0"/>
        <pt x="501" y="884" on="1"/>
        <pt x="501" y="845" on="0"/>
        <pt x="470" y="778" on="0"/>
        <pt x="419" y="739" on="0"/>
      </contour>
      <contour>
        <pt x="387" y="833" on="1"/>
        <pt x="404" y="833" on="0"/>
        <pt x="427" y="863" on="0"/>
        <pt x="427" y="884" on="1"/>
        <pt x="427" y="906" on="0"/>
        <pt x="404" y="935" on="0"/>
        <pt x="387" y="935" on="1"/>
        <pt x="371" y="935" on="0"/>
        <pt x="347" y="906" on="0"/>
        <pt x="347" y="884" on="1"/>
        <pt x="347" y="863" on="0"/>
        <pt x="371" y="833" on="0"/>
      </contour>
    </TTGlyph>
    <TTGlyph name="Utilde" xMin="58" yMin="-13" xMax="633" yMax="954">
      <component glyphName="U" x="0" y="0" flags="0x204"/>
      <component glyphName="tildecomb.case" x="196" y="0" flags="0x4"/>
    </TTGlyph>
    <TTGlyph name="V" xMin="58" yMin="0" xMax="633" yMax="739">
      <contour>
        <pt x="133" y="0" on="1"/>
        <pt x="58" y="739" on="1"/>
        <pt x="199" y="739" on="1"/>
        <pt x="243" y="195" on="1"/>
        <pt x="473" y="739" on="1"/>
        <pt x="633" y="739" on="1"/>
        <pt x="303" y="0" on="1"/>
      </contour>
    </TTGlyph>
    <TTGlyph name="W" xMin="79" yMin="0" xMax="641" yMax="739">
      <contour>
        <pt x="92" y="0" on="1"/>
        <pt x="79" y="739" on="1"/>
        <pt x="178" y="739" on="1"/>
        <pt x="175" y="246" on="1"/>
        <pt x="298" y="739" on="1"/>
        <pt x="406" y="739" on="1"/>
        <pt x="406" y="227" on="1"/>
        <pt x="532" y="739" on="1"/>
        <pt x="641" y="739" on="1"/>
        <pt x="445" y="0" on="1"/>
        <pt x="328" y="0" on="1"/>
        <pt x="328" y="520" on="1"/>
        <pt x="198" y="0" on="1"/>
      </contour>
    </TTGlyph>
    <TTGlyph name="Wacute" xMin="79" yMin="0" xMax="641" yMax="950">
      <component glyphName="W" x="0" y="0" flags="0x204"/>
      <component glyphName="acutecomb.case" x="300" y="0" flags="0x4"/>
    </TTGlyph>
    <TTGlyph name="Wcircumflex" xMin="79" yMin="0" xMax="641" yMax="950">
      <component glyphName="W" x="0" y="0" flags="0x204"/>
      <component glyphName="uni0302.case" x="186" y="0" flags="0x4"/>
    </TTGlyph>
    <TTGlyph name="Wdieresis" xMin="79" yMin="0" xMax="648" yMax="953">
      <component glyphName="W" x="0" y="0" flags="0x204"/>
      <component glyphName="uni0308.case" x="196" y="0" flags="0x4"/>
    </TTGlyph>
    <TTGlyph name="Wgrave" xMin="79" yMin="0" xMax="641" yMax="950">
      <component glyphName="W" x="0" y="0" flags="0x204"/>
      <component glyphName="gravecomb.case" x="216" y="0" flags="0x4"/>
    </TTGlyph>
    <TTGlyph name="X" xMin="58" yMin="0" xMax="633" yMax="739">
      <contour>
        <pt x="58" y="0" on="1"/>
        <pt x="286" y="394" on="1"/>
        <pt x="179" y="739" on="1"/>
        <pt x="298" y="739" on="1"/>
        <pt x="365" y="527" on="1"/>
        <pt x="487" y="739" on="1"/>
        <pt x="633" y="739" on="1"/>
        <pt x="417" y="366" on="1"/>
        <pt x="531" y="0" on="1"/>
        <pt x="410" y="0" on="1"/>
        <pt x="338" y="232" on="1"/>
        <pt x="205" y="0" on="1"/>
      </contour>
    </TTGlyph>
    <TTGlyph name="Xi" xMin="47" yMin="0" xMax="650" yMax="739">
      <contour>
        <pt x="149" y="621" on="1"/>
        <pt x="169" y="739" on="1"/>
        <pt x="650" y="739" on="1"/>
        <pt x="630" y="621" on="1"/>
      </contour>
      <contour>
        <pt x="131" y="316" on="1"/>
        <pt x="150" y="433" on="1"/>
        <pt x="568" y="433" on="1"/>
        <pt x="548" y="316" on="1"/>
      </contour>
      <contour>
        <pt x="47" y="0" on="1"/>
        <pt x="66" y="117" on="1"/>
        <pt x="547" y="117" on="1"/>
        <pt x="528" y="0" on="1"/>
      </contour>
    </TTGlyph>
    <TTGlyph name="Y" xMin="58" yMin="0" xMax="633" yMax="739">
      <contour>
        <pt x="150" y="0" on="1"/>
        <pt x="193" y="266" on="1"/>
        <pt x="58" y="739" on="1"/>
        <pt x="202" y="739" on="1"/>
        <pt x="275" y="432" on="1"/>
        <pt x="461" y="739" on="1"/>
        <pt x="633" y="739" on="1"/>
        <pt x="329" y="266" on="1"/>
        <pt x="287" y="0" on="1"/>
      </contour>
    </TTGlyph>
    <TTGlyph name="Yacute" xMin="58" yMin="0" xMax="633" yMax="966">
      <contour>
        <pt x="150" y="0" on="1"/>
        <pt x="193" y="263" on="1"/>
        <pt x="58" y="730" on="1"/>
        <pt x="202" y="730" on="1"/>
        <pt x="275" y="427" on="1"/>
        <pt x="461" y="730" on="1"/>
        <pt x="633" y="730" on="1"/>
        <pt x="329" y="263" on="1"/>
        <pt x="287" y="0" on="1"/>
      </contour>
      <contour>
        <pt x="268" y="799" on="1"/>
        <pt x="298" y="837" on="0"/>
        <pt x="356" y="912" on="0"/>
        <pt x="381" y="943" on="1"/>
        <pt x="392" y="958" on="0"/>
        <pt x="410" y="966" on="0"/>
        <pt x="418" y="966" on="1"/>
        <pt x="440" y="966" on="0"/>
        <pt x="465" y="928" on="0"/>
        <pt x="465" y="905" on="1"/>
        <pt x="465" y="876" on="0"/>
        <pt x="448" y="858" on="1"/>
        <pt x="444" y="853" on="0"/>
        <pt x="420" y="834" on="0"/>
        <pt x="391" y="813" on="0"/>
        <pt x="371" y="799" on="0"/>
        <pt x="371" y="799" on="1"/>
      </contour>
    </TTGlyph>
    <TTGlyph name="Ycircumflex" xMin="58" yMin="0" xMax="633" yMax="950">
      <component glyphName="Y" x="0" y="0" flags="0x204"/>
      <component glyphName="uni0302.case" x="172" y="0" flags="0x4"/>
    </TTGlyph>
    <TTGlyph name="Ydieresis" xMin="58" yMin="0" xMax="633" yMax="947">
      <contour>
        <pt x="150" y="0" on="1"/>
        <pt x="193" y="263" on="1"/>
        <pt x="58" y="730" on="1"/>
        <pt x="202" y="730" on="1"/>
        <pt x="275" y="427" on="1"/>
        <pt x="461" y="730" on="1"/>
        <pt x="633" y="730" on="1"/>
        <pt x="329" y="263" on="1"/>
        <pt x="287" y="0" on="1"/>
      </contour>
      <contour>
        <pt x="271" y="793" on="1"/>
        <pt x="247" y="793" on="0"/>
        <pt x="211" y="838" on="0"/>
        <pt x="211" y="870" on="1"/>
        <pt x="211" y="902" on="0"/>
        <pt x="247" y="947" on="0"/>
        <pt x="271" y="947" on="1"/>
        <pt x="295" y="947" on="0"/>
        <pt x="329" y="902" on="0"/>
        <pt x="329" y="870" on="1"/>
        <pt x="329" y="838" on="0"/>
        <pt x="295" y="793" on="0"/>
      </contour>
      <contour>
        <pt x="434" y="793" on="1"/>
        <pt x="410" y="793" on="0"/>
        <pt x="375" y="838" on="0"/>
        <pt x="375" y="870" on="1"/>
        <pt x="375" y="902" on="0"/>
        <pt x="410" y="947" on="0"/>
        <pt x="434" y="947" on="1"/>
        <pt x="460" y="947" on="0"/>
        <pt x="493" y="902" on="0"/>
        <pt x="493" y="870" on="1"/>
        <pt x="493" y="838" on="0"/>
        <pt x="460" y="793" on="0"/>
      </contour>
    </TTGlyph>
    <TTGlyph name="Ygrave" xMin="58" yMin="0" xMax="633" yMax="950">
      <component glyphName="Y" x="0" y="0" flags="0x204"/>
      <component glyphName="gravecomb.case" x="202" y="0" flags="0x4"/>
    </TTGlyph>
    <TTGlyph name="Z" xMin="58" yMin="0" xMax="633" yMax="739">
      <contour>
        <pt x="58" y="0" on="1"/>
        <pt x="79" y="134" on="1"/>
        <pt x="424" y="585" on="1"/>
        <pt x="170" y="585" on="1"/>
        <pt x="194" y="739" on="1"/>
        <pt x="633" y="739" on="1"/>
        <pt x="612" y="605" on="1"/>
        <pt x="269" y="154" on="1"/>
        <pt x="545" y="154" on="1"/>
        <pt x="521" y="0" on="1"/>
      </contour>
    </TTGlyph>
    <TTGlyph name="Zacute" xMin="58" yMin="0" xMax="633" yMax="966">
      <contour>
        <pt x="58" y="0" on="1"/>
        <pt x="79" y="132" on="1"/>
        <pt x="424" y="578" on="1"/>
        <pt x="170" y="578" on="1"/>
        <pt x="194" y="730" on="1"/>
        <pt x="633" y="730" on="1"/>
        <pt x="612" y="598" on="1"/>
        <pt x="269" y="152" on="1"/>
        <pt x="545" y="152" on="1"/>
        <pt x="521" y="0" on="1"/>
      </contour>
      <contour>
        <pt x="361" y="799" on="1"/>
        <pt x="390" y="837" on="0"/>
        <pt x="446" y="912" on="0"/>
        <pt x="470" y="943" on="1"/>
        <pt x="482" y="958" on="0"/>
        <pt x="499" y="966" on="0"/>
        <pt x="506" y="966" on="1"/>
        <pt x="527" y="966" on="0"/>
        <pt x="551" y="928" on="0"/>
        <pt x="551" y="905" on="1"/>
        <pt x="551" y="876" on="0"/>
        <pt x="535" y="858" on="1"/>
        <pt x="531" y="853" on="0"/>
        <pt x="507" y="834" on="0"/>
        <pt x="481" y="813" on="0"/>
        <pt x="461" y="799" on="0"/>
        <pt x="461" y="799" on="1"/>
      </contour>
    </TTGlyph>
    <TTGlyph name="Zcaron" xMin="58" yMin="0" xMax="633" yMax="958">
      <contour>
        <pt x="58" y="0" on="1"/>
        <pt x="79" y="132" on="1"/>
        <pt x="424" y="578" on="1"/>
        <pt x="170" y="578" on="1"/>
        <pt x="194" y="730" on="1"/>
        <pt x="633" y="730" on="1"/>
        <pt x="612" y="598" on="1"/>
        <pt x="269" y="152" on="1"/>
        <pt x="545" y="152" on="1"/>
        <pt x="521" y="0" on="1"/>
      </contour>
      <contour>
        <pt x="429" y="792" on="1"/>
        <pt x="403" y="792" on="0"/>
        <pt x="385" y="820" on="1"/>
        <pt x="293" y="958" on="1"/>
        <pt x="386" y="958" on="1"/>
        <pt x="431" y="892" on="1"/>
        <pt x="500" y="958" on="1"/>
        <pt x="620" y="958" on="1"/>
        <pt x="465" y="809" on="1"/>
        <pt x="449" y="792" on="0"/>
      </contour>
    </TTGlyph>
    <TTGlyph name="Zdotaccent" xMin="58" yMin="0" xMax="633" yMax="947">
      <contour>
        <pt x="58" y="0" on="1"/>
        <pt x="79" y="132" on="1"/>
        <pt x="424" y="578" on="1"/>
        <pt x="170" y="578" on="1"/>
        <pt x="194" y="730" on="1"/>
        <pt x="633" y="730" on="1"/>
        <pt x="612" y="598" on="1"/>
        <pt x="269" y="152" on="1"/>
        <pt x="545" y="152" on="1"/>
        <pt x="521" y="0" on="1"/>
      </contour>
      <contour>
        <pt x="443" y="793" on="1"/>
        <pt x="420" y="793" on="0"/>
        <pt x="385" y="838" on="0"/>
        <pt x="385" y="870" on="1"/>
        <pt x="385" y="902" on="0"/>
        <pt x="420" y="947" on="0"/>
        <pt x="443" y="947" on="1"/>
        <pt x="467" y="947" on="0"/>
        <pt x="500" y="902" on="0"/>
        <pt x="500" y="870" on="1"/>
        <pt x="500" y="838" on="0"/>
        <pt x="467" y="793" on="0"/>
      </contour>
    </TTGlyph>
    <TTGlyph name="Zeta" xMin="84" yMin="0" xMax="659" yMax="739">
      <component glyphName="Z" x="26" y="0" flags="0x4"/>
    </TTGlyph>
    <TTGlyph name="a" xMin="53" yMin="-14" xMax="591" yMax="590">
      <contour>
        <pt x="209" y="-14" on="1"/>
        <pt x="169" y="-14" on="0"/>
        <pt x="98" y="22" on="0"/>
        <pt x="53" y="90" on="0"/>
        <pt x="53" y="137" on="1"/>
        <pt x="53" y="201" on="0"/>
        <pt x="121" y="284" on="0"/>
        <pt x="232" y="333" on="0"/>
        <pt x="363" y="358" on="0"/>
        <pt x="427" y="365" on="1"/>
        <pt x="431" y="383" on="0"/>
        <pt x="434" y="403" on="0"/>
        <pt x="434" y="410" on="1"/>
        <pt x="434" y="444" on="0"/>
        <pt x="394" y="472" on="0"/>
        <pt x="358" y="472" on="1"/>
        <pt x="324" y="472" on="0"/>
        <pt x="266" y="438" on="0"/>
        <pt x="251" y="403" on="1"/>
        <pt x="128" y="457" on="1"/>
        <pt x="168" y="525" on="0"/>
        <pt x="292" y="590" on="0"/>
        <pt x="380" y="590" on="1"/>
        <pt x="441" y="590" on="0"/>
        <pt x="536" y="550" on="0"/>
        <pt x="591" y="470" on="0"/>
        <pt x="591" y="409" on="1"/>
        <pt x="591" y="386" on="0"/>
        <pt x="579" y="316" on="0"/>
        <pt x="565" y="248" on="0"/>
        <pt x="561" y="224" on="1"/>
        <pt x="553" y="187" on="0"/>
        <pt x="542" y="101" on="0"/>
        <pt x="535" y="25" on="0"/>
        <pt x="535" y="0" on="1"/>
        <pt x="384" y="0" on="1"/>
        <pt x="379" y="68" on="1"/>
        <pt x="343" y="21" on="0"/>
        <pt x="264" y="-14" on="0"/>
      </contour>
      <contour>
        <pt x="291" y="105" on="1"/>
        <pt x="334" y="105" on="0"/>
        <pt x="396" y="166" on="0"/>
        <pt x="414" y="247" on="1"/>
        <pt x="417" y="261" on="1"/>
        <pt x="329" y="252" on="0"/>
        <pt x="222" y="208" on="0"/>
        <pt x="222" y="160" on="1"/>
        <pt x="222" y="135" on="0"/>
        <pt x="262" y="105" on="0"/>
      </contour>
    </TTGlyph>
    <TTGlyph name="aacute" xMin="53" yMin="-14" xMax="591" yMax="794">
      <contour>
        <pt x="209" y="-14" on="1"/>
        <pt x="169" y="-14" on="0"/>
        <pt x="98" y="22" on="0"/>
        <pt x="53" y="90" on="0"/>
        <pt x="53" y="137" on="1"/>
        <pt x="53" y="201" on="0"/>
        <pt x="121" y="284" on="0"/>
        <pt x="232" y="333" on="0"/>
        <pt x="363" y="358" on="0"/>
        <pt x="427" y="365" on="1"/>
        <pt x="431" y="383" on="0"/>
        <pt x="434" y="403" on="0"/>
        <pt x="434" y="410" on="1"/>
        <pt x="434" y="444" on="0"/>
        <pt x="394" y="472" on="0"/>
        <pt x="358" y="472" on="1"/>
        <pt x="324" y="472" on="0"/>
        <pt x="266" y="438" on="0"/>
        <pt x="251" y="403" on="1"/>
        <pt x="128" y="457" on="1"/>
        <pt x="168" y="525" on="0"/>
        <pt x="292" y="590" on="0"/>
        <pt x="380" y="590" on="1"/>
        <pt x="441" y="590" on="0"/>
        <pt x="536" y="550" on="0"/>
        <pt x="591" y="470" on="0"/>
        <pt x="591" y="409" on="1"/>
        <pt x="591" y="386" on="0"/>
        <pt x="579" y="316" on="0"/>
        <pt x="565" y="248" on="0"/>
        <pt x="561" y="224" on="1"/>
        <pt x="553" y="187" on="0"/>
        <pt x="542" y="101" on="0"/>
        <pt x="535" y="25" on="0"/>
        <pt x="535" y="0" on="1"/>
        <pt x="384" y="0" on="1"/>
        <pt x="379" y="68" on="1"/>
        <pt x="343" y="21" on="0"/>
        <pt x="264" y="-14" on="0"/>
      </contour>
      <contour>
        <pt x="291" y="105" on="1"/>
        <pt x="334" y="105" on="0"/>
        <pt x="396" y="166" on="0"/>
        <pt x="414" y="247" on="1"/>
        <pt x="417" y="261" on="1"/>
        <pt x="329" y="252" on="0"/>
        <pt x="222" y="208" on="0"/>
        <pt x="222" y="160" on="1"/>
        <pt x="222" y="135" on="0"/>
        <pt x="262" y="105" on="0"/>
      </contour>
      <contour>
        <pt x="325" y="627" on="1"/>
        <pt x="325" y="627" on="0"/>
        <pt x="356" y="658" on="0"/>
        <pt x="400" y="704" on="0"/>
        <pt x="444" y="750" on="0"/>
        <pt x="474" y="781" on="0"/>
        <pt x="476" y="781" on="1"/>
        <pt x="491" y="794" on="0"/>
        <pt x="511" y="794" on="1"/>
        <pt x="541" y="794" on="0"/>
        <pt x="557" y="772" on="1"/>
        <pt x="571" y="756" on="0"/>
        <pt x="571" y="733" on="1"/>
        <pt x="571" y="705" on="0"/>
        <pt x="549" y="686" on="1"/>
        <pt x="547" y="684" on="0"/>
        <pt x="518" y="666" on="0"/>
        <pt x="482" y="644" on="0"/>
        <pt x="455" y="627" on="0"/>
        <pt x="455" y="627" on="1"/>
      </contour>
    </TTGlyph>
    <TTGlyph name="abreve" xMin="53" yMin="-14" xMax="591" yMax="752">
      <contour>
        <pt x="209" y="-14" on="1"/>
        <pt x="169" y="-14" on="0"/>
        <pt x="98" y="22" on="0"/>
        <pt x="53" y="90" on="0"/>
        <pt x="53" y="137" on="1"/>
        <pt x="53" y="201" on="0"/>
        <pt x="121" y="284" on="0"/>
        <pt x="232" y="333" on="0"/>
        <pt x="363" y="358" on="0"/>
        <pt x="427" y="365" on="1"/>
        <pt x="431" y="383" on="0"/>
        <pt x="434" y="403" on="0"/>
        <pt x="434" y="410" on="1"/>
        <pt x="434" y="444" on="0"/>
        <pt x="394" y="472" on="0"/>
        <pt x="358" y="472" on="1"/>
        <pt x="324" y="472" on="0"/>
        <pt x="266" y="438" on="0"/>
        <pt x="251" y="403" on="1"/>
        <pt x="128" y="457" on="1"/>
        <pt x="168" y="525" on="0"/>
        <pt x="292" y="590" on="0"/>
        <pt x="380" y="590" on="1"/>
        <pt x="441" y="590" on="0"/>
        <pt x="536" y="550" on="0"/>
        <pt x="591" y="470" on="0"/>
        <pt x="591" y="409" on="1"/>
        <pt x="591" y="386" on="0"/>
        <pt x="579" y="316" on="0"/>
        <pt x="565" y="248" on="0"/>
        <pt x="561" y="224" on="1"/>
        <pt x="553" y="187" on="0"/>
        <pt x="542" y="101" on="0"/>
        <pt x="535" y="25" on="0"/>
        <pt x="535" y="0" on="1"/>
        <pt x="384" y="0" on="1"/>
        <pt x="379" y="68" on="1"/>
        <pt x="343" y="21" on="0"/>
        <pt x="264" y="-14" on="0"/>
      </contour>
      <contour>
        <pt x="291" y="105" on="1"/>
        <pt x="334" y="105" on="0"/>
        <pt x="396" y="166" on="0"/>
        <pt x="414" y="247" on="1"/>
        <pt x="417" y="261" on="1"/>
        <pt x="329" y="252" on="0"/>
        <pt x="222" y="208" on="0"/>
        <pt x="222" y="160" on="1"/>
        <pt x="222" y="135" on="0"/>
        <pt x="262" y="105" on="0"/>
      </contour>
      <contour>
        <pt x="420" y="631" on="1"/>
        <pt x="358" y="631" on="0"/>
        <pt x="276" y="698" on="0"/>
        <pt x="271" y="752" on="1"/>
        <pt x="368" y="752" on="1"/>
        <pt x="373" y="734" on="0"/>
        <pt x="404" y="711" on="0"/>
        <pt x="424" y="711" on="1"/>
        <pt x="446" y="711" on="0"/>
        <pt x="480" y="734" on="0"/>
        <pt x="486" y="752" on="1"/>
        <pt x="585" y="752" on="1"/>
        <pt x="570" y="702" on="0"/>
        <pt x="485" y="631" on="0"/>
      </contour>
    </TTGlyph>
    <TTGlyph name="acircumflex" xMin="53" yMin="-14" xMax="616" yMax="793">
      <contour>
        <pt x="209" y="-14" on="1"/>
        <pt x="169" y="-14" on="0"/>
        <pt x="98" y="22" on="0"/>
        <pt x="53" y="90" on="0"/>
        <pt x="53" y="137" on="1"/>
        <pt x="53" y="201" on="0"/>
        <pt x="121" y="284" on="0"/>
        <pt x="232" y="333" on="0"/>
        <pt x="363" y="358" on="0"/>
        <pt x="427" y="365" on="1"/>
        <pt x="431" y="383" on="0"/>
        <pt x="434" y="403" on="0"/>
        <pt x="434" y="410" on="1"/>
        <pt x="434" y="444" on="0"/>
        <pt x="394" y="472" on="0"/>
        <pt x="358" y="472" on="1"/>
        <pt x="324" y="472" on="0"/>
        <pt x="266" y="438" on="0"/>
        <pt x="251" y="403" on="1"/>
        <pt x="128" y="457" on="1"/>
        <pt x="168" y="525" on="0"/>
        <pt x="292" y="590" on="0"/>
        <pt x="380" y="590" on="1"/>
        <pt x="441" y="590" on="0"/>
        <pt x="536" y="550" on="0"/>
        <pt x="591" y="470" on="0"/>
        <pt x="591" y="409" on="1"/>
        <pt x="591" y="386" on="0"/>
        <pt x="579" y="316" on="0"/>
        <pt x="565" y="248" on="0"/>
        <pt x="561" y="224" on="1"/>
        <pt x="553" y="187" on="0"/>
        <pt x="542" y="101" on="0"/>
        <pt x="535" y="25" on="0"/>
        <pt x="535" y="0" on="1"/>
        <pt x="384" y="0" on="1"/>
        <pt x="379" y="68" on="1"/>
        <pt x="343" y="21" on="0"/>
        <pt x="264" y="-14" on="0"/>
      </contour>
      <contour>
        <pt x="291" y="105" on="1"/>
        <pt x="334" y="105" on="0"/>
        <pt x="396" y="166" on="0"/>
        <pt x="414" y="247" on="1"/>
        <pt x="417" y="261" on="1"/>
        <pt x="329" y="252" on="0"/>
        <pt x="222" y="208" on="0"/>
        <pt x="222" y="160" on="1"/>
        <pt x="222" y="135" on="0"/>
        <pt x="262" y="105" on="0"/>
      </contour>
      <contour>
        <pt x="189" y="627" on="1"/>
        <pt x="388" y="777" on="1"/>
        <pt x="409" y="793" on="0"/>
        <pt x="434" y="793" on="1"/>
        <pt x="469" y="793" on="0"/>
        <pt x="492" y="766" on="1"/>
        <pt x="616" y="627" on="1"/>
        <pt x="494" y="627" on="1"/>
        <pt x="432" y="694" on="1"/>
        <pt x="344" y="627" on="1"/>
      </contour>
    </TTGlyph>
    <TTGlyph name="acknowledgecontrol" xMin="31" yMin="241" xMax="631" yMax="493">
      <component glyphName="A" x="12" y="245" scale="0.33" flags="0x4"/>
      <component glyphName="C" x="211" y="245" scale="0.33" flags="0x4"/>
      <component glyphName="K" x="422" y="245" scale="0.33" flags="0x4"/>
    </TTGlyph>
    <TTGlyph name="acute" xMin="357" yMin="645" xMax="602" yMax="785">
      <contour>
        <pt x="357" y="645" on="1"/>
        <pt x="465" y="785" on="1"/>
        <pt x="602" y="785" on="1"/>
        <pt x="486" y="645" on="1"/>
      </contour>
    </TTGlyph>
    <TTGlyph name="acute.case" xMin="334" yMin="810" xMax="606" yMax="950">
      <component glyphName="acutecomb.case" x="278" y="0" flags="0x4"/>
    </TTGlyph>
    <TTGlyph name="acutecomb" xMin="56" yMin="645" xMax="329" yMax="785">
      <contour>
        <pt x="56" y="645" on="1"/>
        <pt x="186" y="785" on="1"/>
        <pt x="329" y="785" on="1"/>
        <pt x="190" y="645" on="1"/>
      </contour>
    </TTGlyph>
    <TTGlyph name="acutecomb.case" xMin="56" yMin="810" xMax="328" yMax="950">
      <contour>
        <pt x="56" y="810" on="1"/>
        <pt x="185" y="950" on="1"/>
        <pt x="328" y="950" on="1"/>
        <pt x="190" y="810" on="1"/>
      </contour>
    </TTGlyph>
    <TTGlyph name="adieresis" xMin="53" yMin="-14" xMax="591" yMax="786">
      <contour>
        <pt x="209" y="-14" on="1"/>
        <pt x="169" y="-14" on="0"/>
        <pt x="98" y="22" on="0"/>
        <pt x="53" y="90" on="0"/>
        <pt x="53" y="137" on="1"/>
        <pt x="53" y="201" on="0"/>
        <pt x="121" y="284" on="0"/>
        <pt x="232" y="333" on="0"/>
        <pt x="363" y="358" on="0"/>
        <pt x="427" y="365" on="1"/>
        <pt x="431" y="383" on="0"/>
        <pt x="434" y="403" on="0"/>
        <pt x="434" y="410" on="1"/>
        <pt x="434" y="444" on="0"/>
        <pt x="394" y="472" on="0"/>
        <pt x="358" y="472" on="1"/>
        <pt x="324" y="472" on="0"/>
        <pt x="266" y="438" on="0"/>
        <pt x="251" y="403" on="1"/>
        <pt x="128" y="457" on="1"/>
        <pt x="168" y="525" on="0"/>
        <pt x="292" y="590" on="0"/>
        <pt x="380" y="590" on="1"/>
        <pt x="441" y="590" on="0"/>
        <pt x="536" y="550" on="0"/>
        <pt x="591" y="470" on="0"/>
        <pt x="591" y="409" on="1"/>
        <pt x="591" y="386" on="0"/>
        <pt x="579" y="316" on="0"/>
        <pt x="565" y="248" on="0"/>
        <pt x="561" y="224" on="1"/>
        <pt x="553" y="187" on="0"/>
        <pt x="542" y="101" on="0"/>
        <pt x="535" y="25" on="0"/>
        <pt x="535" y="0" on="1"/>
        <pt x="384" y="0" on="1"/>
        <pt x="379" y="68" on="1"/>
        <pt x="343" y="21" on="0"/>
        <pt x="264" y="-14" on="0"/>
      </contour>
      <contour>
        <pt x="291" y="105" on="1"/>
        <pt x="334" y="105" on="0"/>
        <pt x="396" y="166" on="0"/>
        <pt x="414" y="247" on="1"/>
        <pt x="417" y="261" on="1"/>
        <pt x="329" y="252" on="0"/>
        <pt x="222" y="208" on="0"/>
        <pt x="222" y="160" on="1"/>
        <pt x="222" y="135" on="0"/>
        <pt x="262" y="105" on="0"/>
      </contour>
      <contour>
        <pt x="308" y="632" on="1"/>
        <pt x="277" y="632" on="0"/>
        <pt x="233" y="676" on="0"/>
        <pt x="233" y="708" on="1"/>
        <pt x="233" y="740" on="0"/>
        <pt x="277" y="786" on="0"/>
        <pt x="308" y="786" on="1"/>
        <pt x="338" y="786" on="0"/>
        <pt x="381" y="740" on="0"/>
        <pt x="381" y="708" on="1"/>
        <pt x="381" y="676" on="0"/>
        <pt x="338" y="632" on="0"/>
      </contour>
      <contour>
        <pt x="511" y="632" on="1"/>
        <pt x="481" y="632" on="0"/>
        <pt x="437" y="676" on="0"/>
        <pt x="437" y="708" on="1"/>
        <pt x="437" y="740" on="0"/>
        <pt x="481" y="786" on="0"/>
        <pt x="511" y="786" on="1"/>
        <pt x="542" y="786" on="0"/>
        <pt x="584" y="740" on="0"/>
        <pt x="584" y="708" on="1"/>
        <pt x="584" y="676" on="0"/>
        <pt x="542" y="632" on="0"/>
      </contour>
    </TTGlyph>
    <TTGlyph name="ae" xMin="38" yMin="-15" xMax="613" yMax="590">
      <contour>
        <pt x="159" y="-15" on="1"/>
        <pt x="125" y="-15" on="0"/>
        <pt x="69" y="20" on="0"/>
        <pt x="38" y="87" on="0"/>
        <pt x="38" y="137" on="1"/>
        <pt x="38" y="202" on="0"/>
        <pt x="81" y="285" on="0"/>
        <pt x="151" y="329" on="0"/>
        <pt x="236" y="347" on="0"/>
        <pt x="278" y="347" on="1"/>
        <pt x="281" y="375" on="0"/>
        <pt x="284" y="402" on="0"/>
        <pt x="284" y="409" on="1"/>
        <pt x="284" y="442" on="0"/>
        <pt x="259" y="472" on="0"/>
        <pt x="236" y="472" on="1"/>
        <pt x="216" y="472" on="0"/>
        <pt x="178" y="438" on="0"/>
        <pt x="170" y="403" on="1"/>
        <pt x="91" y="457" on="1"/>
        <pt x="116" y="524" on="0"/>
        <pt x="195" y="590" on="0"/>
        <pt x="251" y="590" on="1"/>
        <pt x="283" y="590" on="0"/>
        <pt x="330" y="553" on="0"/>
        <pt x="342" y="524" on="1"/>
        <pt x="366" y="557" on="0"/>
        <pt x="424" y="590" on="0"/>
        <pt x="465" y="590" on="1"/>
        <pt x="536" y="590" on="0"/>
        <pt x="613" y="457" on="0"/>
        <pt x="613" y="345" on="1"/>
        <pt x="613" y="320" on="0"/>
        <pt x="609" y="269" on="0"/>
        <pt x="606" y="242" on="1"/>
        <pt x="363" y="242" on="1"/>
        <pt x="362" y="235" on="0"/>
        <pt x="362" y="224" on="0"/>
        <pt x="362" y="217" on="1"/>
        <pt x="362" y="166" on="0"/>
        <pt x="403" y="123" on="0"/>
        <pt x="429" y="123" on="1"/>
        <pt x="449" y="123" on="0"/>
        <pt x="488" y="146" on="0"/>
        <pt x="498" y="165" on="1"/>
        <pt x="574" y="113" on="1"/>
        <pt x="546" y="52" on="0"/>
        <pt x="464" y="-14" on="0"/>
        <pt x="413" y="-14" on="1"/>
        <pt x="371" y="-14" on="0"/>
        <pt x="313" y="45" on="0"/>
        <pt x="296" y="90" on="1"/>
        <pt x="267" y="35" on="0"/>
        <pt x="196" y="-15" on="0"/>
      </contour>
      <contour>
        <pt x="372" y="347" on="1"/>
        <pt x="524" y="347" on="1"/>
        <pt x="524" y="351" on="0"/>
        <pt x="524" y="358" on="0"/>
        <pt x="524" y="363" on="1"/>
        <pt x="524" y="412" on="0"/>
        <pt x="487" y="461" on="0"/>
        <pt x="462" y="461" on="1"/>
        <pt x="434" y="461" on="0"/>
        <pt x="382" y="404" on="0"/>
      </contour>
      <contour>
        <pt x="190" y="105" on="1"/>
        <pt x="213" y="109" on="0"/>
        <pt x="241" y="141" on="0"/>
        <pt x="258" y="186" on="0"/>
        <pt x="266" y="228" on="0"/>
        <pt x="270" y="242" on="1"/>
        <pt x="212" y="243" on="0"/>
        <pt x="148" y="219" on="0"/>
        <pt x="145" y="167" on="1"/>
        <pt x="143" y="139" on="0"/>
        <pt x="168" y="102" on="0"/>
      </contour>
    </TTGlyph>
    <TTGlyph name="aeacute" xMin="38" yMin="-15" xMax="613" yMax="787">
      <component glyphName="ae" x="0" y="0" flags="0x204"/>
      <component glyphName="acutecomb" x="240" y="2" flags="0x4"/>
    </TTGlyph>
    <TTGlyph name="agrave" xMin="53" yMin="-14" xMax="591" yMax="794">
      <contour>
        <pt x="209" y="-14" on="1"/>
        <pt x="169" y="-14" on="0"/>
        <pt x="98" y="22" on="0"/>
        <pt x="53" y="90" on="0"/>
        <pt x="53" y="137" on="1"/>
        <pt x="53" y="201" on="0"/>
        <pt x="121" y="284" on="0"/>
        <pt x="232" y="333" on="0"/>
        <pt x="363" y="358" on="0"/>
        <pt x="427" y="365" on="1"/>
        <pt x="431" y="383" on="0"/>
        <pt x="434" y="403" on="0"/>
        <pt x="434" y="410" on="1"/>
        <pt x="434" y="444" on="0"/>
        <pt x="394" y="472" on="0"/>
        <pt x="358" y="472" on="1"/>
        <pt x="324" y="472" on="0"/>
        <pt x="266" y="438" on="0"/>
        <pt x="251" y="403" on="1"/>
        <pt x="128" y="457" on="1"/>
        <pt x="168" y="525" on="0"/>
        <pt x="292" y="590" on="0"/>
        <pt x="380" y="590" on="1"/>
        <pt x="441" y="590" on="0"/>
        <pt x="536" y="550" on="0"/>
        <pt x="591" y="470" on="0"/>
        <pt x="591" y="409" on="1"/>
        <pt x="591" y="386" on="0"/>
        <pt x="579" y="316" on="0"/>
        <pt x="565" y="248" on="0"/>
        <pt x="561" y="224" on="1"/>
        <pt x="553" y="187" on="0"/>
        <pt x="542" y="101" on="0"/>
        <pt x="535" y="25" on="0"/>
        <pt x="535" y="0" on="1"/>
        <pt x="384" y="0" on="1"/>
        <pt x="379" y="68" on="1"/>
        <pt x="343" y="21" on="0"/>
        <pt x="264" y="-14" on="0"/>
      </contour>
      <contour>
        <pt x="291" y="105" on="1"/>
        <pt x="334" y="105" on="0"/>
        <pt x="396" y="166" on="0"/>
        <pt x="414" y="247" on="1"/>
        <pt x="417" y="261" on="1"/>
        <pt x="329" y="252" on="0"/>
        <pt x="222" y="208" on="0"/>
        <pt x="222" y="160" on="1"/>
        <pt x="222" y="135" on="0"/>
        <pt x="262" y="105" on="0"/>
      </contour>
      <contour>
        <pt x="338" y="627" on="1"/>
        <pt x="338" y="627" on="0"/>
        <pt x="311" y="651" on="0"/>
        <pt x="277" y="683" on="0"/>
        <pt x="268" y="694" on="1"/>
        <pt x="255" y="713" on="0"/>
        <pt x="255" y="732" on="1"/>
        <pt x="255" y="761" on="0"/>
        <pt x="277" y="780" on="1"/>
        <pt x="292" y="794" on="0"/>
        <pt x="314" y="794" on="1"/>
        <pt x="342" y="794" on="0"/>
        <pt x="359" y="772" on="1"/>
        <pt x="368" y="758" on="0"/>
        <pt x="400" y="711" on="0"/>
        <pt x="430" y="661" on="0"/>
        <pt x="451" y="627" on="0"/>
        <pt x="451" y="627" on="1"/>
      </contour>
    </TTGlyph>
    <TTGlyph name="alpha" xMin="59" yMin="-14" xMax="597" yMax="590">
      <component glyphName="a" x="6" y="0" flags="0x4"/>
    </TTGlyph>
    <TTGlyph name="alphatonos" xMin="53" yMin="-14" xMax="591" yMax="787">
      <component glyphName="tonos" x="228" y="2" flags="0x4"/>
      <component glyphName="a" x="0" y="0" flags="0x204"/>
    </TTGlyph>
    <TTGlyph name="amacron" xMin="53" yMin="-14" xMax="591" yMax="730">
      <contour>
        <pt x="209" y="-14" on="1"/>
        <pt x="169" y="-14" on="0"/>
        <pt x="98" y="22" on="0"/>
        <pt x="53" y="90" on="0"/>
        <pt x="53" y="137" on="1"/>
        <pt x="53" y="201" on="0"/>
        <pt x="121" y="284" on="0"/>
        <pt x="232" y="333" on="0"/>
        <pt x="363" y="358" on="0"/>
        <pt x="427" y="365" on="1"/>
        <pt x="431" y="383" on="0"/>
        <pt x="434" y="403" on="0"/>
        <pt x="434" y="410" on="1"/>
        <pt x="434" y="444" on="0"/>
        <pt x="394" y="472" on="0"/>
        <pt x="358" y="472" on="1"/>
        <pt x="324" y="472" on="0"/>
        <pt x="266" y="438" on="0"/>
        <pt x="251" y="403" on="1"/>
        <pt x="128" y="457" on="1"/>
        <pt x="168" y="525" on="0"/>
        <pt x="292" y="590" on="0"/>
        <pt x="380" y="590" on="1"/>
        <pt x="441" y="590" on="0"/>
        <pt x="536" y="550" on="0"/>
        <pt x="591" y="470" on="0"/>
        <pt x="591" y="409" on="1"/>
        <pt x="591" y="386" on="0"/>
        <pt x="579" y="316" on="0"/>
        <pt x="565" y="248" on="0"/>
        <pt x="561" y="224" on="1"/>
        <pt x="553" y="187" on="0"/>
        <pt x="542" y="101" on="0"/>
        <pt x="535" y="25" on="0"/>
        <pt x="535" y="0" on="1"/>
        <pt x="384" y="0" on="1"/>
        <pt x="379" y="68" on="1"/>
        <pt x="343" y="21" on="0"/>
        <pt x="264" y="-14" on="0"/>
      </contour>
      <contour>
        <pt x="291" y="105" on="1"/>
        <pt x="334" y="105" on="0"/>
        <pt x="396" y="166" on="0"/>
        <pt x="414" y="247" on="1"/>
        <pt x="417" y="261" on="1"/>
        <pt x="329" y="252" on="0"/>
        <pt x="222" y="208" on="0"/>
        <pt x="222" y="160" on="1"/>
        <pt x="222" y="135" on="0"/>
        <pt x="262" y="105" on="0"/>
      </contour>
      <contour>
        <pt x="245" y="623" on="1"/>
        <pt x="267" y="730" on="1"/>
        <pt x="581" y="730" on="1"/>
        <pt x="558" y="623" on="1"/>
      </contour>
    </TTGlyph>
    <TTGlyph name="ampersand" xMin="43" yMin="-10" xMax="626" yMax="740">
      <contour>
        <pt x="221" y="-10" on="1"/>
        <pt x="129" y="-10" on="0"/>
        <pt x="43" y="90" on="0"/>
        <pt x="57" y="178" on="1"/>
        <pt x="73" y="271" on="1"/>
        <pt x="82" y="330" on="0"/>
        <pt x="149" y="411" on="0"/>
        <pt x="202" y="427" on="1"/>
        <pt x="183" y="465" on="0"/>
        <pt x="169" y="536" on="0"/>
        <pt x="174" y="572" on="1"/>
        <pt x="182" y="622" on="0"/>
        <pt x="244" y="698" on="0"/>
        <pt x="339" y="740" on="0"/>
        <pt x="399" y="740" on="1"/>
        <pt x="491" y="740" on="0"/>
        <pt x="585" y="641" on="0"/>
        <pt x="572" y="558" on="1"/>
        <pt x="453" y="558" on="1"/>
        <pt x="459" y="594" on="0"/>
        <pt x="420" y="637" on="0"/>
        <pt x="382" y="637" on="1"/>
        <pt x="345" y="637" on="0"/>
        <pt x="295" y="596" on="0"/>
        <pt x="289" y="562" on="1"/>
        <pt x="285" y="538" on="0"/>
        <pt x="301" y="480" on="0"/>
        <pt x="319" y="450" on="1"/>
        <pt x="429" y="255" on="1"/>
        <pt x="502" y="360" on="1"/>
        <pt x="626" y="360" on="1"/>
        <pt x="484" y="157" on="1"/>
        <pt x="573" y="0" on="1"/>
        <pt x="445" y="0" on="1"/>
        <pt x="408" y="66" on="1"/>
        <pt x="324" y="-10" on="0"/>
      </contour>
      <contour>
        <pt x="249" y="93" on="1"/>
        <pt x="278" y="93" on="0"/>
        <pt x="335" y="125" on="0"/>
        <pt x="358" y="153" on="1"/>
        <pt x="249" y="345" on="1"/>
        <pt x="204" y="327" on="0"/>
        <pt x="195" y="271" on="1"/>
        <pt x="179" y="178" on="1"/>
        <pt x="173" y="137" on="0"/>
        <pt x="210" y="93" on="0"/>
      </contour>
    </TTGlyph>
    <TTGlyph name="anoteleia" xMin="0" yMin="265" xMax="196" yMax="452">
      <component glyphName="period" x="-24" y="275" flags="0x4"/>
    </TTGlyph>
    <TTGlyph name="aogonek" xMin="53" yMin="-200" xMax="591" yMax="590">
      <contour>
        <pt x="209" y="-14" on="1"/>
        <pt x="169" y="-14" on="0"/>
        <pt x="98" y="22" on="0"/>
        <pt x="53" y="90" on="0"/>
        <pt x="53" y="137" on="1"/>
        <pt x="53" y="201" on="0"/>
        <pt x="121" y="284" on="0"/>
        <pt x="232" y="333" on="0"/>
        <pt x="363" y="358" on="0"/>
        <pt x="427" y="365" on="1"/>
        <pt x="431" y="383" on="0"/>
        <pt x="434" y="403" on="0"/>
        <pt x="434" y="410" on="1"/>
        <pt x="434" y="444" on="0"/>
        <pt x="394" y="472" on="0"/>
        <pt x="358" y="472" on="1"/>
        <pt x="324" y="472" on="0"/>
        <pt x="266" y="438" on="0"/>
        <pt x="251" y="403" on="1"/>
        <pt x="128" y="457" on="1"/>
        <pt x="168" y="525" on="0"/>
        <pt x="292" y="590" on="0"/>
        <pt x="380" y="590" on="1"/>
        <pt x="441" y="590" on="0"/>
        <pt x="536" y="550" on="0"/>
        <pt x="591" y="470" on="0"/>
        <pt x="591" y="409" on="1"/>
        <pt x="591" y="386" on="0"/>
        <pt x="579" y="316" on="0"/>
        <pt x="565" y="248" on="0"/>
        <pt x="561" y="224" on="1"/>
        <pt x="553" y="187" on="0"/>
        <pt x="542" y="101" on="0"/>
        <pt x="535" y="25" on="0"/>
        <pt x="535" y="0" on="1"/>
        <pt x="384" y="0" on="1"/>
        <pt x="379" y="68" on="1"/>
        <pt x="343" y="21" on="0"/>
        <pt x="264" y="-14" on="0"/>
      </contour>
      <contour>
        <pt x="291" y="105" on="1"/>
        <pt x="334" y="105" on="0"/>
        <pt x="396" y="166" on="0"/>
        <pt x="414" y="247" on="1"/>
        <pt x="417" y="261" on="1"/>
        <pt x="329" y="252" on="0"/>
        <pt x="222" y="208" on="0"/>
        <pt x="222" y="160" on="1"/>
        <pt x="222" y="135" on="0"/>
        <pt x="262" y="105" on="0"/>
      </contour>
      <contour>
        <pt x="419" y="-200" on="1"/>
        <pt x="367" y="-200" on="0"/>
        <pt x="311" y="-173" on="0"/>
        <pt x="288" y="-132" on="0"/>
        <pt x="288" y="-111" on="1"/>
        <pt x="288" y="-76" on="0"/>
        <pt x="343" y="-12" on="0"/>
        <pt x="383" y="0" on="1"/>
        <pt x="534" y="0" on="1"/>
        <pt x="491" y="-22" on="0"/>
        <pt x="422" y="-64" on="0"/>
        <pt x="422" y="-87" on="1"/>
        <pt x="422" y="-103" on="0"/>
        <pt x="451" y="-112" on="0"/>
        <pt x="467" y="-112" on="1"/>
        <pt x="482" y="-112" on="0"/>
        <pt x="513" y="-104" on="0"/>
        <pt x="521" y="-102" on="1"/>
        <pt x="504" y="-190" on="1"/>
        <pt x="490" y="-193" on="0"/>
        <pt x="439" y="-200" on="0"/>
      </contour>
    </TTGlyph>
    <TTGlyph name="approxequal" xMin="56" yMin="84" xMax="566" yMax="576">
      <contour>
        <pt x="56" y="361" on="1"/>
        <pt x="56" y="440" on="1"/>
        <pt x="56" y="501" on="0"/>
        <pt x="138" y="576" on="0"/>
        <pt x="205" y="576" on="1"/>
        <pt x="247" y="576" on="0"/>
        <pt x="303" y="548" on="0"/>
        <pt x="339" y="508" on="0"/>
        <pt x="368" y="467" on="0"/>
        <pt x="396" y="440" on="0"/>
        <pt x="418" y="440" on="1"/>
        <pt x="457" y="440" on="0"/>
        <pt x="457" y="483" on="1"/>
        <pt x="457" y="556" on="1"/>
        <pt x="566" y="556" on="1"/>
        <pt x="566" y="477" on="1"/>
        <pt x="566" y="416" on="0"/>
        <pt x="485" y="341" on="0"/>
        <pt x="417" y="341" on="1"/>
        <pt x="375" y="341" on="0"/>
        <pt x="319" y="369" on="0"/>
        <pt x="283" y="409" on="0"/>
        <pt x="254" y="450" on="0"/>
        <pt x="226" y="477" on="0"/>
        <pt x="204" y="477" on="1"/>
        <pt x="165" y="477" on="0"/>
        <pt x="165" y="434" on="1"/>
        <pt x="165" y="361" on="1"/>
      </contour>
      <contour>
        <pt x="56" y="104" on="1"/>
        <pt x="56" y="183" on="1"/>
        <pt x="56" y="244" on="0"/>
        <pt x="138" y="319" on="0"/>
        <pt x="205" y="319" on="1"/>
        <pt x="247" y="319" on="0"/>
        <pt x="303" y="291" on="0"/>
        <pt x="339" y="251" on="0"/>
        <pt x="368" y="210" on="0"/>
        <pt x="396" y="183" on="0"/>
        <pt x="418" y="183" on="1"/>
        <pt x="457" y="183" on="0"/>
        <pt x="457" y="226" on="1"/>
        <pt x="457" y="299" on="1"/>
        <pt x="566" y="299" on="1"/>
        <pt x="566" y="220" on="1"/>
        <pt x="566" y="159" on="0"/>
        <pt x="485" y="84" on="0"/>
        <pt x="417" y="84" on="1"/>
        <pt x="375" y="84" on="0"/>
        <pt x="319" y="112" on="0"/>
        <pt x="283" y="152" on="0"/>
        <pt x="254" y="193" on="0"/>
        <pt x="226" y="220" on="0"/>
        <pt x="204" y="220" on="1"/>
        <pt x="165" y="220" on="0"/>
        <pt x="165" y="177" on="1"/>
        <pt x="165" y="104" on="1"/>
      </contour>
    </TTGlyph>
    <TTGlyph name="aring" xMin="53" yMin="-14" xMax="591" yMax="874">
      <contour>
        <pt x="209" y="-14" on="1"/>
        <pt x="169" y="-14" on="0"/>
        <pt x="98" y="22" on="0"/>
        <pt x="53" y="90" on="0"/>
        <pt x="53" y="137" on="1"/>
        <pt x="53" y="201" on="0"/>
        <pt x="121" y="284" on="0"/>
        <pt x="232" y="333" on="0"/>
        <pt x="363" y="358" on="0"/>
        <pt x="427" y="365" on="1"/>
        <pt x="431" y="383" on="0"/>
        <pt x="434" y="403" on="0"/>
        <pt x="434" y="410" on="1"/>
        <pt x="434" y="444" on="0"/>
        <pt x="394" y="472" on="0"/>
        <pt x="358" y="472" on="1"/>
        <pt x="324" y="472" on="0"/>
        <pt x="266" y="438" on="0"/>
        <pt x="251" y="403" on="1"/>
        <pt x="128" y="457" on="1"/>
        <pt x="168" y="525" on="0"/>
        <pt x="292" y="590" on="0"/>
        <pt x="380" y="590" on="1"/>
        <pt x="441" y="590" on="0"/>
        <pt x="536" y="550" on="0"/>
        <pt x="591" y="470" on="0"/>
        <pt x="591" y="409" on="1"/>
        <pt x="591" y="386" on="0"/>
        <pt x="579" y="316" on="0"/>
        <pt x="565" y="248" on="0"/>
        <pt x="561" y="224" on="1"/>
        <pt x="553" y="187" on="0"/>
        <pt x="542" y="101" on="0"/>
        <pt x="535" y="25" on="0"/>
        <pt x="535" y="0" on="1"/>
        <pt x="384" y="0" on="1"/>
        <pt x="379" y="68" on="1"/>
        <pt x="343" y="21" on="0"/>
        <pt x="264" y="-14" on="0"/>
      </contour>
      <contour>
        <pt x="291" y="105" on="1"/>
        <pt x="334" y="105" on="0"/>
        <pt x="396" y="166" on="0"/>
        <pt x="414" y="247" on="1"/>
        <pt x="417" y="261" on="1"/>
        <pt x="329" y="252" on="0"/>
        <pt x="222" y="208" on="0"/>
        <pt x="222" y="160" on="1"/>
        <pt x="222" y="135" on="0"/>
        <pt x="262" y="105" on="0"/>
      </contour>
      <contour>
        <pt x="403" y="585" on="1"/>
        <pt x="365" y="585" on="0"/>
        <pt x="302" y="624" on="0"/>
        <pt x="264" y="691" on="0"/>
        <pt x="264" y="730" on="1"/>
        <pt x="264" y="770" on="0"/>
        <pt x="302" y="835" on="0"/>
        <pt x="365" y="874" on="0"/>
        <pt x="403" y="874" on="1"/>
        <pt x="442" y="874" on="0"/>
        <pt x="505" y="835" on="0"/>
        <pt x="543" y="770" on="0"/>
        <pt x="543" y="730" on="1"/>
        <pt x="543" y="691" on="0"/>
        <pt x="505" y="624" on="0"/>
        <pt x="442" y="585" on="0"/>
      </contour>
      <contour>
        <pt x="403" y="679" on="1"/>
        <pt x="424" y="679" on="0"/>
        <pt x="452" y="709" on="0"/>
        <pt x="452" y="730" on="1"/>
        <pt x="452" y="752" on="0"/>
        <pt x="424" y="781" on="0"/>
        <pt x="403" y="781" on="1"/>
        <pt x="383" y="781" on="0"/>
        <pt x="354" y="752" on="0"/>
        <pt x="354" y="730" on="1"/>
        <pt x="354" y="709" on="0"/>
        <pt x="383" y="679" on="0"/>
      </contour>
    </TTGlyph>
    <TTGlyph name="arrowboth" xMin="0" yMin="35" xMax="782" yMax="625">
      <contour>
        <pt x="239" y="35" on="1"/>
        <pt x="0" y="330" on="1"/>
        <pt x="238" y="625" on="1"/>
        <pt x="347" y="625" on="1"/>
        <pt x="180" y="420" on="1"/>
        <pt x="170" y="407" on="0"/>
        <pt x="143" y="382" on="0"/>
        <pt x="134" y="375" on="1"/>
        <pt x="134" y="366" on="1"/>
        <pt x="147" y="368" on="0"/>
        <pt x="189" y="370" on="0"/>
        <pt x="206" y="370" on="1"/>
        <pt x="576" y="370" on="1"/>
        <pt x="594" y="370" on="0"/>
        <pt x="635" y="367" on="0"/>
        <pt x="649" y="365" on="1"/>
        <pt x="649" y="374" on="1"/>
        <pt x="641" y="380" on="0"/>
        <pt x="616" y="406" on="0"/>
        <pt x="602" y="421" on="1"/>
        <pt x="435" y="625" on="1"/>
        <pt x="543" y="625" on="1"/>
        <pt x="782" y="330" on="1"/>
        <pt x="544" y="35" on="1"/>
        <pt x="435" y="35" on="1"/>
        <pt x="602" y="240" on="1"/>
        <pt x="612" y="253" on="0"/>
        <pt x="639" y="278" on="0"/>
        <pt x="649" y="285" on="1"/>
        <pt x="649" y="294" on="1"/>
        <pt x="635" y="293" on="0"/>
        <pt x="594" y="290" on="0"/>
        <pt x="576" y="290" on="1"/>
        <pt x="206" y="290" on="1"/>
        <pt x="189" y="290" on="0"/>
        <pt x="147" y="294" on="0"/>
        <pt x="134" y="295" on="1"/>
        <pt x="134" y="286" on="1"/>
        <pt x="141" y="280" on="0"/>
        <pt x="166" y="254" on="0"/>
        <pt x="180" y="239" on="1"/>
        <pt x="347" y="35" on="1"/>
      </contour>
    </TTGlyph>
    <TTGlyph name="arrowdblboth" xMin="0" yMin="35" xMax="782" yMax="625">
      <contour>
        <pt x="238" y="35" on="1"/>
        <pt x="0" y="330" on="1"/>
        <pt x="239" y="625" on="1"/>
        <pt x="347" y="625" on="1"/>
        <pt x="238" y="490" on="1"/>
        <pt x="544" y="490" on="1"/>
        <pt x="435" y="625" on="1"/>
        <pt x="543" y="625" on="1"/>
        <pt x="782" y="330" on="1"/>
        <pt x="544" y="35" on="1"/>
        <pt x="435" y="35" on="1"/>
        <pt x="544" y="170" on="1"/>
        <pt x="238" y="170" on="1"/>
        <pt x="347" y="35" on="1"/>
      </contour>
      <contour>
        <pt x="173" y="250" on="1"/>
        <pt x="609" y="250" on="1"/>
        <pt x="674" y="330" on="1"/>
        <pt x="609" y="410" on="1"/>
        <pt x="173" y="410" on="1"/>
        <pt x="108" y="330" on="1"/>
      </contour>
    </TTGlyph>
    <TTGlyph name="arrowdbldown" xMin="24" yMin="-190" xMax="662" yMax="829">
      <contour>
        <pt x="410" y="829" on="1"/>
        <pt x="410" y="-190" on="1"/>
        <pt x="662" y="48" on="1"/>
        <pt x="662" y="113" on="1"/>
        <pt x="461" y="-76" on="1"/>
        <pt x="461" y="829" on="1"/>
      </contour>
      <contour>
        <pt x="225" y="829" on="1"/>
        <pt x="225" y="-76" on="1"/>
        <pt x="24" y="113" on="1"/>
        <pt x="24" y="48" on="1"/>
        <pt x="276" y="-190" on="1"/>
        <pt x="276" y="829" on="1"/>
      </contour>
    </TTGlyph>
    <TTGlyph name="arrowdblright" xMin="0" yMin="35" xMax="782" yMax="625">
      <contour>
        <pt x="435" y="35" on="1"/>
        <pt x="544" y="170" on="1"/>
        <pt x="0" y="170" on="1"/>
        <pt x="0" y="250" on="1"/>
        <pt x="609" y="250" on="1"/>
        <pt x="674" y="330" on="1"/>
        <pt x="609" y="410" on="1"/>
        <pt x="0" y="410" on="1"/>
        <pt x="0" y="490" on="1"/>
        <pt x="544" y="490" on="1"/>
        <pt x="435" y="625" on="1"/>
        <pt x="543" y="625" on="1"/>
        <pt x="782" y="330" on="1"/>
        <pt x="544" y="35" on="1"/>
      </contour>
    </TTGlyph>
    <TTGlyph name="arrowdblup" xMin="5" yMin="-180" xMax="643" yMax="839">
      <contour>
        <pt x="391" y="-180" on="1"/>
        <pt x="391" y="839" on="1"/>
        <pt x="643" y="601" on="1"/>
        <pt x="643" y="536" on="1"/>
        <pt x="442" y="725" on="1"/>
        <pt x="442" y="-180" on="1"/>
      </contour>
      <contour>
        <pt x="206" y="-180" on="1"/>
        <pt x="206" y="725" on="1"/>
        <pt x="5" y="536" on="1"/>
        <pt x="5" y="601" on="1"/>
        <pt x="257" y="839" on="1"/>
        <pt x="257" y="-180" on="1"/>
      </contour>
    </TTGlyph>
    <TTGlyph name="arrowdown" xMin="21" yMin="-10" xMax="619" yMax="730">
      <contour>
        <pt x="319" y="-10" on="1"/>
        <pt x="21" y="236" on="1"/>
        <pt x="21" y="341" on="1"/>
        <pt x="213" y="183" on="1"/>
        <pt x="236" y="164" on="0"/>
        <pt x="264" y="136" on="0"/>
        <pt x="269" y="130" on="1"/>
        <pt x="279" y="130" on="1"/>
        <pt x="278" y="143" on="0"/>
        <pt x="274" y="188" on="0"/>
        <pt x="274" y="210" on="1"/>
        <pt x="274" y="730" on="1"/>
        <pt x="366" y="730" on="1"/>
        <pt x="366" y="210" on="1"/>
        <pt x="366" y="188" on="0"/>
        <pt x="363" y="143" on="0"/>
        <pt x="361" y="130" on="1"/>
        <pt x="372" y="130" on="1"/>
        <pt x="382" y="145" on="0"/>
        <pt x="428" y="184" on="1"/>
        <pt x="619" y="342" on="1"/>
        <pt x="619" y="237" on="1"/>
      </contour>
    </TTGlyph>
    <TTGlyph name="arrowleft" xMin="42" yMin="35" xMax="588" yMax="625">
      <contour>
        <pt x="281" y="35" on="1"/>
        <pt x="42" y="330" on="1"/>
        <pt x="280" y="625" on="1"/>
        <pt x="389" y="625" on="1"/>
        <pt x="222" y="420" on="1"/>
        <pt x="212" y="407" on="0"/>
        <pt x="185" y="382" on="0"/>
        <pt x="176" y="375" on="1"/>
        <pt x="176" y="366" on="1"/>
        <pt x="189" y="368" on="0"/>
        <pt x="232" y="370" on="0"/>
        <pt x="248" y="370" on="1"/>
        <pt x="588" y="370" on="1"/>
        <pt x="588" y="290" on="1"/>
        <pt x="248" y="290" on="1"/>
        <pt x="232" y="290" on="0"/>
        <pt x="189" y="294" on="0"/>
        <pt x="176" y="295" on="1"/>
        <pt x="176" y="286" on="1"/>
        <pt x="183" y="280" on="0"/>
        <pt x="209" y="254" on="0"/>
        <pt x="222" y="239" on="1"/>
        <pt x="389" y="35" on="1"/>
      </contour>
    </TTGlyph>
    <TTGlyph name="arrowright" xMin="42" yMin="35" xMax="588" yMax="625">
      <contour>
        <pt x="241" y="35" on="1"/>
        <pt x="408" y="240" on="1"/>
        <pt x="418" y="253" on="0"/>
        <pt x="445" y="278" on="0"/>
        <pt x="454" y="285" on="1"/>
        <pt x="454" y="294" on="1"/>
        <pt x="441" y="293" on="0"/>
        <pt x="400" y="290" on="0"/>
        <pt x="382" y="290" on="1"/>
        <pt x="42" y="290" on="1"/>
        <pt x="42" y="370" on="1"/>
        <pt x="382" y="370" on="1"/>
        <pt x="400" y="370" on="0"/>
        <pt x="441" y="367" on="0"/>
        <pt x="454" y="365" on="1"/>
        <pt x="454" y="374" on="1"/>
        <pt x="447" y="380" on="0"/>
        <pt x="421" y="406" on="0"/>
        <pt x="408" y="421" on="1"/>
        <pt x="241" y="625" on="1"/>
        <pt x="349" y="625" on="1"/>
        <pt x="588" y="330" on="1"/>
        <pt x="350" y="35" on="1"/>
      </contour>
    </TTGlyph>
    <TTGlyph name="arrowup" xMin="21" yMin="0" xMax="619" yMax="740">
      <contour>
        <pt x="274" y="0" on="1"/>
        <pt x="274" y="520" on="1"/>
        <pt x="274" y="542" on="0"/>
        <pt x="278" y="587" on="0"/>
        <pt x="279" y="600" on="1"/>
        <pt x="269" y="600" on="1"/>
        <pt x="258" y="585" on="0"/>
        <pt x="212" y="546" on="1"/>
        <pt x="21" y="388" on="1"/>
        <pt x="21" y="493" on="1"/>
        <pt x="321" y="740" on="1"/>
        <pt x="619" y="494" on="1"/>
        <pt x="619" y="389" on="1"/>
        <pt x="427" y="547" on="1"/>
        <pt x="404" y="566" on="0"/>
        <pt x="377" y="594" on="0"/>
        <pt x="372" y="600" on="1"/>
        <pt x="361" y="600" on="1"/>
        <pt x="363" y="587" on="0"/>
        <pt x="366" y="542" on="0"/>
        <pt x="366" y="520" on="1"/>
        <pt x="366" y="0" on="1"/>
      </contour>
    </TTGlyph>
    <TTGlyph name="arrowupdn" xMin="21" yMin="-170" xMax="619" yMax="900">
      <contour>
        <pt x="320" y="-170" on="1"/>
        <pt x="21" y="76" on="1"/>
        <pt x="21" y="181" on="1"/>
        <pt x="213" y="23" on="1"/>
        <pt x="236" y="4" on="0"/>
        <pt x="264" y="-24" on="0"/>
        <pt x="269" y="-30" on="1"/>
        <pt x="279" y="-30" on="1"/>
        <pt x="278" y="-17" on="0"/>
        <pt x="274" y="28" on="0"/>
        <pt x="274" y="50" on="1"/>
        <pt x="274" y="680" on="1"/>
        <pt x="274" y="702" on="0"/>
        <pt x="278" y="747" on="0"/>
        <pt x="279" y="760" on="1"/>
        <pt x="269" y="760" on="1"/>
        <pt x="258" y="745" on="0"/>
        <pt x="212" y="706" on="1"/>
        <pt x="21" y="548" on="1"/>
        <pt x="21" y="653" on="1"/>
        <pt x="320" y="900" on="1"/>
        <pt x="619" y="654" on="1"/>
        <pt x="619" y="549" on="1"/>
        <pt x="427" y="707" on="1"/>
        <pt x="404" y="726" on="0"/>
        <pt x="377" y="754" on="0"/>
        <pt x="372" y="760" on="1"/>
        <pt x="361" y="760" on="1"/>
        <pt x="363" y="747" on="0"/>
        <pt x="366" y="702" on="0"/>
        <pt x="366" y="680" on="1"/>
        <pt x="366" y="50" on="1"/>
        <pt x="366" y="28" on="0"/>
        <pt x="363" y="-17" on="0"/>
        <pt x="361" y="-30" on="1"/>
        <pt x="372" y="-30" on="1"/>
        <pt x="382" y="-15" on="0"/>
        <pt x="428" y="24" on="1"/>
        <pt x="619" y="182" on="1"/>
        <pt x="619" y="77" on="1"/>
      </contour>
    </TTGlyph>
    <TTGlyph name="asciicircum" xMin="58" yMin="340" xMax="536" yMax="730">
      <contour>
        <pt x="58" y="340" on="1"/>
        <pt x="236" y="730" on="1"/>
        <pt x="360" y="730" on="1"/>
        <pt x="536" y="340" on="1"/>
        <pt x="415" y="340" on="1"/>
        <pt x="321" y="570" on="1"/>
        <pt x="312" y="591" on="0"/>
        <pt x="301" y="630" on="0"/>
        <pt x="299" y="640" on="1"/>
        <pt x="296" y="630" on="0"/>
        <pt x="284" y="591" on="0"/>
        <pt x="275" y="570" on="1"/>
        <pt x="178" y="340" on="1"/>
      </contour>
    </TTGlyph>
    <TTGlyph name="asciitilde" xMin="56" yMin="235" xMax="566" yMax="470">
      <contour>
        <pt x="56" y="255" on="1"/>
        <pt x="56" y="334" on="1"/>
        <pt x="56" y="395" on="0"/>
        <pt x="138" y="470" on="0"/>
        <pt x="205" y="470" on="1"/>
        <pt x="247" y="470" on="0"/>
        <pt x="303" y="442" on="0"/>
        <pt x="339" y="402" on="0"/>
        <pt x="368" y="361" on="0"/>
        <pt x="396" y="334" on="0"/>
        <pt x="418" y="334" on="1"/>
        <pt x="457" y="334" on="0"/>
        <pt x="457" y="377" on="1"/>
        <pt x="457" y="450" on="1"/>
        <pt x="566" y="450" on="1"/>
        <pt x="566" y="371" on="1"/>
        <pt x="566" y="310" on="0"/>
        <pt x="485" y="235" on="0"/>
        <pt x="417" y="235" on="1"/>
        <pt x="375" y="235" on="0"/>
        <pt x="319" y="263" on="0"/>
        <pt x="283" y="303" on="0"/>
        <pt x="254" y="344" on="0"/>
        <pt x="226" y="371" on="0"/>
        <pt x="204" y="371" on="1"/>
        <pt x="165" y="371" on="0"/>
        <pt x="165" y="328" on="1"/>
        <pt x="165" y="255" on="1"/>
      </contour>
    </TTGlyph>
    <TTGlyph name="asterisk" xMin="0" yMin="87" xMax="556" yMax="610">
      <contour>
        <pt x="118" y="87" on="1"/>
        <pt x="34" y="151" on="1"/>
        <pt x="85" y="210" on="1"/>
        <pt x="104" y="231" on="0"/>
        <pt x="156" y="274" on="0"/>
        <pt x="210" y="310" on="0"/>
        <pt x="228" y="322" on="1"/>
        <pt x="227" y="328" on="1"/>
        <pt x="205" y="328" on="0"/>
        <pt x="147" y="333" on="0"/>
        <pt x="88" y="342" on="0"/>
        <pt x="64" y="351" on="1"/>
        <pt x="0" y="375" on="1"/>
        <pt x="56" y="481" on="1"/>
        <pt x="121" y="457" on="1"/>
        <pt x="156" y="444" on="0"/>
        <pt x="228" y="389" on="0"/>
        <pt x="251" y="369" on="1"/>
        <pt x="256" y="373" on="1"/>
        <pt x="253" y="393" on="0"/>
        <pt x="246" y="450" on="0"/>
        <pt x="242" y="512" on="0"/>
        <pt x="247" y="538" on="1"/>
        <pt x="259" y="610" on="1"/>
        <pt x="374" y="610" on="1"/>
        <pt x="363" y="538" on="1"/>
        <pt x="359" y="512" on="0"/>
        <pt x="335" y="450" on="0"/>
        <pt x="308" y="393" on="0"/>
        <pt x="298" y="373" on="1"/>
        <pt x="302" y="370" on="1"/>
        <pt x="322" y="383" on="0"/>
        <pt x="375" y="417" on="0"/>
        <pt x="433" y="448" on="0"/>
        <pt x="459" y="457" on="1"/>
        <pt x="533" y="481" on="1"/>
        <pt x="556" y="375" on="1"/>
        <pt x="482" y="351" on="1"/>
        <pt x="443" y="338" on="0"/>
        <pt x="346" y="329" on="0"/>
        <pt x="314" y="328" on="1"/>
        <pt x="310" y="322" on="1"/>
        <pt x="333" y="304" on="0"/>
        <pt x="398" y="242" on="0"/>
        <pt x="416" y="210" on="1"/>
        <pt x="448" y="151" on="1"/>
        <pt x="343" y="87" on="1"/>
        <pt x="310" y="146" on="1"/>
        <pt x="298" y="167" on="0"/>
        <pt x="282" y="224" on="0"/>
        <pt x="271" y="280" on="0"/>
        <pt x="268" y="299" on="1"/>
        <pt x="262" y="299" on="1"/>
        <pt x="253" y="280" on="0"/>
        <pt x="224" y="224" on="0"/>
        <pt x="189" y="167" on="0"/>
        <pt x="169" y="146" on="1"/>
      </contour>
    </TTGlyph>
    <TTGlyph name="at" xMin="20" yMin="-179" xMax="661" yMax="740">
      <contour>
        <pt x="287" y="-179" on="1"/>
        <pt x="195" y="-179" on="0"/>
        <pt x="72" y="-109" on="0"/>
        <pt x="20" y="21" on="0"/>
        <pt x="35" y="111" on="1"/>
        <pt x="89" y="450" on="1"/>
        <pt x="104" y="540" on="0"/>
        <pt x="195" y="670" on="0"/>
        <pt x="335" y="740" on="0"/>
        <pt x="425" y="740" on="1"/>
        <pt x="507" y="740" on="0"/>
        <pt x="615" y="679" on="0"/>
        <pt x="661" y="570" on="0"/>
        <pt x="649" y="498" on="1"/>
        <pt x="579" y="65" on="1"/>
        <pt x="475" y="65" on="1"/>
        <pt x="487" y="136" on="1"/>
        <pt x="484" y="136" on="1"/>
        <pt x="473" y="99" on="0"/>
        <pt x="407" y="55" on="0"/>
        <pt x="361" y="55" on="1"/>
        <pt x="296" y="55" on="0"/>
        <pt x="242" y="139" on="0"/>
        <pt x="254" y="216" on="1"/>
        <pt x="272" y="330" on="1"/>
        <pt x="286" y="407" on="0"/>
        <pt x="366" y="491" on="0"/>
        <pt x="431" y="491" on="1"/>
        <pt x="477" y="491" on="0"/>
        <pt x="530" y="447" on="0"/>
        <pt x="528" y="410" on="1"/>
        <pt x="532" y="410" on="1"/>
        <pt x="542" y="488" on="1"/>
        <pt x="543" y="498" on="1"/>
        <pt x="555" y="571" on="0"/>
        <pt x="486" y="650" on="0"/>
        <pt x="407" y="650" on="1"/>
        <pt x="323" y="650" on="0"/>
        <pt x="211" y="545" on="0"/>
        <pt x="196" y="450" on="1"/>
        <pt x="140" y="111" on="1"/>
        <pt x="125" y="18" on="0"/>
        <pt x="210" y="-84" on="0"/>
        <pt x="302" y="-84" on="1"/>
        <pt x="374" y="-84" on="1"/>
        <pt x="359" y="-179" on="1"/>
      </contour>
      <contour>
        <pt x="414" y="131" on="1"/>
        <pt x="450" y="131" on="0"/>
        <pt x="490" y="173" on="0"/>
        <pt x="498" y="220" on="1"/>
        <pt x="515" y="330" on="1"/>
        <pt x="530" y="415" on="0"/>
        <pt x="460" y="415" on="1"/>
        <pt x="389" y="415" on="0"/>
        <pt x="376" y="330" on="1"/>
        <pt x="358" y="216" on="1"/>
        <pt x="350" y="171" on="0"/>
        <pt x="379" y="131" on="0"/>
      </contour>
    </TTGlyph>
    <TTGlyph name="atilde" xMin="53" yMin="-14" xMax="622" yMax="754">
      <contour>
        <pt x="209" y="-14" on="1"/>
        <pt x="169" y="-14" on="0"/>
        <pt x="98" y="22" on="0"/>
        <pt x="53" y="90" on="0"/>
        <pt x="53" y="137" on="1"/>
        <pt x="53" y="201" on="0"/>
        <pt x="121" y="284" on="0"/>
        <pt x="232" y="333" on="0"/>
        <pt x="363" y="358" on="0"/>
        <pt x="427" y="365" on="1"/>
        <pt x="431" y="383" on="0"/>
        <pt x="434" y="403" on="0"/>
        <pt x="434" y="410" on="1"/>
        <pt x="434" y="444" on="0"/>
        <pt x="394" y="472" on="0"/>
        <pt x="358" y="472" on="1"/>
        <pt x="324" y="472" on="0"/>
        <pt x="266" y="438" on="0"/>
        <pt x="251" y="403" on="1"/>
        <pt x="128" y="457" on="1"/>
        <pt x="168" y="525" on="0"/>
        <pt x="292" y="590" on="0"/>
        <pt x="380" y="590" on="1"/>
        <pt x="441" y="590" on="0"/>
        <pt x="536" y="550" on="0"/>
        <pt x="591" y="470" on="0"/>
        <pt x="591" y="409" on="1"/>
        <pt x="591" y="386" on="0"/>
        <pt x="579" y="316" on="0"/>
        <pt x="565" y="248" on="0"/>
        <pt x="561" y="224" on="1"/>
        <pt x="553" y="187" on="0"/>
        <pt x="542" y="101" on="0"/>
        <pt x="535" y="25" on="0"/>
        <pt x="535" y="0" on="1"/>
        <pt x="384" y="0" on="1"/>
        <pt x="379" y="68" on="1"/>
        <pt x="343" y="21" on="0"/>
        <pt x="264" y="-14" on="0"/>
      </contour>
      <contour>
        <pt x="291" y="105" on="1"/>
        <pt x="334" y="105" on="0"/>
        <pt x="396" y="166" on="0"/>
        <pt x="414" y="247" on="1"/>
        <pt x="417" y="261" on="1"/>
        <pt x="329" y="252" on="0"/>
        <pt x="222" y="208" on="0"/>
        <pt x="222" y="160" on="1"/>
        <pt x="222" y="135" on="0"/>
        <pt x="262" y="105" on="0"/>
      </contour>
      <contour>
        <pt x="494" y="621" on="1"/>
        <pt x="464" y="621" on="0"/>
        <pt x="425" y="634" on="0"/>
        <pt x="396" y="650" on="0"/>
        <pt x="367" y="663" on="0"/>
        <pt x="346" y="663" on="1"/>
        <pt x="313" y="663" on="0"/>
        <pt x="292" y="627" on="1"/>
        <pt x="199" y="627" on="1"/>
        <pt x="208" y="659" on="0"/>
        <pt x="249" y="717" on="0"/>
        <pt x="307" y="753" on="0"/>
        <pt x="341" y="753" on="1"/>
        <pt x="383" y="753" on="0"/>
        <pt x="432" y="731" on="0"/>
        <pt x="466" y="708" on="0"/>
        <pt x="487" y="708" on="1"/>
        <pt x="510" y="708" on="0"/>
        <pt x="534" y="726" on="0"/>
        <pt x="552" y="747" on="0"/>
        <pt x="568" y="752" on="1"/>
        <pt x="571" y="753" on="0"/>
        <pt x="578" y="754" on="0"/>
        <pt x="581" y="754" on="1"/>
        <pt x="598" y="754" on="0"/>
        <pt x="622" y="729" on="0"/>
        <pt x="622" y="711" on="1"/>
        <pt x="622" y="695" on="0"/>
        <pt x="611" y="681" on="1"/>
        <pt x="601" y="664" on="0"/>
        <pt x="545" y="621" on="0"/>
      </contour>
    </TTGlyph>
    <TTGlyph name="b" xMin="38" yMin="-13" xMax="613" yMax="730">
      <contour>
        <pt x="351" y="-13" on="1"/>
        <pt x="311" y="-13" on="0"/>
        <pt x="235" y="26" on="0"/>
        <pt x="208" y="72" on="1"/>
        <pt x="174" y="0" on="1"/>
        <pt x="38" y="0" on="1"/>
        <pt x="179" y="730" on="1"/>
        <pt x="335" y="730" on="1"/>
        <pt x="285" y="476" on="1"/>
        <pt x="314" y="518" on="0"/>
        <pt x="391" y="557" on="0"/>
        <pt x="431" y="557" on="1"/>
        <pt x="482" y="557" on="0"/>
        <pt x="564" y="506" on="0"/>
        <pt x="613" y="405" on="0"/>
        <pt x="613" y="331" on="1"/>
        <pt x="613" y="263" on="0"/>
        <pt x="576" y="139" on="0"/>
        <pt x="508" y="43" on="0"/>
        <pt x="411" y="-13" on="0"/>
      </contour>
      <contour>
        <pt x="325" y="115" on="1"/>
        <pt x="358" y="115" on="0"/>
        <pt x="417" y="158" on="0"/>
        <pt x="453" y="242" on="0"/>
        <pt x="453" y="301" on="1"/>
        <pt x="453" y="358" on="0"/>
        <pt x="411" y="428" on="0"/>
        <pt x="368" y="428" on="1"/>
        <pt x="323" y="428" on="0"/>
        <pt x="262" y="366" on="0"/>
        <pt x="234" y="273" on="0"/>
        <pt x="234" y="227" on="1"/>
        <pt x="234" y="170" on="0"/>
        <pt x="287" y="115" on="0"/>
      </contour>
    </TTGlyph>
    <TTGlyph name="backslash" xMin="38" yMin="-110" xMax="379" yMax="830">
      <contour>
        <pt x="250" y="-110" on="1"/>
        <pt x="38" y="830" on="1"/>
        <pt x="167" y="830" on="1"/>
        <pt x="379" y="-110" on="1"/>
      </contour>
    </TTGlyph>
    <TTGlyph name="backspacecontrol" xMin="61" yMin="241" xMax="454" yMax="493">
      <component glyphName="B" x="42" y="245" scale="0.33" flags="0x4"/>
      <component glyphName="S" x="245" y="245" scale="0.33" flags="0x4"/>
    </TTGlyph>
    <TTGlyph name="bar" xMin="125" yMin="-110" xMax="225" yMax="830">
      <contour>
        <pt x="165" y="-110" on="1"/>
        <pt x="185" y="-110" on="1"/>
        <pt x="225" y="-110" on="0"/>
        <pt x="225" y="-70" on="1"/>
        <pt x="225" y="790" on="1"/>
        <pt x="225" y="830" on="0"/>
        <pt x="185" y="830" on="1"/>
        <pt x="165" y="830" on="1"/>
        <pt x="125" y="830" on="0"/>
        <pt x="125" y="790" on="1"/>
        <pt x="125" y="-70" on="1"/>
        <pt x="125" y="-110" on="0"/>
      </contour>
    </TTGlyph>
    <TTGlyph name="bellcontrol" xMin="34" yMin="245" xMax="622" yMax="489">
      <component glyphName="B" x="15" y="245" scale="0.33" flags="0x4"/>
      <component glyphName="E" x="220" y="245" scale="0.33" flags="0x4"/>
      <component glyphName="L" x="425" y="245" scale="0.33" flags="0x4"/>
    </TTGlyph>
    <TTGlyph name="beta" xMin="20" yMin="-180" xMax="641" yMax="740">
      <contour>
        <pt x="20" y="-180" on="1"/>
        <pt x="139" y="523" on="1"/>
        <pt x="149" y="588" on="0"/>
        <pt x="224" y="686" on="0"/>
        <pt x="339" y="740" on="0"/>
        <pt x="411" y="740" on="1"/>
        <pt x="522" y="740" on="0"/>
        <pt x="641" y="637" on="0"/>
        <pt x="626" y="549" on="1"/>
        <pt x="615" y="487" on="0"/>
        <pt x="533" y="404" on="0"/>
        <pt x="469" y="389" on="1"/>
        <pt x="533" y="372" on="0"/>
        <pt x="595" y="278" on="0"/>
        <pt x="584" y="209" on="1"/>
        <pt x="573" y="147" on="0"/>
        <pt x="496" y="53" on="0"/>
        <pt x="377" y="0" on="0"/>
        <pt x="302" y="0" on="1"/>
        <pt x="173" y="0" on="1"/>
        <pt x="143" y="-180" on="1"/>
      </contour>
      <contour>
        <pt x="191" y="107" on="1"/>
        <pt x="313" y="107" on="1"/>
        <pt x="369" y="107" on="0"/>
        <pt x="442" y="167" on="0"/>
        <pt x="451" y="217" on="1"/>
        <pt x="459" y="267" on="0"/>
        <pt x="404" y="325" on="0"/>
        <pt x="349" y="325" on="1"/>
        <pt x="301" y="325" on="1"/>
        <pt x="317" y="422" on="1"/>
        <pt x="363" y="422" on="1"/>
        <pt x="414" y="422" on="0"/>
        <pt x="481" y="479" on="0"/>
        <pt x="488" y="525" on="1"/>
        <pt x="497" y="575" on="0"/>
        <pt x="444" y="633" on="0"/>
        <pt x="392" y="633" on="1"/>
        <pt x="339" y="633" on="0"/>
        <pt x="269" y="574" on="0"/>
        <pt x="260" y="523" on="1"/>
      </contour>
    </TTGlyph>
    <TTGlyph name="block" xMin="13" yMin="-300" xMax="631" yMax="1020">
      <contour>
        <pt x="13" y="-300" on="1"/>
        <pt x="13" y="1020" on="1"/>
        <pt x="631" y="1020" on="1"/>
        <pt x="631" y="-300" on="1"/>
      </contour>
    </TTGlyph>
    <TTGlyph name="braceleft" xMin="61" yMin="-111" xMax="599" yMax="830">
      <contour>
        <pt x="376" y="-111" on="1"/>
        <pt x="289" y="-111" on="0"/>
        <pt x="200" y="-15" on="0"/>
        <pt x="218" y="67" on="1"/>
        <pt x="253" y="219" on="1"/>
        <pt x="263" y="260" on="0"/>
        <pt x="229" y="302" on="0"/>
        <pt x="183" y="302" on="1"/>
        <pt x="61" y="302" on="1"/>
        <pt x="79" y="417" on="1"/>
        <pt x="201" y="417" on="1"/>
        <pt x="247" y="417" on="0"/>
        <pt x="294" y="459" on="0"/>
        <pt x="298" y="499" on="1"/>
        <pt x="314" y="656" on="1"/>
        <pt x="322" y="737" on="0"/>
        <pt x="441" y="830" on="0"/>
        <pt x="528" y="830" on="1"/>
        <pt x="599" y="830" on="1"/>
        <pt x="580" y="715" on="1"/>
        <pt x="528" y="715" on="1"/>
        <pt x="491" y="715" on="0"/>
        <pt x="444" y="681" on="0"/>
        <pt x="441" y="644" on="1"/>
        <pt x="425" y="488" on="1"/>
        <pt x="420" y="437" on="0"/>
        <pt x="350" y="369" on="0"/>
        <pt x="294" y="360" on="1"/>
        <pt x="347" y="351" on="0"/>
        <pt x="395" y="282" on="0"/>
        <pt x="383" y="231" on="1"/>
        <pt x="348" y="75" on="1"/>
        <pt x="340" y="42" on="0"/>
        <pt x="376" y="5" on="0"/>
        <pt x="413" y="5" on="1"/>
        <pt x="465" y="5" on="1"/>
        <pt x="446" y="-111" on="1"/>
      </contour>
    </TTGlyph>
</ttFont>
